<?xml version="1.0" standalone="no"?>
<!DOCTYPE svg PUBLIC "-//W3C//DTD SVG 1.1//EN" "http://www.w3.org/Graphics/SVG/1.1/DTD/svg11.dtd" >
<svg xmlns="http://www.w3.org/2000/svg" xmlns:xlink="http://www.w3.org/1999/xlink" version="1.1">
<metadata>
Created by FontForge 20171206 at Wed Jun 13 20:58:29 2018
 By fw_worker
Copyright (c) 2017 by Prothom Alo @ 2017. All rights reserved.
</metadata>
<defs>
<font id="Kiron" horiz-adv-x="0" >
  <font-face 
    font-family="Kiron"
    font-weight="400"
    font-stretch="normal"
    units-per-em="2048"
    panose-1="2 11 5 2 4 5 4 2 2 4"
    ascent="1638"
    descent="-410"
    x-height="740"
    cap-height="1121"
    bbox="-1091 -1572 2453 3992"
    underline-thickness="102"
    underline-position="-205"
    unicode-range="U+0020-25CC"
  />
<missing-glyph horiz-adv-x="702" 
 />
    <glyph glyph-name=".notdef" horiz-adv-x="702" 
 />
    <glyph glyph-name=".null" 
 />
    <glyph glyph-name="nonmarkingreturn" horiz-adv-x="682" 
 />
    <glyph glyph-name="space" unicode=" " horiz-adv-x="696" 
 />
    <glyph glyph-name="exclam" unicode="!" horiz-adv-x="700" 
d="M545 1131q-15 -195 -36 -537q-2 -126 -2 -207l-91 27q-5 202 -24 386q-5 70 -32 367q-4 66 25 114q29 50 72 50q73 0 87 -104q3 -78 1 -96zM618 141q0 -52 -37 -89q-37 -36 -90 -36q-51 0 -89 36q-37 37 -37 89q0 51 37 89q39 39 89 39q53 0 90 -39q37 -38 37 -89z" />
    <glyph glyph-name="quotedbl" unicode="&#x22;" horiz-adv-x="677" 
d="M514 594h-56l-49 388q-3 17 -3 40t-4 27v12q0 8 -3 11q0 56 25 79t60 23q39 0 54 -16t18 -40t9 -31q-6 -121 -23 -248l-15 -122q-10 -82 -13 -123zM276 1034q0 -29 -5 -41v2q-6 -50 -21.5 -189.5t-25.5 -211.5h-52l-49 399q-7 28 -7 50q0 46 7.5 75.5t22 40t24 13
t23.5 2.5h4q42 0 61.5 -25t19.5 -85q0 -4 -1 -15t-1 -15z" />
    <glyph glyph-name="numbersign" unicode="#" horiz-adv-x="1027" 
d="M922 844v-86h-198l-40 -271h190v-86h-206l-58 -408h-93l59 408h-269l-64 -408h-92l62 408h-200v86h216l41 271h-206v86h219l59 381h92l-58 -381h268l58 381h92l-57 -381h185zM592 487l38 271h-268l-41 -271h271z" />
    <glyph glyph-name="dollar" unicode="$" horiz-adv-x="1016" 
d="M136 258h34q25 -109 70 -169q72 -101 228 -106v501q-152 87 -228 159q-91 85 -91 207q-4 91 89 184q93 87 230 91v114h70v-114q88 -5 159 -25q70 -23 130 -73v-204h-38q-17 119 -90 176q-69 63 -161 68v-433q190 -100 268 -178q76 -83 80 -214q0 -47 -20 -102
q-26 -78 -90 -129v3q-39 -33 -116 -63q-62 -21 -122 -26v-158h-70v158q-123 5 -186 26q-32 9 -121 53q-4 3 -14 8.5t-11 5.5v240zM653 30q78 55 83 175q0 82 -60 145q-41 38 -138 95v-462q73 16 115 47zM466 668v399q-78 -11 -126 -59q-49 -48 -49 -123q0 -74 70 -140
q29 -29 105 -77z" />
    <glyph glyph-name="percent" unicode="%" horiz-adv-x="1431" 
d="M1350 461q0 -153 -68 -269q-76 -138 -222 -138q-109 0 -169 73q-61 73 -61 185q0 124 84 255q94 147 216 147q220 0 220 -253zM1098 1435h65l-788 -1438h-88l703 1288q-135 -58 -247 -58q-79 0 -155 33q19 -51 19 -128q0 -136 -71 -251q-83 -134 -208 -134
q-111 0 -174 73q-65 74 -65 184q0 154 94 270q101 125 250 125q2 0 134 -62q128 -61 233 -61q151 0 298 159zM1300 467q0 181 -120 181q-94 0 -160 -173q-54 -143 -54 -258q0 -117 94 -117q97 0 173 136q67 121 67 231zM565 1185q0 57 -33 104t-87 47q-95 0 -161 -172
q-53 -139 -53 -257q0 -116 94 -116q102 0 177 148q63 126 63 246z" />
    <glyph glyph-name="ampersand" unicode="&#x26;" horiz-adv-x="1327" 
d="M326 571l66 35q-1 3 -11 24t-20 48.5t-17 59.5l-11 56q0 10 -2.5 29t-2.5 27q0 122 78 208t199 90q110 0 181 -60.5t71 -162.5q0 -55 -24.5 -105.5t-66.5 -88.5t-88 -66t-98 -50q36 -73 65.5 -124t44 -72.5t55.5 -75.5t65 -87q161 204 161 317q0 20 -4 32t-20.5 20.5
t-27.5 11.5t-47 11q-12 3 -18 4v47h397v-47q-70 -4 -106 -28.5t-62 -76.5q-33 -64 -57 -105t-36.5 -59.5t-56.5 -78.5t-76 -104q7 -13 12.5 -20t13.5 -13.5t10 -8.5v3q59 -49 87 -69.5t67 -37.5t80 -17q51 0 79 15.5t82 82.5l32 -28q-4 -22 -38.5 -71t-60.5 -69v2
q-72 -69 -178 -69q-76 0 -138 35t-162 131q-97 -89 -189 -127.5t-203 -38.5q-143 0 -227.5 75.5t-84.5 208.5q0 119 71 210t216 177zM559 32q67 30 131 82q-57 73 -127 177q-85 133 -141 247q-90 -55 -133 -103h2q-74 -83 -74 -188q0 -101 64.5 -172t161.5 -71q44 0 116 28z
M676 766q74 75 74 166q0 67 -37.5 107t-98.5 40q-63 0 -102 -41h3q-35 -52 -35 -111q0 -93 70 -247q102 64 126 86z" />
    <glyph glyph-name="quotesingle" unicode="'" horiz-adv-x="408" 
d="M261 1123q6 -11 9 -30l-2 2q7 -11 7 -19q-1 -13 -2.5 -26t-2 -19t-0.5 -9l-42 -402h-39l-46 363q0 9 -3.5 28.5t-3.5 31.5v38q0 30 16.5 48.5t50.5 18.5q45 0 58 -25z" />
    <glyph glyph-name="parenleft" unicode="(" horiz-adv-x="791" 
d="M711 -459l-19 -17q-257 168 -410 443q-152 278 -152 582q0 588 569 974l9 -16q-398 -279 -398 -935q0 -350 72 -565q92 -272 329 -466z" />
    <glyph glyph-name="parenright" unicode=")" horiz-adv-x="791" 
d="M668 483q0 -592 -573 -961l-9 21q401 290 401 933q0 358 -70 569q-90 289 -329 459l12 21q251 -125 415 -445q153 -303 153 -597z" />
    <glyph glyph-name="asterisk" unicode="*" horiz-adv-x="1187" 
d="M1033 1230q0 -93 -133 -93q-62 0 -151 -30q-14 -5 -66 -24.5t-80 -31.5q134 -71 205 -93l101 -19q62 -12 90 -46q5 -18 19 -52q-26 -66 -83 -76q-67 20 -103 74q-28 41 -78 90l-153 116l-3 -46v-51q0 -58 25 -155q28 -112 33 -155q-28 -42 -33 -45q-16 -16 -56 -16
q-66 0 -66 93q0 23 47 169q16 49 43 206q-148 -89 -213 -166q-85 -100 -139 -100q-36 0 -67 37l-10 30q19 67 39 82t97 26q17 3 98 14q37 10 181 81q-67 40 -188 81q-151 51 -193 69l-27 67q22 76 81 76q36 0 86 -45q34 -76 110 -136q4 -3 143 -108v99q0 50 -35 160t-35 161
q0 74 93 74q73 0 73 -95q0 -24 -29 -88q-35 -78 -39 -96q-14 -67 -14 -195v-9q173 74 297 222q35 20 56 20q32 0 68 -38q9 -20 9 -38z" />
    <glyph glyph-name="plus" unicode="+" horiz-adv-x="1339" 
d="M1146 603v-103h-419v-423h-104v423h-419v103h419v418h104v-418h419z" />
    <glyph glyph-name="comma" unicode="," horiz-adv-x="593" 
d="M473 -63q0 -87 -86 -194q-83 -97 -168 -138l-12 25q61 25 123 104q64 80 64 139q0 45 -42 57q-66 -9 -77 -9q-44 0 -79 30q-34 31 -34 76q0 133 131 133q83 0 135 -72q45 -66 45 -151z" />
    <glyph glyph-name="hyphen" unicode="-" horiz-adv-x="791" 
d="M680 674v-127h-564v127h564z" />
    <glyph glyph-name="period" unicode="." horiz-adv-x="593" 
d="M428 32q0 -47 -41 -86q-42 -39 -89 -39q-49 0 -86 39q-37 37 -37 86q0 51 37 88q37 40 86 40q53 0 92 -36q38 -36 38 -92z" />
    <glyph glyph-name="slash" unicode="/" horiz-adv-x="660" 
d="M580 1544h124l-593 -1862h-123z" />
    <glyph glyph-name="zero" unicode="0" horiz-adv-x="1155" 
d="M762 105q43 130 48 407q0 210 -27 341q-61 230 -201 230q-142 0 -197 -237q-31 -115 -31 -343q0 -217 31 -319q55 -217 204 -217q119 -4 173 138zM904 927q88 -167 88 -396q4 -168 -53 -331q-100 -291 -359 -291q-175 -4 -289 159q-118 172 -118 456q0 232 79 391
q106 223 335 226q105 0 182.5 -52.5t134.5 -161.5z" />
    <glyph glyph-name="one" unicode="1" horiz-adv-x="960" 
d="M566 1139h21v-1076q0 -66 34 -82q37 -18 138 -21v-35h-503v35q64 4 140 30q31 18 31 99v810q0 32 -15.5 55.5t-36.5 25.5q-39 0 -133 -41v32z" />
    <glyph glyph-name="two" unicode="2" horiz-adv-x="1106" 
d="M145 -75v26q320 336 435 489q114 154 114 303q4 124 -68 196q-70 65 -165 65q-119 0 -191 -86q-39 -46 -76 -150l-47 7q45 204 149 290q107 79 228 79q149 0 242 -96q93 -93 93 -230q0 -150 -97 -280q-156 -193 -427 -465h392q77 0 116 18q38 29 77 100l33 -14l-101 -252
h-707z" />
    <glyph glyph-name="three" unicode="3" horiz-adv-x="1033" 
d="M351 37q83 -51 134 -51q74 0 130 40t81.5 97.5t25.5 120.5q0 129 -85.5 204.5t-233.5 75.5q-39 0 -52 -7v37q153 56 227.5 120.5t74.5 166.5q0 90 -63.5 140t-142.5 50q-84 0 -168 -72v3q-20 -20 -85 -123l-33 9q34 138 130.5 219t225.5 81q66 0 121.5 -22.5t90 -58
t53.5 -79t19 -87.5q0 -72 -35 -124t-125 -120q105 -44 164 -129.5t59 -189.5q0 -81 -34 -157t-96 -136.5t-160.5 -97t-217.5 -36.5q-105 0 -151 31t-46 76q0 31 17.5 49.5t47.5 18.5q55 0 127 -49z" />
    <glyph glyph-name="four" unicode="4" horiz-adv-x="1088" 
d="M608 350v586l-417 -586h417zM104 347l565 792h88v-789h184v-127h-184v-298h-149v298h-504v124z" />
    <glyph glyph-name="five" unicode="5" horiz-adv-x="1039" 
d="M349 37q83 -54 122 -54q102 0 174.5 91t72.5 210q0 155 -127.5 257t-336.5 120h-19q-44 0 -44 21q0 2 2.5 8t2.5 11l191 420h382q23 0 40.5 10.5t42.5 35.5l16 -16l-67 -166q-8 -14 -37 -14h-354q-10 -24 -36.5 -73.5t-36.5 -72.5q1 0 2 -1t3 -1t4 1t3 1q25 -5 64 -13
t57.5 -12t39.5 -9.5t33 -10.5q150 -57 229.5 -164.5t84.5 -251.5q0 -190 -140.5 -323.5t-351.5 -133.5q-232 0 -232 118q0 30 25 50.5t59 20.5q49 0 132 -59z" />
    <glyph glyph-name="six" unicode="6" horiz-adv-x="1027" 
d="M803 37q-102 -130 -272 -130q-158 0 -284 146h2q-131 146 -131 387q0 154 63.5 291t183.5 245q222 184 501 184l5 -37q-109 -18 -191 -56q-93 -45 -142 -94q-54 -54 -118 -160q-46 -86 -73 -179q38 26 84 41q66 26 142 31q137 0 235 -100q98 -104 98 -277
q0 -159 -103 -292zM699 466q-58 147 -203 147q-130 4 -175 -78q-28 -53 -28 -155q0 -127 63 -277q61 -134 187 -134q103 0 147 87q48 91 48 204q0 112 -39 206z" />
    <glyph glyph-name="seven" unicode="7" horiz-adv-x="1033" 
d="M228 1121h674v-35l-383 -1177h-125l354 1071h-376q-69 0 -120 -30q-42 -33 -93 -118l-41 18q73 171 73 174q7 23 37 97z" />
    <glyph glyph-name="eight" unicode="8" horiz-adv-x="990" 
d="M680 18q49 52 49 138q4 88 -53 152q-51 57 -222 174q-74 -47 -105 -116q-32 -76 -32 -145q0 -113 61 -189h-3q69 -67 156 -67q98 0 149 53zM655 729h-2q53 67 53 161q0 82 -49 137q-46 55 -154 59q-78 0 -131 -50q-51 -51 -51 -123q0 -78 61 -149h-2q74 -74 163 -128
q75 52 112 93zM245 673q-65 83 -65 187q0 122 97 203q94 76 252 81q137 0 228 -79q84 -85 84 -180q0 -109 -86 -186q-42 -39 -152 -105q125 -94 207 -191q65 -80 65 -194q0 -60 -26 -117t-71 -97q-101 -88 -256 -88q-141 -5 -250 76q-102 82 -102 215q0 117 70 200
q46 55 159 128q-114 95 -154 147z" />
    <glyph glyph-name="nine" unicode="9" horiz-adv-x="1100" 
d="M822 985q103 -151 103 -344q0 -146 -41 -269t-125.5 -224.5t-227 -170t-333.5 -93.5l-9 41q5 5 18 5q219 58 349.5 193t174.5 322q-43 -43 -117.5 -70.5t-140.5 -27.5q-145 0 -236.5 103t-91.5 258q0 195 106 315.5t268 120.5q193 0 303 -159zM664 468q39 20 56.5 42.5
t20 41t2.5 62.5v17v47q0 176 -62 290.5t-176 114.5q-83 0 -134.5 -81.5t-51.5 -224.5q0 -48 6 -93t22 -91t40 -80.5t64.5 -56t91.5 -21.5q50 0 121 33z" />
    <glyph glyph-name="colon" unicode=":" horiz-adv-x="1090" 
d="M911 884q0 -49 -41 -87q-40 -37 -87 -37q-50 0 -87 37q-38 41 -38 87t38 87q39 39 87 39q54 0 91 -36t37 -90zM911 32q0 -48 -41 -86q-40 -39 -87 -39q-48 0 -87 39q-38 41 -38 86q0 47 38 88q39 40 87 40q55 0 91.5 -36t36.5 -92z" />
    <glyph glyph-name="semicolon" unicode=";" horiz-adv-x="660" 
d="M422 891q0 -46 -38 -90q-39 -41 -86 -41q-52 0 -91 39q-38 41 -38 92q0 48 40 85t89 37t86 -37q38 -38 38 -85zM473 -63q0 -87 -86 -194q-83 -97 -168 -138l-12 25q194 155 194 255q0 47 -51 47q-6 0 -38 -5q-25 -6 -37 -6q-44 0 -79 30q-34 31 -34 76q0 133 131 133
q83 0 135 -72q45 -66 45 -151z" />
    <glyph glyph-name="less" unicode="&#x3c;" horiz-adv-x="1083" 
d="M1000 167v-97l-952 436v92l952 437v-97l-831 -385z" />
    <glyph glyph-name="equal" unicode="=" horiz-adv-x="1116" 
d="M1026 789v-103h-942v103h942zM1026 419v-103h-942v103h942z" />
    <glyph glyph-name="greater" unicode="&#x3e;" horiz-adv-x="1138" 
d="M1060 598v-92l-952 -436v97l829 386l-829 385v97z" />
    <glyph glyph-name="question" unicode="?" horiz-adv-x="886" 
d="M832 863q0 -103 -81 -205q-41 -54 -160 -161q-106 -97 -106 -154q0 -14 23 -72l-21 -29q-148 63 -148 180q0 64 57 122l179 149q95 80 95 211q0 53 -40 93q-44 41 -93 41q-54 0 -95 -50q50 -38 50 -90q0 -46 -36 -84q-35 -38 -85 -38q-71 0 -108 52q-36 53 -29 123
q9 110 102 170q79 52 198 52q135 1 217 -88q84 -90 81 -222zM565 16q0 -45 -35 -80t-79 -35q-55 0 -95 36q-39 36 -39 90q0 51 34.5 84t85.5 33q52 0 90 -38t38 -90z" />
    <glyph glyph-name="at" unicode="@" horiz-adv-x="1424" 
d="M587 279q29 -30 77 -30t93 53.5t72.5 126t44 136.5t16.5 94q0 40 -22.5 66.5t-68.5 26.5q-58 0 -115 -66.5t-90 -155.5t-33 -162q0 -60 26 -89zM256 68q-200 171 -200 414q0 276 221 470v-2q216 198 522 198q158 0 290.5 -63t210.5 -177.5t78 -255.5q0 -117 -51.5 -227
t-137 -179t-178.5 -69q-150 0 -173 128q-29 -52 -83 -90t-116 -38q-99 0 -168.5 68.5t-71.5 182.5q0 90 52.5 183.5t140 156t179.5 62.5q56 0 102 -29t61 -70q4 15 12.5 41t11.5 37h155q-12 -34 -24.5 -72t-26.5 -84t-23 -73q-68 -216 -68 -256q0 -29 24.5 -51t50.5 -22
q55 0 114.5 53.5t101.5 148t42 197.5q0 81 -29.5 150.5t-78.5 118t-113.5 83t-134 51t-140.5 16.5q-159 0 -302.5 -79.5t-231 -215t-87.5 -290.5q0 -228 159.5 -370t410.5 -142q109 0 232 39t213 108l37 -60q-134 -84 -249.5 -121.5t-258.5 -37.5q-278 0 -475 168z" />
    <glyph glyph-name="A" unicode="A" horiz-adv-x="1248" 
d="M368 -75h-366v42q29 2 49 10t39 24t39.5 52.5t41.5 81.5t55 125l372 884h45l447 -1020q49 -108 68 -127v3q30 -24 93 -33v-42h-466v40q13 2 34.5 4.5t31.5 4t24 5.5t20 9.5t11 15t5 23.5q0 24 -16 65.5t-16 49.5q-57 120 -78 173h-459q-1 -2 -4 -10t-5 -12
q-61 -149 -74.5 -184.5t-13.5 -52.5v-15q0 -74 123 -74v-42zM378 396h398l-203 478z" />
    <glyph glyph-name="B" unicode="B" horiz-adv-x="1097" 
d="M372 510v-440q0 -45 24 -56h-2q56 -14 121 -14q125 0 223 75q91 76 96 178q0 102 -86 180q-89 77 -212 77h-164zM7 -75v42q62 4 140 33q33 76 33 124v798q0 57 -33 121q-67 31 -140 36v42h508q206 0 342 -69q58 -30 94.5 -97.5t36.5 -145.5q0 -120 -91 -196
q-35 -30 -131 -59q106 -29 192 -95q90 -72 90 -199q0 -95 -54 -176t-142 -117q-114 -42 -256 -42h-589zM685 620q49 24 80 73.5t31 109.5q0 68 -35.5 125.5t-93.5 86.5q-74 30 -217 30q-38 0 -65 -9q-13 -28 -13 -49v-400q29 0 83.5 2.5t82.5 2.5q90 0 147 28z" />
    <glyph glyph-name="C" unicode="C" horiz-adv-x="1199" 
d="M888 1114h2q80 -25 112 -28q29 0 44 14q26 15 30 44h46l20 -413h-52q-28 99 -95 196q-111 136 -291 136q-191 0 -303 -148q-119 -145 -119 -408q0 -239 126 -381q122 -140 312 -140q134 0 256 67q57 28 151 117l38 -42q-71 -84 -152 -135q-149 -98 -328 -98
q-289 0 -464 187q-158 171 -158 430q0 262 168 440q175 192 456 192q81 0 201 -30z" />
    <glyph glyph-name="D" unicode="D" horiz-adv-x="1273" 
d="M375 16q19 -14 89 -14q210 0 342 82q207 129 207 433q0 268 -170 410q-157 118 -386 118q-50 4 -82 -11q-19 -30 -19 -54v-910q0 -42 19 -54zM7 -75v42q98 10 131 35q28 22 28 122v798q0 97 -26 123q-20 23 -133 34v42h489q241 0 415 -80q307 -145 307 -522
q0 -125 -55 -256q-62 -130 -166 -207q-66 -51 -145 -80q-136 -51 -340 -51h-505z" />
    <glyph glyph-name="E" unicode="E" horiz-adv-x="1092" 
d="M7 -75v42q38 4 57.5 6.5t40.5 9.5t29.5 16t16.5 26.5t10 40.5t2 58v798q0 53 -4 79t-23 43.5t-45.5 23.5t-83.5 11v42h967v-266h-54q-8 51 -18 81.5t-26.5 53.5t-46.5 33.5t-70.5 15t-105.5 4.5h-243q-36 0 -47 -9h2q-9 -13 -9 -47v-395h270q41 0 65.5 1t45.5 10t30.5 16
t20.5 32t16 45.5t16 67.5h51v-424h-51q-8 36 -12 51.5t-11.5 39t-12.5 31.5t-16 20.5t-22 15.5t-29.5 8t-39 5.5t-51.5 0.5h-270v-437q0 -42 11 -52q17 -17 112 -19h108q43 0 69 0.5t60.5 2.5t55 6.5t47.5 12.5t45 20t39 29.5t37 40.5t33 53t33 68h63l-86 -312h-976z" />
    <glyph glyph-name="F" unicode="F" horiz-adv-x="1004" 
d="M7 -75v42q32 4 51.5 6.5t38.5 8.5t28 8.5t18 14.5t12 18.5t5.5 27.5t2.5 34v46v13v778q0 53 -4 79t-23 43.5t-45.5 23.5t-83.5 11v42h969v-266h-58q-9 53 -21.5 86t-29.5 54.5t-49 31.5t-67.5 13t-97.5 3h-245q-29 0 -40.5 -11t-11.5 -45v-395h254q42 0 66 1t45 10
t30.5 16t20.5 32.5t15.5 45t15.5 67.5h51v-424h-51q-10 45 -17 70.5t-18.5 47t-21.5 30.5t-32 15.5t-43 7.5t-61 1h-254v-388q0 -38 0.5 -56t6.5 -38.5t14.5 -28t28.5 -16t45 -12t68 -6.5v-42h-512z" />
    <glyph glyph-name="G" unicode="G" horiz-adv-x="1289" 
d="M890 1114h3q65 -22 111 -28q42 0 53 11q9 9 26 47h50l13 -390h-52q-59 145 -109 198q-105 111 -274 111q-172 0 -301 -129q-127 -122 -131 -429q0 -249 131 -384q130 -138 319 -138q42 0 58 3q5 0 10 1t6 1q33 6 68 16q2 2 7.5 3t7.5 2q76 30 90 44q2 2 2 10v307
q0 105 -27 128v-2q-23 19 -129 30v43h466v-43q-63 -4 -91 -21q-34 -24 -34 -111v-353q0 -34 -159 -88q-151 -53 -298 -53q-254 0 -445 153q-201 176 -201 459q0 253 157 431q183 201 468 201q90 0 205 -30z" />
    <glyph glyph-name="H" unicode="H" horiz-adv-x="1243" 
d="M7 -75v42q107 11 133 35q26 34 26 142v778q0 95 -28 123q-26 30 -131 34v42h510v-42q-104 -4 -132 -34q-29 -23 -29 -123v-344h537v344q0 96 -29 123q-26 29 -130 34v42h508v-42q-112 -12 -131 -34q-28 -26 -28 -123v-798q0 -100 28 -124v2q30 -25 131 -35v-42h-508v42
q107 10 130 35q29 32 29 142v345h-537v-365q0 -101 29 -124q22 -23 132 -33v-42h-510z" />
    <glyph glyph-name="I" unicode="I" horiz-adv-x="547" 
d="M5 -75v42q110 4 144 33q31 24 31 124v798q0 92 -31 123q-27 29 -144 34v42h540v-42q-107 -4 -144 -36q-29 -21 -29 -121v-798q0 -101 29 -124q28 -23 144 -33v-42h-540z" />
    <glyph glyph-name="J" unicode="J" horiz-adv-x="668" 
d="M44 105v2q23 21 60 21q68 0 97 -80q23 -69 55 -69t42 28q14 30 14 105v810q0 101 -28 126q-22 20 -137 31v42h524v-42q-108 -4 -138 -36q-30 -30 -30 -121v-659q0 -179 -88 -268q-92 -91 -217 -91q-89 0 -133 38q-49 40 -49 90q0 45 28 73z" />
    <glyph glyph-name="K" unicode="K" horiz-adv-x="1250" 
d="M7 -75v42q31 2 53 4.5t40 9t29 10t19 16t12 19.5t6 27.5t2 32.5v42v16v778q0 37 -1.5 58t-8 39.5t-15 27t-29.5 15.5t-43.5 10t-63.5 7v42h519v-42q-56 -2 -84.5 -7t-48.5 -22.5t-26 -46t-6 -81.5v-358q449 377 449 460q0 32 -30 43.5t-90 11.5v42h477v-38
q-73 -4 -138 -35q-32 -15 -95 -69.5t-116.5 -107t-141 -140t-122.5 -121.5l415 -449q9 -10 31 -35t28.5 -32.5t24.5 -26.5t25 -25t23 -19.5t25.5 -18t25.5 -13.5t30 -12t32.5 -7.5t38.5 -6.5v-40h-556v42q81 4 103 11t22 33q0 13 -21 48.5t-46 64.5l-338 369
q-8 -6 -27.5 -22t-28.5 -24v-323q0 -101 31 -128q22 -19 95 -26q5 0 17 -1t18 -2v-42h-515z" />
    <glyph glyph-name="L" unicode="L" horiz-adv-x="1083" 
d="M7 -75v42q99 11 129 35q27 21 27 122v798q0 96 -25 121q-21 25 -131 36v42h517v-42q-100 -5 -137 -34q-31 -24 -31 -111v-859q0 -21 9 -48q13 -13 41 -18q1 0 9.5 -1t13.5 -1q7 -3 18 -3q208 0 284 10q67 9 121 30q84 41 161 200h56l-88 -319h-974z" />
    <glyph glyph-name="M" unicode="M" horiz-adv-x="1545" 
d="M7 -75v42q112 11 142 47q31 37 31 179v729q0 98 -28 123q-19 23 -140 34v42h363l410 -895l392 895h367v-42q-108 -11 -132 -36q-26 -26 -26 -121v-798q0 -98 26 -124v2q28 -25 132 -35v-42h-512v42q116 11 138 35h-3q28 35 28 142v783l-452 -1002h-32l-443 960v-692
q0 -145 42 -189q24 -24 126 -37v-42h-429z" />
    <glyph glyph-name="N" unicode="N" horiz-adv-x="1259" 
d="M7 -75v42q61 5 92 13.5t51 34.5t25 64.5t5 113.5v790q-3 5 -12 14t-12 13h3q-39 43 -65 56t-87 13v42h314l683 -854v586q0 56 -3 89t-12.5 62t-28.5 43t-49 22t-77 10v42h428v-42q-60 -8 -89.5 -16.5t-50 -34t-25.5 -63.5t-5 -112v-949h-37l-787 972v-683q0 -48 1 -74.5
t7 -54t16 -40.5t30 -26t46.5 -19.5t67.5 -11.5v-42h-429z" />
    <glyph glyph-name="O" unicode="O" horiz-adv-x="1306" 
d="M387 107q105 -133 268 -133q156 0 270 129h-2q111 135 111 418q0 301 -111 425q-114 125 -268 128q-153 0 -268 -135q-112 -127 -112 -418q0 -278 112 -414zM247 985q164 158 408 163q242 0 409 -163q182 -170 182 -464t-186 -465q-170 -156 -405 -156q-257 0 -420 173
q-172 172 -172 448q0 289 184 464z" />
    <glyph glyph-name="P" unicode="P" horiz-adv-x="997" 
d="M617 1013q-75 32 -190 32q-28 0 -64 -11q-12 -29 -12 -44v-464q45 -5 59 -5h28q101 0 194 35q57 30 91 93t34 142q0 74 -38 133.5t-102 88.5zM9 -75v42q63 0 108.5 52t45.5 125v778q0 65 -45.5 111t-108.5 46v42h478q233 0 351 -87q124 -91 124 -238q0 -88 -36 -159
t-102 -113q-109 -68 -337 -79h-136v-321q0 -67 50 -112t121 -45v-42h-513z" />
    <glyph glyph-name="Q" unicode="Q" horiz-adv-x="1308" 
d="M249 985q175 163 408 163q121 0 229 -45.5t188.5 -126t127.5 -199t47 -256.5q0 -242 -124 -400.5t-345 -202.5q90 -127 190.5 -183.5t301.5 -88.5v-39h-77q-97 0 -174.5 8t-141 27.5t-110 40t-96 57.5t-81.5 66.5t-84 81.5l-35 35v-2q-3 1 -11 4t-12 5q-195 93 -290 238
t-95 353q0 289 184 464zM389 107q105 -133 268 -133q156 0 270 129h-2q111 135 111 418q0 144 -30 253t-83.5 173t-120 95.5t-145.5 31.5q-77 0 -143.5 -32.5t-120.5 -97t-85 -173.5t-31 -250q0 -278 112 -414z" />
    <glyph glyph-name="R" unicode="R" horiz-adv-x="1164" 
d="M621 590q141 51 141 213q0 240 -305 240q-71 0 -88.5 -9t-17.5 -47v-438q188 10 270 41zM7 -75v42q104 10 131 37h-2q25 32 25 140v778q0 97 -27.5 125t-126.5 32v42h501q221 0 340 -81t119 -237q0 -129 -87 -206.5t-232 -98.5l365 -447q36 -43 70 -63.5t84 -20.5v-42
h-296l-426 552q-14 0 -46.5 -2t-47.5 -2v-349q0 -28 0.5 -42t2.5 -32.5t6 -26.5t12.5 -18.5t19.5 -15t29.5 -9.5t40 -7.5t53.5 -5.5v-42h-508z" />
    <glyph glyph-name="S" unicode="S" horiz-adv-x="928" 
d="M53 295h51q62 -164 150.5 -240t216.5 -76q89 0 148 52t59 148q0 58 -17 93t-62.5 72.5t-153.5 104.5q-171 105 -224 149q-97 80 -114 175q-5 26 -5 54q0 83 39 155.5t117 119t178 46.5q34 0 128.5 -28t118.5 -32q30 0 42 12h-3q18 21 21 48h46l38 -394h-51
q-21 86 -58.5 149t-83.5 97t-91.5 49.5t-92.5 15.5q-71 0 -125.5 -43.5t-54.5 -115.5t36.5 -115.5t133.5 -103.5q225 -143 281 -185q99 -75 128 -149q19 -49 19 -118q0 -139 -109.5 -236t-273.5 -97q-21 0 -40.5 1.5t-43.5 7t-35.5 8t-44 11.5t-42.5 12l-20 7q-41 16 -52 16
q-26 0 -36.5 -14.5t-14.5 -46.5h-49z" />
    <glyph glyph-name="T" unicode="T" horiz-adv-x="1097" 
d="M30 805l9 316h1023l9 -316h-51q-31 148 -79 187q-52 46 -203 46h-92v-914q0 -100 30 -124q25 -23 144 -33v-42h-534v42q125 11 145 35q26 29 26 142v894h-96q-142 0 -200 -44q-50 -39 -80 -189h-51z" />
    <glyph glyph-name="U" unicode="U" horiz-adv-x="1243" 
d="M0 1121h517v-42q-92 -4 -129 -33.5t-37 -123.5v-572q0 -185 74 -272.5t235 -87.5q176 0 254 91.5t78 305.5v466q0 51 -2.5 85t-11.5 59t-19.5 39t-32.5 23t-43.5 12.5t-60.5 7.5v42h424v-42q-108 -10 -138 -51t-30 -175v-466q0 -256 -113.5 -371.5t-347.5 -115.5
q-228 0 -342 111.5t-114 352.5v558q0 53 -5.5 81.5t-25 46t-47.5 22.5t-83 7v42z" />
    <glyph glyph-name="V" unicode="V" horiz-adv-x="1229" 
d="M2 1121h487v-42q-86 0 -109.5 -12.5t-25.5 -49.5q-3 -24 59 -160q9 -20 14 -30l277 -613l249 664q35 93 35 123q0 44 -31.5 61t-102.5 17v42h378v-40q-64 -12 -86 -31v2q-39 -32 -79 -137l-396 -1011h-37l-443 990q-70 137 -87 154v-3q-34 32 -102 36v40z" />
    <glyph glyph-name="W" unicode="W" horiz-adv-x="1670" 
d="M2 1121h450v-42q-65 0 -91 -14t-26 -45q-4 -18 19 -74l256 -665l186 492l-85 214q-23 53 -56.5 72.5t-100.5 19.5v42h489v-42q-81 0 -104.5 -13t-27.5 -53q-3 -2 -1 -10.5t2.5 -10t5 -14t7.5 -21.5q27 -79 62.5 -174t62 -162t71 -179t65.5 -165l219 599q32 72 32 125
q0 78 -126 78v42h364v-42q-102 0 -142 -108q-34 -89 -96.5 -270.5t-92.5 -262.5l-77 -205l-107 -329h-35l-72 210l-210 538l-273 -748h-37l-127 375q-51 138 -127 346q-106 293 -140 358q-35 69 -77 85q-21 9 -60 11v42z" />
    <glyph glyph-name="X" unicode="X" horiz-adv-x="1262" 
d="M7 -75v42q80 11 111 37q21 15 87 94t177.5 217t160.5 197q-40 56 -142 203t-156 220.5t-77 95.5v-2q-50 45 -140 50v42h552v-42q-84 0 -112 -11.5t-28 -45.5q-4 -30 42 -95l185 -266q23 28 64.5 77t72.5 86.5t63 79t49.5 72t17.5 46.5q0 33 -28 45t-96 12v42h434v-42
q-73 0 -111 -24q-33 -18 -80 -63.5t-118.5 -131.5t-103 -125.5t-113.5 -144.5l342 -492q49 -73 80 -94.5t120 -36.5v-42h-542v44q61 2 90 8.5t37.5 16t8.5 29.5q0 29 -20.5 64t-152.5 228q-53 78 -85 125q-27 -35 -117.5 -144.5t-136.5 -174t-46 -91.5q0 -34 43.5 -48.5
t94.5 -14.5v-42h-427z" />
    <glyph glyph-name="Y" unicode="Y" horiz-adv-x="1229" 
d="M2 1121h510v-42h-39q-86 0 -86 -55l1 -4q0 -5 1.5 -11.5t4 -14.5t8 -19t13.5 -23l263 -390l252 397q25 41 25 65q0 29 -29.5 42t-96.5 13v42h403v-42q-65 0 -117.5 -44.5t-129.5 -158.5l-265 -406v-346q0 -99 30 -129v2q25 -19 154 -30v-42h-557v42q29 2 49 3.5t39 6
t30.5 6t22.5 10t16.5 12t10.5 17.5t6.5 20.5t3 28t1.5 32.5v41v312q-54 79 -142 209q-174 258 -226 320q-64 75 -121 89q-16 4 -35 5v42z" />
    <glyph glyph-name="Z" unicode="Z" horiz-adv-x="1129" 
d="M30 -75v28l783 1090h-403q-157 0 -219 -74q-38 -48 -62 -164h-55l35 316h955v-26l-773 -1093h452q156 0 226 75q38 38 79 172h51l-44 -324h-1025z" />
    <glyph glyph-name="bracketleft" unicode="[" horiz-adv-x="375" 
d="M293 1553v-80h-149v-1523h120v-93h-219l-4 1696h252z" />
    <glyph glyph-name="backslash" unicode="\" horiz-adv-x="680" 
d="M81 1081h124l466 -1155h-123z" />
    <glyph glyph-name="bracketright" unicode="]" horiz-adv-x="416" 
d="M365 1503l2 -1681h-221v93h116v1509h-150v79h253z" />
    <glyph glyph-name="asciicircum" unicode="^" horiz-adv-x="999" 
d="M473 1148h56l342 -768h-133l-235 559l-240 -559h-130z" />
    <glyph glyph-name="underscore" unicode="_" horiz-adv-x="1156" 
d="M1049 -9v-145h-949v145h949z" />
    <glyph glyph-name="grave" unicode="`" horiz-adv-x="1124" 
d="M562 890q36 0 61.5 -25.5t25.5 -61.5t-25.5 -61.5t-62.5 -25.5q-36 0 -61.5 25.5t-25.5 61.5t25.5 61.5t62.5 25.5zM1101 537v-82h-1078v82h1078zM562 270q37 0 62.5 -26t25.5 -62t-26 -62t-62 -26t-62 26t-26 62t25.5 62t62.5 26z" />
    <glyph glyph-name="a" unicode="a" horiz-adv-x="786" 
d="M494 137v271q-134 -44 -209 -107t-75 -136q0 -62 34 -100t89 -38t108 31.5t53 78.5zM175 322q69 47 319 141v70q0 97 -28.5 137t-109.5 40q-45 0 -83 -23.5t-38 -57.5q0 -20 5 -40.5t5 -26.5q0 -43 -22 -64t-57 -21q-43 0 -66 25.5t-23 61.5q0 66 79 135v-3q74 68 224 68
q139 0 203.5 -66.5t64.5 -224.5v-349q0 -57 11 -79t40 -22t81 40v-56q-71 -91 -166 -91q-52 0 -83 30.5t-35 90.5q-91 -70 -146 -98t-115 -28q-74 0 -132.5 56.5t-58.5 137.5q0 133 131 217z" />
    <glyph glyph-name="b" unicode="b" horiz-adv-x="911" 
d="M67 1043l-46 -5v41q86 12 184 51q62 22 74 25v-11l19 -515q48 63 113.5 96.5t138.5 33.5q127 0 220.5 -111t93.5 -284q0 -190 -124.5 -322.5t-308.5 -132.5q-101 0 -196 39t-95 79v928v28t-3.5 22.5t-11 21t-22 11t-36.5 5.5zM361 -3q65 -18 103 -18q62 0 109 25.5t74 70
t40.5 97.5t13.5 114t-12 119.5t-37.5 112t-71.5 86t-107 32.5q-57 0 -117 -38.5t-60 -92.5v-446q6 -44 65 -62z" />
    <glyph glyph-name="c" unicode="c" horiz-adv-x="781" 
d="M650 703q84 -61 84 -127q0 -43 -28 -64t-60 -21q-31 0 -59 25.5t-35 63.5l-9 42q-16 41 -42 60t-70 19q-96 0 -163 -89t-67 -225t75.5 -237.5t198.5 -101.5q76 0 126.5 34t125.5 137l32 -19q-60 -139 -154 -215t-202 -76q-140 0 -246 112.5t-106 293.5q0 116 52.5 218
t147.5 164t208 62q100 0 191 -56z" />
    <glyph glyph-name="d" unicode="d" horiz-adv-x="907" 
d="M766 1155q0 -41 1 -99.5t2.5 -100.5t1.5 -44l-2 -774q0 -28 1.5 -41.5t9 -29t25.5 -21.5t47 -6h31q7 0 14 7v-42l-56 -18q-9 -4 -34.5 -12t-40.5 -14l-145 -53l-4 14v93q-56 -56 -107 -80.5t-121 -24.5q-101 0 -179 54.5t-118.5 142t-40.5 189.5q0 126 50.5 233
t139.5 170t195 63q57 0 95 -15.5t86 -58.5v270q0 51 -11 69.5t-56 18.5h-14q-2 0 -19 -2t-23 -2v40l76 19q32 4 95 27.5t101 27.5zM577 51q40 40 40 73v376q0 52 -18.5 93.5t-46 64t-56 34t-53.5 11.5q-106 0 -168.5 -97t-62.5 -236q0 -65 15.5 -126.5t45 -114t80.5 -84
t115 -31.5q72 0 109 37z" />
    <glyph glyph-name="e" unicode="e" horiz-adv-x="805" 
d="M650 668q95 -82 95 -249h-556q10 -198 90 -288q77 -92 194 -92q92 0 153 50q61 42 117 137l40 -14q-45 -121 -140 -210q-111 -98 -242 -98q-163 0 -261 126q-89 128 -89 289q0 177 105 308q101 125 275 130q121 0 219 -89zM233 597q-25 -37 -39 -113h358q-4 71 -33 124
q-39 74 -139 74q-98 0 -147 -85z" />
    <glyph glyph-name="f" unicode="f" horiz-adv-x="677" 
d="M7 -75v35q43 2 69.5 7t44 14t25.5 29t10.5 43t2.5 64v556h-150v70h150q0 205 79.5 310t225.5 105q82 0 143.5 -32.5t61.5 -84.5q0 -28 -25 -53.5t-53 -25.5t-46 18v-2q-13 10 -44.5 52t-41.5 58v-2q-20 11 -44 11q-49 0 -75 -38.5t-26 -112.5v-203h222v-70h-219v-556
q0 -98 25 -127h-2q26 -26 142 -30v-35h-475z" />
    <glyph glyph-name="g" unicode="g" horiz-adv-x="823" 
d="M123 317q-44 74 -44 151q0 50 20.5 100.5t59 93.5t100.5 70t137 27q48 0 150 -28t121 -30q48 2 66 2h77v-81h-148q3 -11 12.5 -38t12.5 -39t6.5 -34t3.5 -45q0 -46 -21 -93t-58.5 -87t-98 -65.5t-132.5 -25.5q-43 0 -80 7q-28 -4 -65 -42t-37 -64q0 -23 50 -35.5
t96 -12.5q184 0 277 -18.5t128.5 -61t35.5 -126.5q0 -89 -75 -161.5t-181.5 -108.5t-214.5 -36q-141 0 -227.5 55.5t-86.5 128.5q0 27 21.5 59.5t38.5 48.5t51 46l62 56q-51 21 -71.5 43t-20.5 54q0 36 30.5 74.5t123.5 119.5q-72 28 -119 96zM224 -329q82 -27 186 -27
q137 0 230.5 48t93.5 122q0 47 -50.5 66.5t-189.5 19.5h-33q-8 0 -20 1t-17 1h-37q-20 0 -70 10.5t-82 10.5q-35 -29 -62.5 -75.5t-27.5 -78.5q0 -38 18.5 -61t60.5 -37zM496 270v2q51 41 51 143q0 36 -10 81.5t-29.5 93t-56.5 79.5t-83 32q-62 0 -96 -48.5t-34 -135.5
q0 -101 51 -185.5t131 -84.5q54 0 76 23z" />
    <glyph glyph-name="h" unicode="h" horiz-adv-x="907" 
d="M28 -75v35q69 4 95 30h-2q24 27 24 122v840q0 23 -1.5 35.5t-8 27.5t-21.5 21.5t-40 6.5h-9q-5 0 -35 -9v47q1 0 7 1.5t31.5 8.5t57.5 16q36 13 172 51v-534q113 135 261 135q226 0 226 -291v-356q0 -87 18.5 -117.5t91.5 -34.5v-35h-390v35q23 3 40 6t30 8.5t21.5 9.5
t14.5 14.5t9 17t4.5 24t1.5 28.5v36v8v354q0 186 -132 186q-50 0 -116.5 -42.5t-74.5 -65.5v-432q0 -82 9 -103q15 -34 76 -44q15 -3 34 -5v-35h-394z" />
    <glyph glyph-name="i" unicode="i" horiz-adv-x="447" 
d="M9 -75v35q32 3 46.5 4.5t34.5 6t26.5 7t16 12t11.5 17t5 26t3 33.5v46v416q0 67 -12 90t-47 23h-12q-3 0 -62 -19v39l41 12h-2q54 17 112 38t88 32t40 11q7 0 9 -2.5t2.5 -6t2.5 -5.5v-628q0 -96 23 -124h-2q17 -17 112 -28v-35h-436zM147 1127q34 31 70 31
q34 0 65.5 -28t31.5 -70q0 -35 -30 -65.5t-67 -30.5q-36 0 -66 28.5t-30 67.5q0 36 26 67z" />
    <glyph glyph-name="j" unicode="j" horiz-adv-x="408" 
d="M88 -345q47 -53 75 -53q42 0 62 38t20 129q0 9 -1.5 19t-1.5 13l3 725q0 60 -11 86t-47 26l-37 -8q-36 -8 -41 -8v37q192 57 292 93v-822q0 -216 -79 -306t-245 -90q-68 0 -112 31.5t-44 78.5q0 25 24.5 46t49.5 21q50 0 93 -56zM249 1127q31 31 68 31q34 0 65 -31v3
q31 -26 31 -70q0 -35 -31 -66h3q-27 -30 -68 -30q-38 0 -68 30v-2q-30 23 -30 68q0 38 30 67z" />
    <glyph glyph-name="k" unicode="k" horiz-adv-x="909" 
d="M7 -75v35q90 5 114 26v-3q26 26 26 94v878q0 52 -20.5 71t-59.5 19h-16q-3 0 -9 -2h-16q-4 0 -19 -7v40l81 21q19 5 49 12.5t44.5 11t32 9t28.5 11.5l44 14q5 0 17 -11v-736l235 209l18 19q24 24 24 42q0 16 -14 20t-77 8v34h375v-34q-42 -2 -75 -10t-57 -17.5t-59.5 -36
t-60 -47.5t-81.5 -71t-104 -89q210 -277 262 -337q84 -97 151 -123q31 -12 71 -17v-33h-401v35h35q16 0 25 7h3q1 0 2 1q5 1 6 5q0 3 1 6l1 2q1 2 0.5 4.5t-2.5 7t-8.5 12.5t-16.5 18l-253 336v-311q0 -48 26.5 -66t108.5 -22v-35h-431z" />
    <glyph glyph-name="l" unicode="l" horiz-adv-x="447" 
d="M12 -75v35q92 11 111 30v-2q29 27 29 96v857q0 49 -12 76q-18 35 -73 35q-3 0 -10 -1t-11 -1q-3 0 -11 -5q-4 -2 -14 -4t-14 -3v41q104 26 286 86q3 0 5.5 -0.5t3.5 -1.5l2 -2t1.5 -3t1.5 -3h-2q5 -4 5 -9v-1064q0 -71 23 -96q27 -16 112 -26v-35h-433z" />
    <glyph glyph-name="m" unicode="m" horiz-adv-x="1387" 
d="M14 -75v33q76 2 101 25t25 94v451q0 58 -11 77.5t-57 25.5q-4 0 -9.5 0.5t-8.5 0.5t-7.5 -0.5t-8 -2t-8.5 -4.5t-11 -8v44l67 21l110 42q2 1 12.5 6t13.5 6.5t11.5 5t13 4.5t11.5 3t14 2.5t14 0.5q3 -18 5 -21v-109q92 77 149 104.5t126 27.5q70 0 115.5 -34t77.5 -114
q83 83 144 115.5t136 32.5q119 0 169 -72.5t50 -250.5v-363q0 -59 27 -83.5t101 -26.5v-33h-405v35q79 4 102 27t23 95v377q0 101 -32 147t-110 46q-49 0 -110 -39v2q-11 -11 -37.5 -32t-38.5 -34v-449q0 -76 24.5 -108t106.5 -34v-33h-413v33q33 4 49.5 7t34 11t24 18
t12.5 31t7 46.5t1 68.5v244q0 146 -28.5 207t-106.5 61q-94 0 -191 -103v-476q0 -36 2 -50.5t13 -33t37.5 -25t73.5 -6.5v-33h-410z" />
    <glyph glyph-name="n" unicode="n" horiz-adv-x="886" 
d="M26 -75v35q70 10 88 28q24 24 24 101v444q0 56 -9 77q-18 16 -27 21q-7 3 -23 7h-58v40q3 0 9 2q20 5 164 51l83 28l14 -5l2 -16v-118q92 77 120 97q64 42 141 42q61 0 113 -35q97 -71 97 -240v-409q0 -63 23 -89h-2q24 -26 88 -26v-35h-384v35q74 11 93 30h-2
q25 30 25 117v373q0 71 -28 123q-27 47 -97 47q-46 0 -105 -35q-61 -48 -75 -64v-488q0 -52 26 -80q26 -23 91 -23v-35h-391z" />
    <glyph glyph-name="o" unicode="o" horiz-adv-x="902" 
d="M163 634q111 123 287 123q173 0 290 -119t117 -302q0 -114 -49 -213.5t-142 -162t-209 -62.5q-167 0 -286.5 126.5t-119.5 311.5q0 179 112 298zM307 650v2q-83 -77 -83 -275q0 -96 28 -189t89.5 -161.5t143.5 -68.5q97 0 148.5 91.5t51.5 229.5q0 96 -27.5 188.5
t-88.5 159.5t-142 67q-68 0 -120 -44z" />
    <glyph glyph-name="p" unicode="p" horiz-adv-x="900" 
d="M5 -464v38q81 4 104.5 30.5t23.5 92.5v841q0 36 -2.5 54.5t-13 28.5t-21 12.5t-36.5 4.5q-27 0 -46 -9v42l83 28q14 5 76 23.5t106 34.5l12 -12v-114q71 71 130 100.5t129 29.5q124 0 212 -106t88 -282q0 -114 -47.5 -220t-134.5 -175t-190 -69q-123 0 -185 70v-273
q0 -31 1 -47t7 -32t13.5 -22.5t27.5 -13t42 -9t63 -6.5v-40h-442zM358 7q43 -28 106 -28q95 0 159 97.5t64 252.5q0 145 -65 230.5t-161 85.5q-56 0 -112 -38.5t-56 -75.5v-438q23 -62 65 -86z" />
    <glyph glyph-name="q" unicode="q" horiz-adv-x="870" 
d="M568 743q18 -6 92 -42q61 37 95 56q4 4 7.5 4.5t6 -2.5t4.5 -6.5t4 -8t3 -6.5v-1064q0 -51 24.5 -76t90.5 -29v-33h-434v38q83 0 118 25.5t35 106.5v326q-67 -71 -126.5 -98t-138.5 -27q-54 0 -106 26.5t-95 75.5t-69 127.5t-26 173.5q0 197 119.5 323t302.5 126
q49 0 93 -16zM498 34l3 3q45 14 70.5 26.5t35.5 31t11 28t1 38.5v367q0 175 -165 175q-80 0 -136 -50t-80 -123t-24 -160q0 -94 23.5 -169.5t77 -124.5t128.5 -49q7 0 25.5 3.5t29.5 3.5z" />
    <glyph glyph-name="r" unicode="r" horiz-adv-x="628" 
d="M12 -75v37q80 4 107.5 26.5t27.5 90.5v394q0 80 -15.5 117.5t-64.5 40.5q-10 0 -30 -5.5t-21 -5.5v41q50 14 87.5 27t56.5 20t58.5 24t65.5 27l9 -2q7 -7 7 -12v-139q104 153 212 153q45 0 75 -30v2q30 -25 30 -76q0 -32 -21 -56t-58 -28q-32 0 -70 32q-35 27 -51 31
q-28 0 -71 -48t-43 -100v-395q0 -73 29.5 -101t121.5 -28v-37h-442z" />
    <glyph glyph-name="s" unicode="s" horiz-adv-x="649" 
d="M65 -82v294h37q26 -116 57 -156q58 -96 174 -96q56 0 101 35v-2q34 34 34 91q0 37 -21 70q-14 29 -75 62l-97 56q-111 70 -159 122q-53 56 -53 139q0 96 73 163q66 65 178 65q54 0 103 -16q19 -8 37 -13l24 -6q8 0 20 5q5 2 10 14h30l7 -254h-37q-16 84 -47 136
q-51 83 -151 83q-62 0 -79 -21q-44 -45 -49 -97q0 -75 118 -140l117 -63q188 -107 188 -240q0 -107 -81 -175v2q-73 -67 -203 -67q-57 0 -120 16q-39 14 -78 19q-11 0 -14 -5q-7 -5 -12 -21h-32z" />
    <glyph glyph-name="t" unicode="t" horiz-adv-x="526" 
d="M293 743h180v-75h-180v-498q0 -85 21 -120.5t68 -35.5q18 0 28.5 2t31 17t45.5 46l30 -28l-19 -28q-37 -55 -90.5 -84.5t-109.5 -29.5q-86 0 -125.5 58t-39.5 177v524h-94q-20 0 -20 17q0 -3 44.5 44.5t106.5 119.5t100 122q23 0 23 -19v-209z" />
    <glyph glyph-name="u" unicode="u" horiz-adv-x="883" 
d="M16 745h270v-566q0 -156 131 -156q92 0 179 98v478q0 43 -7.5 61.5t-34.5 29.5t-90 18v37h293v-621q0 -56 8 -70q24 -26 103 -27v-34l-46 -12q-16 -4 -214 -70l-3 148q-121 -150 -261 -150q-87 0 -151 57.5t-64 180.5v456q0 62 -20.5 82.5t-92.5 24.5v35z" />
    <glyph glyph-name="v" unicode="v" horiz-adv-x="839" 
d="M5 747h363v-37q-6 -1 -21 -2t-21 -2t-16 -4t-14.5 -7t-8 -12t-3.5 -19v-14q0 -8 4 -17l12 -30l178 -442q25 67 78 198.5t76 191.5q4 12 13.5 39t14 42.5t4.5 24.5q0 53 -87 53v37h259v-37q-45 0 -62.5 -24t-53.5 -115l-261 -646q0 -16 -19 -16h-2q-8 0 -18.5 11.5
t-13.5 26.5v-1l-268 641q-34 80 -66 107v-2q-25 14 -67 18v37z" />
    <glyph glyph-name="w" unicode="w" horiz-adv-x="1229" 
d="M813 747v-37q-55 -3 -78 -14.5t-27 -40.5q0 -21 7 -38v-2q0 -2 8 -21t8 -23l155 -401q16 39 56.5 132.5t68 163t49.5 135.5v-2q11 44 11 58q0 8 -1.5 14.5t-3 10.5t-6.5 8t-8 6t-11.5 5t-13 4t-17 4t-18.5 4v34h233v-34q-22 -8 -39 -19l-14 -28q-23 -46 -23 -51
l-278 -685l-14 -19l-7 -2l-19 14l-190 475l-226 -477v2l-4 -7q-1 -2 -1 -5l-14 -2q-10 6 -18 14l-260 641q-50 116 -55 125h2q-14 17 -58 21v37h333v-37q-40 0 -62 -11t-22 -42q0 -30 15.5 -77.5t75.5 -183.5l93 -238l154 326q0 2 1 4t1 3v8q0 24 -40 102q-24 64 -43 83.5
t-75 25.5v37h375z" />
    <glyph glyph-name="x" unicode="x" horiz-adv-x="846" 
d="M21 740h380v-34q-34 0 -57 -10q-23 -5 -23 -28q15 -38 47 -92q17 -30 24 -38q4 -7 10.5 -19.5t12 -22t9.5 -14.5q8 8 30 42q24 32 44 63q42 66 42 81q0 21 -16 28q-3 0 -4 1q0 1 -1 1t-2 1q-7 2 -46 7v34h291v-34q-38 -3 -86 -24q-35 -21 -59 -53l-146 -214l228 -347
q42 -64 72 -87q28 -21 74 -21v-35h-372v35h32q12 0 31 14q3 2 11 21q-1 4 -5 12l-11.5 23t-13.5 29h2q-1 2 -4.5 7.5t-4.5 6.5l-16 23q-6 10 -7 11q-3 5 -10 17.5t-11 17.5l-16 26q-4 6 -16 23l-12 17v-1q-4 5 -14.5 21.5t-15.5 22.5q-3 3 -14 21q-20 -32 -67 -102.5
t-71 -108.5q-3 -6 -11.5 -20t-9.5 -16l-9 -18q0 -1 -1.5 -3t-1.5 -4q-2 -7 -3 -8t-1 -4q0 -13 11 -16q14 -9 63 -12v-35h-270v35q63 12 77 26q16 12 54 65l202 294l-167 254q-34 54 -66 86q-33 17 -86 21v34z" />
    <glyph glyph-name="y" unicode="y" horiz-adv-x="842" 
d="M5 706v34h377v-37q-35 0 -65 -7q-40 -13 -40 -39v-10q0 -3 2 -9v-4q12 -27 19 -40l200 -440l162 445q11 33 11 60q0 44 -82 44v37h249v-37q-63 -5 -83 -79l-277 -729q-40 -102 -71 -164.5t-68.5 -110t-80 -67t-99.5 -19.5q-51 0 -90 27.5t-39 77.5q0 38 27 62t69 24
q17 0 69.5 -16.5t63.5 -16.5q40 0 94.5 109.5t59.5 151.5q0 1 -2.5 6t-5 13.5t-2.5 17.5l-280 607q-9 15 -22 40t-19.5 33t-25.5 18.5t-51 17.5z" />
    <glyph glyph-name="z" unicode="z" horiz-adv-x="770" 
d="M79 740h639v-30l-483 -720h238q129 0 161 30q28 28 65 164l39 -9l-23 -250h-687v28l473 725h-224q-93 0 -123 -30q-22 -26 -38 -131h-39z" />
    <glyph glyph-name="braceleft" unicode="{" horiz-adv-x="983" 
d="M750 1518l26 -40q-204 -28 -204 -289v-392q0 -134 -42 -191t-169 -97q133 -37 174 -105q41 -67 41 -210q0 -59 -7 -158q-6 -106 -6 -158q0 -292 207 -331l-13 -36q-193 0 -263 97q-63 84 -64 283v179q2 162 2 180q0 103 -26 157q-32 69 -120 102q151 61 151 324
q0 37 -5 142q-4 84 -4 142q0 205 56 294q74 107 266 107z" />
    <glyph glyph-name="bar" unicode="|" horiz-adv-x="344" 
d="M128 1089h123v-1163h-123v1163z" />
    <glyph glyph-name="braceright" unicode="}" horiz-adv-x="983" 
d="M795 509q-89 -33 -120 -102q-24 -51 -24 -157v-180q2 -181 2 -183q-3 -194 -62 -277q-75 -99 -267 -99l-13 36q207 39 207 331q0 59 -7 158q-6 107 -6 158q0 143 41 210q42 68 175 105q-129 41 -169 97t-40 191v392q0 261 -205 289l24 40q194 0 266 -107q56 -89 56 -294
q0 -58 -4 -142t-4 -142q0 -263 150 -324z" />
    <glyph glyph-name="asciitilde" unicode="~" horiz-adv-x="969" 
d="M46 1048l77 98h783l-77 -103h-210q38 -43 59 -137h224l2 -2l-75 -110h-146q-4 -57 -54 -142q-144 -159 -347 -159v-2q0 -12 51 -69l389 -466v-24q0 -2 -7 -2h-168q-461 536 -461 538v115q56 -10 96 -10q258 0 321 167q9 22 9 54h-466l-2 2l79 110h369v2q-41 83 -122 114
q-66 21 -116 21h-208v5z" />
    <glyph glyph-name="multiply" unicode="&#xd7;" horiz-adv-x="1155" 
d="M222 271l-57 57l353 353l-352 352l58 58l352 -352l352 352l56 -57l-352 -352l354 -354l-57 -58l-354 354z" />
    <glyph glyph-name="_680" unicode="&#x964;" horiz-adv-x="1102" 
d="M805 1120l108 -90v-1111l-108 104v1097z" />
    <glyph glyph-name="_681" unicode="&#x965;" horiz-adv-x="1099" 
d="M505 1120l108 -90v-1111l-108 104v1097zM855 1120l108 -90v-1111l-108 104v1097z" />
    <glyph glyph-name="_406" unicode="&#x981;" 
d="M-327 1751q0 -73 -78 -73q-81 0 -81 73t81 73q78 0 78 -73zM-175 1710q0 -98 -61 -174q-62 -77 -159 -77q-117 0 -211 115q-75 93 -108 224l39 -5q109 -220 268 -220q120 0 203 203l24 -22q5 -25 5 -44z" />
    <glyph glyph-name="_407" unicode="&#x982;" horiz-adv-x="714" 
d="M592 917q4 -94 -61 -176q-67 -77 -165 -78q-109 -4 -186 74q-78 81 -78 191q0 106 69 183q67 76 175 73q103 0 174 -83q65 -81 72 -184zM806 -110v-76q-236 266 -639 519v241q287 -253 639 -684zM500 928q9 56 -24 92q-34 37 -88 34q-68 -1 -122 -55t-63 -121
q-6 -56 20 -89t80 -33q61 0 123 57q65 56 74 115z" />
    <glyph glyph-name="_408" unicode="&#x983;" horiz-adv-x="714" 
d="M688 917q5 -101 -63 -176h1q-66 -76 -164 -78q-111 -5 -187 74q-76 82 -76 191q0 108 66 183q67 76 176 73q103 0 174 -83q65 -80 73 -184zM688 227q5 -96 -62 -175q-65 -77 -164 -79q-110 -5 -187 75q-76 79 -76 190q0 110 66 183q67 76 176 73q103 0 174 -83
q66 -78 73 -184zM595 928q10 55 -24 92t-87 34q-69 -1 -123 -55t-63 -121q-6 -56 20 -89t80 -33q60 0 123 57q65 56 74 115zM595 238q10 53 -24 93q-36 36 -87 35q-68 -1 -123 -56q-54 -54 -63 -122q-6 -55 19.5 -87.5t80.5 -32.5q59 0 123 55q65 56 74 115z" />
    <glyph glyph-name="_409" unicode="&#x985;" horiz-adv-x="1407" 
d="M580 1041h24q159 -10 279 -157q109 -134 114 -337q74 -68 141 -223v826h-1151l-99 109h1472l99 -109h-222v-1213l-61 61q-15 136 -97 289q-50 100 -126 134q-125 -189 -312 -189q-113 0 -218 75.5t-191 215.5q-136 233 -198 508l53 -20q78 -250 194 -395
q159 -202 362 -202q95 0 167 57q72 59 72 144q0 96 -44 164q-57 88 -131 93q-1 -58 -48 -105q-43 -43 -107 -43t-109 45q-46 49 -46 112q0 40 19.5 74.5t51.5 56.5q24 14 51 20q40 9 61 9z" />
    <glyph glyph-name="_410" unicode="&#x986;" horiz-adv-x="1845" 
d="M600 1042q162 -11 283 -158q109 -134 114 -337q74 -68 141 -223v826h-1151l-99 109h1493q72 -15 140 -121q35 -58 75 -168q17 -44 19 -48q3 14 3 33q0 45 -15 121l-23 171v211l47 -47q0 -80 24 -116t75 -36h77l99 -109h-222v-1213l-100 99l9 790q-2 76 -56 182
q-67 119 -152 142h-144v-1213l-61 61q-15 136 -97 289q-50 100 -126 134q-125 -189 -312 -189q-103 0 -204 67q-116 77 -205 224q-77 133 -130 277q-42 115 -68 231l53 -20q41 -124 72 -191q52 -116 122 -204q91 -117 197 -166q78 -36 165 -36q95 0 167 57q72 59 72 144
q0 96 -44 164q-57 88 -131 93q-1 -58 -48 -105q-43 -43 -107 -43t-109 45q-46 49 -46 112q0 40 19.5 74.5t51.5 56.5q64 35 132 30z" />
    <glyph glyph-name="_411" unicode="&#x987;" horiz-adv-x="1100" 
d="M1085 -171l-51 59l-87 82v-1q-114 89 -187 139l-127 77l-198 108q-70 26 -227 64l-115 265q73 -43 135 -66.5t81.5 -26.5t50.5 -6q5 -1 15 -1h15q89 0 177 31.5t146 87t58 118.5q0 73 -61 117.5t-136 44.5q-35 0 -44 -7q-4 -79 -67 -144t-147 -65q-41 0 -79 44t-38 100
q0 110 152 174l84 28q6 6 -7 26q-4 4 -9 11.5t-8 11.5q-16 17 -24 25q-20 19 -40 25h-349l-118 109h841q125 0 133 86q2 22 -16.5 40t-57.5 32q-57 20 -112 23l-223 -5h-29q-156 0 -253 17q-88 18 -134 79q-44 65 -44 143q0 77 44 133l40 -20q-25 -40 -25 -81q0 -60 48 -96
q49 -37 114 -37q58 0 204 8q135 9 206 9q149 0 243 -91q90 -87 84 -240h111l113 -109h-661q0 -2 1.5 -7.5t2.5 -9.5t3 -12.5t4 -12.5l9 -25q7 -16 9 -19l6 -6q4 -4 6 -5q4 -1 9 -3t8 -2q5 0 59 -17q6 -2 18.5 -6t18.5 -6q88 -36 149.5 -122.5t61.5 -178.5q0 -73 -30 -132
t-81 -97t-104.5 -61.5t-115.5 -37.5q161 -99 229.5 -148t124.5 -102l152 -158l41 -151z" />
    <glyph glyph-name="_412" unicode="&#x988;" horiz-adv-x="1219" 
d="M1177 1259l99 -109h-944q-7 0 -8.5 -4.5t-1.5 -16.5v-4q0 -10 5 -32l9 -26q14 -31 25 -32q48 0 86.5 -16.5t84.5 -52.5q110 -87 116 -230q120 146 216 201q62 36 118 41l177 -120q-101 -119 -164 -281q-61 -165 -69 -321q-1 -9 -1 -26v-24q0 -153 43 -270l-63 35
q-70 146 -70 375q0 246 80 429q-71 -35 -224 -215q-91 -107 -179 -181t-156 -100q-22 -9 -51 -9q-98 0 -154 95q-40 66 -62 156l40 40q77 -140 148 -140q43 0 125 61q76 56 146 146q31 37 31 91q0 52 -29 99q-46 65 -104 65q-19 0 -31 -4v-3q2 -68 -47 -111
q-48 -45 -108 -45q-63 0 -111 45q-46 45 -46 111q0 62 45 108q46 46 107 46q2 15 -6 35q-8 22 -19 39q-12 19 -21 28q-18 18 -40 18h-182l-99 109h906q125 0 133 86q2 22 -16.5 40t-57.5 32q-57 20 -112 23l-223 -5h-29q-156 0 -253 17q-88 18 -134 79q-44 65 -44 143
q0 77 44 133l40 -20q-25 -40 -25 -81q0 -60 48 -96q49 -37 114 -37q58 0 204 8q135 9 206 9q149 0 243 -91q90 -87 84 -240h161z" />
    <glyph glyph-name="_413" unicode="&#x989;" horiz-adv-x="1237" 
d="M1182 1259l99 -109h-700v-370q0 -61 17 -81q18 -18 64 -18q29 0 108 98q26 37 51 69q38 44 72 44q29 0 55 -21q71 -61 110 -140q47 -90 45 -187q-3 -197 -119 -328q-121 -126 -291 -126h-14q-10 0 -15 1q-144 12 -256 106q-113 95 -193 273q-50 114 -86 317
q-21 111 -35 260l58 -22q15 -104 43 -214q53 -174 118.5 -289t153.5 -177q104 -73 231 -73q133 0 234 95q85 73 97 221q5 48 -23 87q-27 42 -69 57q-28 -45 -103 -120q-97 -95 -179 -95q-61 0 -109 45q-64 58 -64 206v382h-495l-99 109h906q125 0 133 86q2 22 -16.5 40
t-57.5 32q-57 20 -112 23l-223 -5h-29q-156 0 -253 17q-88 18 -134 79q-44 65 -44 143q0 77 44 133l40 -20q-25 -40 -25 -81q0 -60 48 -96q49 -37 114 -37q58 0 204 8q135 9 206 9q149 0 243 -91q90 -87 84 -240h166z" />
    <glyph glyph-name="_414" unicode="&#x98a;" horiz-adv-x="1332" 
d="M1277 1259l99 -109h-645v-437q0 -61 41 -61q52 0 155 122q26 43 78 117q24 30 44 30q15 0 33 -12q171 -139 171 -383q0 -190 -141 -326q-134 -132 -328 -126q-333 24 -522 319q-142 226 -147 539l57 -34q14 -107 31 -175q38 -154 111 -255q101 -135 197 -179
q-94 142 -151 310q-69 212 -76 417l64 -39q14 -129 34 -193q66 -199 94 -257q64 -122 154 -189t196 -69q134 0 243 97q110 95 110 229q0 97 -72 170q-58 -101 -127 -163q-104 -92 -181 -92q-129 0 -153 96q-14 61 -14 140v404h-645l-99 109h906q125 0 133 86q2 22 -16.5 40
t-57.5 32q-57 20 -112 23v4q1 0 -2.5 -0.5t-12.5 -1t-21.5 -1t-31.5 -1.5t-41.5 -2t-52 -1.5t-61.5 -1.5h-30q-167 0 -256 17q-80 16 -129 79q-45 63 -45 143q0 77 44 133l41 -20q-26 -41 -26 -81q0 -58 48 -96q49 -37 114 -37q58 0 204 8q135 9 206 9q149 0 243 -91
q90 -87 84 -240h261z" />
    <glyph glyph-name="_415" unicode="&#x98b;" horiz-adv-x="1380" 
d="M1350 1259l102 -109h-249v-1036l-59 60q-24 158 -100 243q-73 87 -149 100v-580l-61 61q-29 173 -167 309q-143 131 -368 167l-114 168q48 36 251 170q158 99 273 149q-64 112 -136 124q-126 -156 -318 -156q-179 0 -185 154v7q-3 44 32 79t83 35t81 -35q30 -34 32 -79
q17 -17 57 -17q46 0 79 21q67 46 91 121q10 31 39 31q13 0 32 -12q75 -48 180 -251q3 2 9.5 3.5t10.5 2.5v469l99 -98v-716q137 -89 209 -202v1016l99 -98v-101h147zM796 257v566q-44 -16 -186 -95q-134 -76 -207 -130q246 -116 393 -341z" />
    <glyph glyph-name="_416" unicode="&#x98c;" horiz-adv-x="999" 
d="M900 445q-24 -289 -271 -392q-75 -16 -76 -19q-23 0 -29 19q-22 18 -22 53v47q29 39 34 135q5 92 -72 185q-49 55 -112 49q-138 -18 -138 -131q0 -21 24 -32q12 13 44 13q26 3 55 -14q43 -49 43 -108q0 -16 -3 -33q-18 -101 -136 -101q-68 0 -109 91q-34 76 -34 152
q0 110 133 222v-1q67 58 144 58q27 0 94 -21q79 -36 127 -131q48 -94 47 -186q0 -38 6 -40q8 -6 27 13q96 96 103 187q6 96 -80 174q-146 121 -404 228q-196 81 -219 243q-8 61 29 126q40 51 79 51q2 0 35 18q28 16 39 16q9 -4 19 -4q13 0 34 12q17 13 24 13q6 -1 7 -7v-1
l2 -4q2 -3 5.5 -13t7.5 -17q13 -32 8 -36l-34 -25q-42 -29 -57 -42q-42 -32 -42 -107q0 -41 105 -74q61 -18 123 -47l152 -74q72 -42 117 -80q56 -47 98 -100q15 -11 47 -109q32 -100 26 -156z" />
    <glyph glyph-name="_417" unicode="&#x98f;" horiz-adv-x="1269" 
d="M1171 1085v-1136l-62 50q-29 134 -68 179q-54 63 -180 63q-63 0 -192 -19q-129 -18 -191 -18q-74 0 -133 22q-81 28 -142 103q-95 119 -95 291q0 79 21 151q25 83 73 151l46 -47q-34 -50 -49 -120q-10 -44 -10 -100q0 -206 148 -265q69 -27 172 -27q29 0 121 9
q74 10 120 10q105 0 178 -43q27 -18 142 -108v888q0 9 -19 22q-20 14 -29 14q-116 -7 -236 -124q-121 -119 -131 -224q25 5 43 5q125 0 123 -128q-5 -137 -128 -137q-22 0 -46 9q-165 55 -165 212q0 171 166 333q168 162 338 162q41 0 114 -68q71 -66 71 -110z" />
    <glyph glyph-name="_418" unicode="&#x990;" horiz-adv-x="1431" 
d="M1171 846v-897l-62 50q-29 134 -68 179q-54 63 -180 63q-63 0 -192 -19q-129 -18 -191 -18q-74 0 -133 22q-81 28 -142 103q-95 119 -95 291q0 79 21 151q25 83 73 151l46 -47q-34 -50 -49 -120q-10 -44 -10 -100q0 -206 148 -265q69 -27 172 -27q29 0 121 9
q74 10 120 10q105 0 178 -43q27 -18 142 -108v888q0 9 -19 22q-20 14 -29 14q-116 -7 -236 -124q-121 -119 -131 -224q25 5 43 5q125 0 123 -128q-5 -137 -128 -137q-22 0 -46 9q-165 55 -165 212q0 171 166 333q168 162 338 162q41 0 114 -68q71 -66 71 -110v-83
q43 2 84 39q42 39 42 84q0 53 -40.5 105.5t-107.5 91.5q-28 13 -252 87q-229 73 -282 102q-154 89 -164 222q-5 71 41 133q41 55 94 80l56 -61q-53 -17 -90 -58q-38 -47 -38 -89q0 -52 185 -125q7 -3 75 -24l149 -49q219 -68 306 -132q139 -104 131 -296q-4 -106 -85 -184
l-77 -54q-14 -12 -27 -28z" />
    <glyph glyph-name="_419" unicode="&#x993;" horiz-adv-x="1282" 
d="M1173 410q-7 -153 -116 -254q-96 -80 -231 -80q-14 0 -40 2q-155 12 -292 133q-107 95 -203 257q-83 146 -142 333q-41 129 -72 279l66 -29q35 -132 78 -246q57 -148 129 -255q104 -146 219 -225q97 -66 193 -75q32 -3 60 -3q119 0 186 56q97 88 89 168q-18 116 -107 142
q-46 -45 -92 -43q-40 1 -71 26q-43 31 -43 88q0 88 80 112q13 4 33 4q39 0 75 -24q82 46 100 134q8 73 -36 123q-44 49 -114 57q-12 2 -18 2h-18q-79 0 -168 -50q-58 -31 -104 -106q77 -41 77 -126q0 -60 -43 -102q-46 -43 -103 -43q-73 0 -117 60q-36 54 -31 128
q11 144 161 263q113 89 278 89h20q14 0 21 -1q141 -10 221 -96q71 -83 71 -198q0 -145 -110 -225q121 -124 114 -275z" />
    <glyph glyph-name="_420" unicode="&#x994;" horiz-adv-x="1508" 
d="M1388 1026q-4 -128 -65 -223q-93 -141 -203 -194q57 -103 53 -199q-8 -156 -116 -254q-96 -80 -230 -80q-11 0 -41 2q-155 12 -291 131q-107 94 -204 259q-84 146 -146 347q-36 109 -68 265l68 -29q34 -129 68 -222q64 -171 137 -279q104 -143 210 -218q101 -73 202 -82
q31 -3 61 -3q118 0 185 56q97 88 89 168q-18 116 -107 142q-49 -44 -95 -43q-40 1 -69 26q-42 33 -42 88q0 88 80 112q13 4 33 4q39 0 75 -24q82 46 100 134q8 73 -36 123q-44 49 -114 57q-12 2 -18 2h-18q-79 0 -168 -50q-58 -31 -104 -106q77 -41 77 -126q0 -60 -43 -102
q-46 -43 -103 -43q-73 0 -117 60q-36 54 -31 128q11 144 161 263q113 89 279 89h19q14 0 21 -1q141 -10 221 -96q71 -82 71 -198q0 -96 -58 -172q94 30 170 130q43 55 43 158q0 58 -39 121q-38 62 -98 95q-83 42 -290 102q-195 50 -289 105q-121 74 -132 217q-5 78 23 144
q41 104 87 117l60 -58q-51 -17 -84 -72q-34 -52 -34 -103q0 -46 52.5 -89t145.5 -78q15 -4 135 -43q6 -2 60 -18.5t87 -27.5q210 -73 266 -123q121 -109 114 -289z" />
    <glyph glyph-name="_421" unicode="&#x995;" horiz-adv-x="1346" 
d="M1315 1259l100 -109h-587v-106q186 -19 318 -154q132 -138 125 -322q-5 -86 -52 -147q-50 -60 -131 -62q-57 -2 -95 39q-38 38 -36 97q2 50 50 96q25 21 88 21q49 0 96 -63q3 14 10 32q3 11 3 17v8q0 120 -124 214q-111 74 -225 74h-14q-8 0 -13 -1v-956l-60 61
q-24 89 -58 155q-54 107 -136 188q-74 69 -162 106q-86 38 -188 48l-153 189q85 99 262 199q209 115 397 159v108h-743l-99 109h1427zM730 246v635q-122 -29 -278 -117q-56 -29 -183 -122q86 -28 163 -72q106 -62 182 -150q65 -75 116 -174z" />
    <glyph glyph-name="_422" unicode="&#x996;" horiz-adv-x="1189" 
d="M1153 1259l99 -109h-224v-1213l-61 61q-17 75 -53 145q-56 110 -160 196q-79 64 -168 101q-94 40 -207 57l-186 228q59 -9 78 -6q108 -7 242 51q91 43 137 92q55 58 55 125q0 79 -45 118q-120 -117 -229 -160q-47 -20 -152 -33q-22 -2 -29 -2q-51 0 -92 26
q-66 43 -66 115q0 46 33 79t78 33t77 -31.5t34 -76.5q25 -13 57 -13q72 0 144 73q51 52 73 107q14 27 36 27q15 0 34 -16v1q128 -110 128 -315q0 -118 -78 -199q-61 -64 -173 -107q123 -56 219 -143q113 -107 175 -215v1203l47 -47q0 -80 23.5 -116t74.5 -36h79z" />
    <glyph glyph-name="_423" unicode="&#x997;" horiz-adv-x="1199" 
d="M1145 1259l99 -109h-223v-1213l-99 99l7 552q2 165 -101 321q-57 89 -123 135q-78 57 -176 70q-21 3 -39 3q-80 0 -151 -45q-82 -57 -84 -152q60 22 158 22q87 0 140 -40q31 -24 48 -62t17 -76q-6 -93 -55 -183q-53 -104 -153 -199l-122 136q118 86 179 167q62 75 64 125
q3 48 -46 48q-36 0 -129 -38q-109 -51 -135 -49q-125 17 -120 167q4 141 110 221q119 85 252 80q148 -7 261 -92q144 -108 224 -335q-3 24 -12 123q-14 145 -14 222v301l46 -47q0 -87 30 -123q23 -29 69 -29h78z" />
    <glyph glyph-name="_424" unicode="&#x998;" horiz-adv-x="1174" 
d="M177 1150h-192l-90 109h1242l101 -109h-248v-1213l-61 61q-9 36 -33 91q-67 140 -197 229q-63 43 -141 68q-75 26 -180 31l-141 156q75 84 238 235q-39 -10 -84 -10q-26 0 -43 4q-191 35 -209 210q-3 42 6 77q11 36 32 61zM891 216v934h-447q-51 -8 -88 -48
q-44 -45 -42 -110q7 -116 148 -121q86 -2 111 22q26 22 68 54l110 -110q-53 -24 -157 -116q-114 -107 -143 -143q61 -17 118 -45q71 -36 137 -93q113 -95 185 -224z" />
    <glyph glyph-name="_425" unicode="&#x999;" horiz-adv-x="1144" 
d="M1086 334q0 -147 -104 -253q-103 -106 -253 -106q-374 0 -552 364q-81 167 -121 407q-10 67 -23 193l54 -30q14 -105 35 -187q42 -172 121 -303q86 -141 217 -215q102 -50 243 -50q98 0 207 61q102 53 102 185q0 95 -89 152q-52 -72 -139 -136q-83 -61 -166 -52
q-66 8 -124 61q-66 66 -66 163v245q-134 38 -223 157q-58 79 -91 184l140 68q26 -134 82 -208q2 -2 4 -5t3 -4l19 -26l22 -27q24 -29 44 -35q0 92 58 180q79 115 210 115q89 0 159 -51q69 -55 69 -146q0 -110 -97 -182q-82 -58 -193 -53q-68 3 -108 9v-209q0 -91 78 -91
q65 0 141 76q5 6 14.5 17t26.5 31t33 38q25 34 60 34q17 0 31 -14v1q78 -49 123 -138q53 -106 53 -220zM731 907q136 37 136 119q0 66 -96 66q-29 0 -78 -11h1q-167 -49 -168 -176q48 -13 98 -13q53 0 107 15z" />
    <glyph glyph-name="_426" unicode="&#x99a;" horiz-adv-x="951" 
d="M916 1259l99 -109h-734q0 -53 35 -126q22 -45 94 -89q58 -37 117 -55q184 -60 214 -76q117 -65 117 -187q0 -148 -158 -348q-174 -216 -320 -216q-74 0 -137 71q-61 70 -61 146v880h-195l-99 109h1028zM711 608q8 50 -35 62q-285 85 -395 299v-697q0 -77 55 -77
q90 0 227 143q51 51 97 139q43 77 51 131z" />
    <glyph glyph-name="_427" unicode="&#x99b;" horiz-adv-x="1074" 
d="M1128 -139l9 -72q-182 185 -393 281q-191 87 -465 130l-108 202q109 -27 184 -27q224 0 396 136q133 100 130 193q-1 69 -60 114t-129 45q-11 0 -20 -6q9 -20 7 -56q-4 -101 -135 -205q-116 -91 -221 -92q-63 -2 -111 29q-64 40 -64 119v498h-162l-105 109h1144l105 -109
h-875q33 -88 94 -128q84 -54 189 -54q56 0 112 14q15 7 35 7q120 0 203 -107t80 -230q0 -131 -120 -245q-98 -91 -243 -144q189 -91 338 -211q152 -120 185 -191zM533 823q0 10 -5 25q-95 31 -200 96q-43 25 -73 73v-346q0 -71 53 -68q74 5 149 75q76 70 76 145z" />
    <glyph glyph-name="_428" unicode="&#x99c;" horiz-adv-x="1401" 
d="M1358 1259l99 -109h-670l-27 -10l-32 -12q-27 -14 -26 -48q4 -72 85 -116q61 -36 156 -31q98 5 245 59l58 -60l107 -113q-107 -98 -163 -226q-59 -139 -59 -310q0 -67 15 -135q23 -106 80 -201l-79 24q-38 78 -63 166q-43 150 -43 325q0 94 33 198q22 71 62 150
q-245 -4 -423 112q-85 55 -125 128q-56 12 -123 -105q-71 -121 -67 -181q8 -90 96 -90q48 0 144 51q95 50 108 50q58 0 137 -154q50 -108 50 -188q0 -134 -100 -213q-96 -80 -220 -81q-155 -5 -302 141q-107 107 -166 303q-53 171 -53 343q0 66 4 118l48 -34q4 -184 49 -327
q55 -178 174 -286v1q77 -66 221 -78q5 -1 15 -1h15q88 0 147 39q87 56 91 134q10 121 -72 121q-6 0 -93 -35q-83 -36 -117 -36q-112 4 -189 95q-70 86 -70 201q-3 168 173 312h-501l-99 109h1470z" />
    <glyph glyph-name="_429" unicode="&#x99d;" horiz-adv-x="1334" 
d="M1283 1259l100 -109h-222v-1054l-61 62q-14 110 -78 209q-77 107 -183 140v-570l-59 62q-62 200 -200 346q-160 163 -349 174l-154 189q126 102 320 206q184 97 344 159v77h-754l-99 109h951v-620q61 -33 119 -94q72 -79 103 -129v1042l47 -47q0 -63 22 -106
q24 -46 76 -46h77zM741 239v670q-172 -55 -445 -241q129 -50 245 -166q111 -114 200 -263z" />
    <glyph glyph-name="_430" unicode="&#x99e;" horiz-adv-x="1833" 
d="M1780 370q0 -84 -45 -149q-55 -75 -132 -75q-110 -5 -258 100q-121 91 -193 201v-498l-50 41q-28 134 -81 183q-68 57 -194 57h-16q-11 0 -16 -1q-23 -1 -147 -14q-102 -9 -163 -9q-73 0 -127 14q-181 54 -232 231q-20 72 -20 157q0 114 38 204q23 55 57 98l42 -59
q-35 -44 -49 -73q-23 -48 -22 -108q1 -95 31 -160q29 -62 83 -96q76 -49 243 -49v-4l90 7h84q230 0 354 -145q0 133 1 398.5t1 399.5q0 35 -27 70q-26 35 -58 37q-102 5 -206 -113q-106 -118 -113 -219q65 9 112 -27q49 -43 42 -104q-13 -136 -149 -127q-86 8 -141 72
q-51 62 -43 151q14 167 164 327q144 153 289 153q10 0 32 -2q72 -10 132 -64q59 -54 59 -128v-275q46 109 146 219q123 130 230 132q113 2 174 -77q64 -73 64 -188q0 -122 -83 -229q97 -125 97 -259zM1710 442q0 24 -22 67q-18 37 -39 58q-35 -30 -100 -62q-52 -10 -98 19
q-43 30 -51 84q-2 22 -2 29q0 100 111 126q35 6 76 -18q41 -27 58 -57q49 48 49 127q0 66 -38 113q-37 46 -102 46q-113 0 -256 -125v1q-137 -124 -139 -237q-1 -117 124 -217q122 -101 240 -101q68 0 130 41q59 41 59 106z" />
    <glyph glyph-name="_431" unicode="&#x99f;" horiz-adv-x="1018" 
d="M983 1259l98 -109h-790v-830q0 -39 28 -67q27 -27 68 -27q56 0 118 38t120 105q100 124 125 258q-32 -5 -50 -5q-49 0 -92 34q-44 35 -44 101q0 62 39.5 99.5t103.5 37.5q86 0 140 -63h-1q56 -62 56 -168q0 -63 -39 -167q-40 -108 -119 -204q-168 -201 -323 -201
q-76 0 -154 75q-75 75 -75 154v830h-205l-99 109h907q2 14 2.5 31t0.5 19q0 4 0.5 10t0.5 7q-2 105 -183 109q-65 0 -245 5q-140 4 -238 36q-95 31 -145 93q-46 56 -46 133q0 73 37 143l37 -14q-18 -66 -18 -102q0 -48 31 -82q41 -43 131 -55q42 -6 114 -6q70 0 145 4
q46 2 75 2q109 0 185 -16q200 -42 223 -317h81z" />
    <glyph glyph-name="_432" unicode="&#x9a0;" horiz-adv-x="936" 
d="M895 1259l99 -109h-426q258 -277 258 -637q0 -5 -0.5 -15.5t-0.5 -16.5q-5 -164 -118 -291q-135 -149 -273 -149q-161 -1 -266 111q-102 118 -102 276q0 43 18 91q148 47 258 168q122 131 122 273q0 106 -35 190h-442l-99 109h495q-2 4 -16 24t-41 61.5t-54 89.5
q-102 186 -102 312q0 79 59 156q33 41 67 68l122 -116q-54 -20 -84 -50q-59 -56 -59 -148q0 -54 28 -114q53 -116 198 -283h394zM736 613q-5 208 -164 407q9 -58 9 -101q0 -27 -3 -48q-32 -182 -114 -293q-80 -107 -249 -193q-17 -12 -17 -69q0 -189 171 -189q67 0 144 42
q233 147 223 444z" />
    <glyph glyph-name="_433" unicode="&#x9a1;" horiz-adv-x="1204" 
d="M1242 1259l104 -109h-736v-368q0 -68 19 -87q18 -18 66 -18q30 0 112 103l20 27q11 16 35 46q40 46 76 46q30 0 57 -24v1q71 -59 115 -146q51 -95 49 -195q-3 -207 -126 -346q-118 -130 -301 -130h-18q-12 0 -17 1q-212 18 -363 182q-82 88 -140 214q-61 138 -91 308
q-5 30 -12.5 80.5t-9.5 61.5q-8 58 -14 132l81 -25q6 -57 18 -112q7 -36 27 -113q89 -305 219 -427q122 -123 321 -123q142 0 246 100q89 83 101 243q6 43 -24 90q-27 45 -72 60q-51 -73 -108 -127q-105 -100 -188 -100q-65 0 -115 47q-67 61 -67 218v381h-520l-103 109
h1359z" />
    <glyph glyph-name="_434" unicode="&#x9a2;" horiz-adv-x="1012" 
d="M983 1259l98 -109h-790v-830q0 -39 28 -67q27 -27 68 -27q56 0 118 38t120 105q100 124 125 258q-32 -5 -50 -5q-49 0 -92 34q-44 35 -44 101q0 62 39.5 99.5t103.5 37.5q86 0 140 -63h-1q56 -62 56 -168q0 -63 -39 -167q-40 -108 -119 -204q-168 -201 -323 -201
q-76 0 -154 75q-79 79 -79 154v830h-201l-99 109h1095z" />
    <glyph glyph-name="_435" unicode="&#x9a3;" horiz-adv-x="1076" 
d="M1039 1259l99 -109h-225v-1213l-100 99l8 557q3 181 -118 359q-43 63 -123 95q-72 30 -172 30q-110 0 -166 -59q-26 -26 -43 -67q-16 -41 -16 -89q0 -69 22 -116q34 -71 117 -81q-19 25 -19 67q0 67 33.5 102.5t98.5 34.5q69 -1 103 -57q30 -50 23 -102q-12 -76 -82 -119
q-56 -35 -117 -35q-22 0 -33 3q-131 18 -200 100q-73 85 -73 215q0 71 20 137q21 65 64 111q50 56 120 85q66 27 150 27q64 0 149 -38q27 -13 65 -37q41 -28 61 -51q71 -77 118 -174q17 -49 47 -119q2 18 2 30q0 51 -17 155q-22 129 -22 157v301l47 -47q0 -80 24 -116
t75 -36h80z" />
    <glyph glyph-name="_436" unicode="&#x9a4;" horiz-adv-x="1326" 
d="M1291 1259l110 -110h-1417l-110 110h1417zM1257 519q0 -177 -138 -302q-137 -124 -331 -113q-232 9 -403 245q-243 329 -316 709l56 -22q173 -442 345 -615q138 -136 343 -129q112 7 211 76q98 69 117 174q8 46 8 71q0 108 -70 182q-71 75 -177 75q-23 0 -44 -8
q39 -46 39 -107q0 -78 -48 -125t-129 -47q-106 0 -159 74q-39 55 -37 129q1 108 79 170q85 70 185 70q224 0 346 -141q123 -139 123 -366z" />
    <glyph glyph-name="_437" unicode="&#x9a5;" horiz-adv-x="1134" 
d="M1088 1259l99 -109h-224v-1199l-63 46q-67 165 -205 278q-135 104 -417 132l-174 224q132 11 280 61q83 31 139 84q87 85 109 216q8 62 -44 108t-116 46q-47 0 -121 -36q-75 -43 -93 -81q71 -35 65 -122q-2 -56 -45 -89q-41 -30 -98 -26q-62 6 -101 51.5t-39 109.5
q0 134 139 227q106 70 232 70h16q12 0 17 -1q114 -11 201 -101q86 -89 86 -208q0 -230 -293 -418q140 -41 240 -116q111 -89 185 -220v1240l43 -30q0 -63 16 -96q9 -25 26 -33t49 -8h91z" />
    <glyph glyph-name="_438" unicode="&#x9a6;" horiz-adv-x="1026" 
d="M980 1259l98 -109h-844v-523q72 93 244 204q154 95 279 128l198 -120q-152 -311 -152 -601q0 -149 35 -301l-62 27q-66 193 -71 446q-2 88 46 360q-144 -48 -273 -156q-131 -117 -200 -251l-143 147v640h-148l-99 109h1092z" />
    <glyph glyph-name="_439" unicode="&#x9a7;" horiz-adv-x="1064" 
d="M1022 1259l98 -109h-234v-1213l-62 61q-4 18 -51 142q-72 141 -227 233q-132 78 -313 96l-133 174q76 69 147 118q30 19 97 67q4 3 22.5 15.5t30.5 21.5q-98 2 -164 54q-88 73 -88 166q0 94 54 148q55 55 128 66q66 9 119 -26q51 -35 51 -98q0 -65 -43 -92
q-34 -20 -67 -20q-19 0 -31 4q-51 18 -64 35q-26 -18 -26 -53q0 -41 56 -85q43 -34 134 -34q27 0 83 25q124 67 246 118v186h237zM785 244v656q-120 -53 -251 -134q-176 -110 -212 -155q190 -87 312 -193q89 -76 151 -174z" />
    <glyph glyph-name="_440" unicode="&#x9a8;" horiz-adv-x="1064" 
d="M1032 1259l99 -109h-245v-1213l-62 61q-4 136 -55 341v-1q-35 132 -132 256q-113 136 -229 136q-42 0 -58 -24q44 -48 39 -108q-4 -58 -50 -102q-43 -41 -112 -41q-73 0 -121 51q-46 49 -46 130q0 123 104 192q77 50 176 50h22q9 0 23 -2q59 -8 119 -45q47 -28 97 -78
q120 -115 184 -256v653h-798l-99 109h1144z" />
    <glyph glyph-name="_441" unicode="&#x9aa;" horiz-adv-x="1276" 
d="M1220 1259l99 -109h-221v-1208l-110 99l17 499q0 108 -71 253q-47 95 -76 124l-174 -176l-121 -121l-114 -115l-157 66q29 24 73 69q46 46 46 92q0 47 -21 86q-29 44 -71 44q-19 0 -77 -23q-48 -22 -72 -22q-29 0 -61 29q-29 29 -26 57q23 136 133 229q67 55 151 81
q68 20 133 20h14q10 0 15 -1q95 -11 167 -43q101 -44 164 -119q30 -36 53 -73q31 -48 58 -109q24 -53 47 -116q1 6 1 19v21q0 26 -6 79q-9 82 -11 96q-6 47 -6 74q-1 20 0.5 49.5t1.5 41.5v306l47 -47q0 -80 23.5 -116t74.5 -36h77zM467 734l168 168l125 126q-88 82 -199 82
q-123 0 -180 -39q-80 -50 -101 -111q51 6 92 -14q36 -18 60 -57q35 -57 35 -155z" />
    <glyph glyph-name="_442" unicode="&#x9ab;" horiz-adv-x="1389" 
d="M1351 1259l99 -109h-1144q131 -106 168 -140q77 -73 155 -181q-89 -80 -153 -130q-97 -79 -136 -126q127 -45 232 -132q117 -96 212 -249v802q58 8 104 8q55 0 92 -10h-1q180 -45 257 -164q56 -86 58 -211q0 -83 -55 -142q-56 -58 -135 -58q-49 0 -88 39q-37 40 -37 88
q0 51 35 84q37 34 78 34q62 0 97 -35q6 -7 22 -22q20 22 20 55q0 89 -108 146q-77 36 -155 36q-13 0 -35 -2q-31 -3 -43 -24v-859l-83 55q-31 167 -205 290q-171 124 -348 129l-132 186q71 78 168 161q75 64 174 141q-64 54 -122 82q-28 13 -80 20q-60 12 -76 17
q-63 23 -174 112h-25l-99 109h1463z" />
    <glyph glyph-name="_443" unicode="&#x9ac;" horiz-adv-x="1033" 
d="M1011 1259l98 -109h-231v-1213l-65 61q-60 187 -226 337q-89 67 -187 109t-187 44l-144 202q129 104 261 179q94 53 195 97q121 52 251 87v97h-789l-99 109h1123zM776 188v695q-110 -23 -257 -98q-145 -72 -236 -146q160 -57 286 -183q97 -95 207 -268z" />
    <glyph glyph-name="_444" unicode="&#x9ad;" horiz-adv-x="1264" 
d="M1220 1259l99 -109h-1332l-99 109h1332zM1199 622q0 -208 -126 -351h1q-130 -148 -338 -148q-108 0 -216 52q-92 44 -175 122q-71 66 -130 162q-60 102 -92 185q-33 88 -53 174q-21 86 -39 198l94 -20q14 -62 38 -144q29 -99 69 -182q38 -80 89 -145q68 -80 145 -133
q142 -99 300 -93q127 4 232 100q103 93 103 221q0 164 -112 170q-161 -178 -322 -182q-117 -1 -194 55q-81 65 -81 179q0 104 69 146q48 30 127 30q50 0 89 -46t39 -94q0 -50 -61 -121q182 15 289 236q255 -189 255 -371z" />
    <glyph glyph-name="_445" unicode="&#x9ae;" horiz-adv-x="1147" 
d="M1091 1259l99 -109h-217v-1213l-66 61q-19 104 -25 123q-15 52 -37 98q-42 88 -93 145q-64 72 -154 102q-70 -105 -173 -105q-80 0 -137 45q-58 45 -58 129q0 85 60 139q52 45 118 45q82 0 134 -38v25q0 110 -57 179q-64 79 -203 103l-81 15q-50 11 -68 25
q-52 37 -96 122h-50l-99 109h1203zM869 331v819h-590q71 -48 236 -196q139 -154 133 -360q131 -100 221 -263z" />
    <glyph glyph-name="_446" unicode="&#x9af;" horiz-adv-x="1090" 
d="M1025 1259l98 -109h-211v-1213l-72 61q-36 162 -184 283q-177 150 -409 150l-153 192q63 67 168 155l197 160q-41 47 -145 72q-70 2 -158 18q-66 26 -153 122h-16l-99 109h1137zM802 210v940h-523q144 -87 235 -169q77 -69 111 -126q-73 -56 -314 -266q126 -32 285 -156
q136 -110 206 -223z" />
    <glyph glyph-name="_447" unicode="&#x9b0;" horiz-adv-x="1027" 
d="M990 1259l98 -109h-223v-1213l-63 62q-31 85 -69 148q-97 146 -226 235q-149 104 -306 106l-145 202q108 89 241 166q145 85 299 142q92 34 170 55v97h-786l-99 109h1109zM494 158q0 -44 -34 -79q-35 -35 -78 -35q-45 0 -81 35q-34 34 -34 79q0 42 34 79q35 35 81 35
t78 -35q34 -37 34 -79zM766 189v694q-110 -23 -257 -98q-51 -25 -118 -64q-70 -42 -120 -82q154 -56 281 -176q103 -97 214 -274z" />
    <glyph glyph-name="_448" unicode="&#x9b2;" horiz-adv-x="1219" 
d="M1163 1259l99 -109h-229v-1213l-99 99v564q0 72 -65 167q-61 90 -119 91q-30 0 -46 -39q-16 -36 -16 -75q0 -33 11 -59l-76 -40q-25 93 -93 155t-161 62q-88 0 -156 -68q-65 -68 -65 -156q0 -77 31 -117q34 -45 106 -48q-8 18 -8 80q0 39 39 74q39 33 87 33q38 0 79 -29
q51 -37 51 -98q0 -76 -57 -121q-56 -41 -126 -41q-125 0 -209 86q-82 84 -87 233q-3 121 59 216q74 110 212 110q86 0 162 -61q53 -42 102 -111q15 79 47 120q32 39 76 45q42 2 85 -31q45 -33 91 -112q22 -36 46 -95v379h-947l-99 109h1275z" />
    <glyph glyph-name="_449" unicode="&#x9b6;" horiz-adv-x="1184" 
d="M1104 1259l113 -109h-197v-1226l-123 110l19 718q0 37 -37 109q-11 16 -28 48q-31 51 -40 61q-35 45 -58 68q-71 74 -115 74q-32 0 -69 -48q-50 -74 -48 -111q7 -2 22 -7.5t21.5 -8t18.5 -8t20 -10.5t19 -13.5t21 -19.5q65 -68 65 -136q0 -46 -37 -79t-82 -33
q-51 0 -103.5 43.5t-70.5 114.5q-10 -32 -31.5 -66.5t-46.5 -53.5q-47 -35 -92 -39t-86 31q-30 30 -30.5 73.5t19 80t48.5 64.5q32 31 111 67q-59 121 -90 148q-26 23 -54 34q-33 15 -74 15h-100l-110 109h221q59 0 110 -25q52 -25 94 -76q36 -44 93 -170q2 67 31.5 128
t69.5 88q68 45 141 45q42 0 77 -28q46 -35 96 -99q40 -47 118 -193q-2 15 -16 98q-14 79 -14 118v318l58 -57q0 -61 13 -93q11 -31 32 -43q17 -11 45 -11h56z" />
    <glyph glyph-name="_450" unicode="&#x9b7;" horiz-adv-x="1081" 
d="M1025 1259l98 -109h-211v-1213l-72 61q-36 162 -184 283q-177 150 -409 150l-153 192q95 103 365 315q-41 47 -145 72q-70 5 -156 18q-75 28 -156 122h-15l-99 109h1137zM802 746v404h-521q124 -61 231 -166l111 -121q100 -100 179 -117zM802 210v415q-68 37 -223 192
q-110 -86 -268 -228q126 -32 285 -156q136 -110 206 -223z" />
    <glyph glyph-name="_451" unicode="&#x9b8;" horiz-adv-x="1208" 
d="M1165 1259l100 -109h-214v-1213l-130 99l10 492q-9 65 -68 146q-57 78 -115 78q-82 0 -170 -129q-4 -5 -11.5 -16t-11.5 -17q-38 -58 -46 -67q-73 -87 -154 -87q-163 0 -209 205l60 55q50 -122 97 -122q48 0 103 77q23 37 71 121q-18 145 -54 196q-47 63 -184 77
q-76 6 -122 15q-34 6 -90 90h-40l-99 109h1277zM931 691v459h-596q87 -31 146 -130q36 -57 53 -194q82 88 152 88q63 0 139 -91z" />
    <glyph glyph-name="_452" unicode="&#x9b9;" horiz-adv-x="1021" 
d="M1045 -171l-51 59l-87 82v-1q-114 89 -187 139l-127 77l-198 108q-70 26 -227 64l-115 265q73 -43 135 -66.5t81.5 -26.5t50.5 -6q5 -1 15 -1h15q89 0 177 31.5t146 87t58 118.5q0 73 -61 117.5t-136 44.5q-35 0 -44 -7q-4 -79 -61 -131.5t-143 -52.5q-43 0 -80 34.5
t-37 89.5q0 110 142 169l84 28q7 7 -5 26q-4 4 -10 12t-9 11q-16 17 -24 25q-20 19 -40 25h-319l-118 109h1144l113 -109h-661q0 -2 1.5 -7.5t2.5 -9.5t3 -12.5t4 -12.5t3.5 -12.5t2.5 -12.5q4 -7 12 -19l6 -6q4 -4 6 -5q3 -1 8 -3t9 -2q5 0 59 -17q6 -2 18.5 -6t18.5 -6
q88 -36 149.5 -122.5t61.5 -178.5q0 -73 -30 -132t-81 -97t-104.5 -61.5t-115.5 -37.5q161 -99 229.5 -148t124.5 -102l152 -158l41 -151z" />
    <glyph glyph-name="_453" unicode="&#x9bc;" horiz-adv-x="1054" 
d="M504 156q0 -45 -34 -78q-37 -34 -79 -34q-45 0 -78 33t-33 79q0 42 33 78q32 35 78 35t79 -35q34 -37 34 -78z" />
    <glyph glyph-name="_454" unicode="&#x9bd;" horiz-adv-x="1047" 
d="M-130 1259h459q34 -10 59 -26.5t58 -60.5q32 -73 37 -89q4 -7 12 -19l6 -6q4 -4 6 -5q3 -1 8 -3t9 -2q5 0 59 -17q6 -2 18.5 -6t18.5 -6q88 -36 149.5 -122.5t61.5 -178.5q0 -73 -30 -132t-81 -97t-104.5 -61.5t-115.5 -37.5q161 -99 229.5 -148t124.5 -102l152 -158
l41 -151l-2 -2l-51 59l-87 82v-1q-114 89 -187 139l-127 77l-198 108q-70 26 -227 64l-115 265q73 -43 135 -66.5t81.5 -26.5t50.5 -6q5 -1 15 -1h15q89 0 177 31.5t146 87t58 118.5q0 73 -61 117.5t-136 44.5q-35 0 -44 -7q-4 -79 -61 -131.5t-143 -52.5q-43 0 -80 34.5
t-37 89.5q0 110 142 169l84 28q7 7 -5 26q-4 4 -10 12t-9 11q-16 17 -24 25q-20 19 -40 25h-319z" />
    <glyph glyph-name="_455" unicode="&#x9be;" horiz-adv-x="459" 
d="M421 1259l108 -107h-221v-1238l-111 85l14 830q0 75 -57 182q-68 121 -150 141h-16l-108 107h124q82 -16 143 -115q35 -57 76 -169l15 -36q5 45 -13 140q-23 126 -23 165v206l45 -48q12 -135 95 -143h79z" />
    <glyph glyph-name="_456" unicode="&#x9bf;" horiz-adv-x="451" 
d="M1213 1423l-3 -3q-176 138 -282 192q-148 72 -317 72q-142 0 -269 -91q-65 -52 -98 -103q-28 -42 -39 -78t-4 -75.5t37 -77.5h167l98 -109h-232v-1201l-98 104v1097h-186l-99 109h289q-40 27 -74 74.5t-38 93.5q22 172 170 274q137 95 315 95q140 0 330 -91
q195 -92 321 -230q1 -7 12 -52z" />
    <glyph glyph-name="_457" unicode="&#x9c0;" horiz-adv-x="480" 
d="M439 1259l92 -109h-277v-1208l-97 99v1109h-171l-99 109h269q-14 110 -56 187q-53 101 -165 176q-90 61 -207 91q-105 28 -235 28q-120 0 -209 -22q-83 -19 -114 -38q-29 -20 -29 -49q3 -50 106 -59q2 -2 134 -14q5 -1 97 -8q79 -6 131 -16q54 -10 93 -25q64 -26 93 -71
q27 -41 27 -97q0 -44 -7 -87h-101q20 14 43 72q-4 62 -126 82q-10 1 -69 8q-17 1 -44.5 2.5t-48.5 3t-38 2.5q-144 12 -158 16h1q-82 19 -129 63q-55 49 -58 128q-1 55 41 102q48 50 145 84q125 42 277 40q110 -3 215 -35q143 -44 256 -137q97 -84 156 -195q54 -103 72 -232
h190z" />
    <glyph glyph-name="_458" unicode="&#x9c1;" 
d="M117 -515l-3 -2q-144 153 -343 270q-26 -42 -92 -83q-68 -42 -122 -49q-24 -2 -34 -2q-62 0 -114 33q-70 47 -65 134q1 76 67 119q54 36 134 38q117 4 190 -51q17 35 17 113q0 77 -23 143l54 -33q32 -59 32 -192q0 -25 -2 -87q1 0 2 -1l2 -2v1q4 -4 13 -9.5t13 -8.5
q193 -141 258 -244q4 -38 16 -87zM-459 -301q108 21 154 103q-61 49 -152 49q-124 0 -129 -77q-2 -44 40 -63q44 -23 87 -12zM-303 -200l-1 3l-1 -1z" />
    <glyph glyph-name="_459" unicode="&#x9c2;" 
d="M203 -605l-331 278q-117 -69 -240 -69q-73 0 -127 60q-53 59 -53 131q0 92 72 152q70 58 163 58q26 0 63 -25q0 25 -14 101q97 -37 88 -140l-3 -31q-46 13 -100 13q-105 0 -147 -39q-40 -18 -40 -91q0 -39 40 -64q40 -24 85 -24q35 0 105 22q70 21 94 42l318 -270
q26 -50 27 -104z" />
    <glyph glyph-name="_460" unicode="&#x9c3;" 
d="M-69 -729l-3 -1q-104 104 -274 208l-297 184l334 244q6 15 20 48.5t20 49.5l81 -166l-265 -189q113 -67 224 -160q159 -133 160 -218z" />
    <glyph glyph-name="_461" unicode="&#x9c4;" 
d="M-212 -849l-3 -1q-104 104 -274 209l-296 182l333 246q5 12 18 43.5t19 47.5l-228 140l334 246q6 15 20 48.5t20 49.5l81 -168l-265 -189q121 -72 224 -159q158 -133 160 -222q-106 103 -278 211l-57 37l73 -152l-265 -190q121 -72 226 -159q155 -131 158 -220z" />
    <glyph glyph-name="_462" unicode="&#x9c7;" horiz-adv-x="700" 
d="M652 1259l99 -109h-83q-83 0 -270 -217q-182 -215 -205 -441q-1 -6 -1 -21v-20q0 -132 56 -264q21 -53 78 -98q64 -44 117 -44q17 0 30 3q-66 48 -66 129q0 102 115 125q61 10 104 -35q44 -44 44 -106q0 -90 -62 -144q-62 -51 -151 -42q-178 20 -275 196q-83 153 -82 341
q4 271 184 510q7 10 112 128h-409l-101 109h766z" />
    <glyph glyph-name="_463" unicode="&#x9c8;" horiz-adv-x="707" 
d="M656 1254l95 -104h-82q-165 -49 -304 -259q-119 -187 -144 -377q-5 -58 -5 -104q0 -151 55 -246q67 -122 201 -114q-65 47 -65 127q0 102 115 125q61 10 104 -35q44 -44 44 -106q0 -80 -67 -137q-68 -56 -146 -49q-93 11 -174 78q-64 55 -89 102q-75 156 -75 337
q0 351 289 658h-421l-99 109h628q25 0 36 16.5t10 59.5q-4 97 -170 102q-19 -10 -64 -10q-138 0 -170 5q-87 17 -139 89q-51 73 -51 131q0 55 51 112l25 -24q-35 -29 -35 -69q0 -101 137 -101q33 0 88 7t86 7q99 0 199 -51q117 -61 130 -147q0 -61 7 -132z" />
    <glyph glyph-name="_464" unicode="&#x9cb;" horiz-adv-x="1908" 
d="M653 1259l99 -109h-83q-83 0 -270 -217q-182 -215 -205 -441q-1 -6 -1 -21v-20q0 -132 56 -264q21 -53 78 -98q64 -44 117 -44q16 0 30 3q-66 48 -66 129q0 102 115 125q63 11 103 -35q45 -43 45 -106q0 -90 -62 -144q-62 -51 -151 -42q-178 20 -275 196q-83 153 -82 341
q4 271 184 510q7 10 112 128h-410l-100 109h766zM1839 1249l99 -99h-210v-1229l-102 78l12 827q-5 81 -58 182q-67 119 -151 142h-14l-100 99h114q78 -15 140 -111q30 -51 75 -168q17 -44 19 -48q3 14 3 33q0 47 -15 125q-23 112 -23 159v192h14q1 -5 21 -28h-1q2 -1 3.5 -4
t2.5 -4q12 -132 98 -146h73z" />
    <glyph glyph-name="_465" unicode="&#x9cc;" horiz-adv-x="1945" 
d="M1881 1259l98 -109h-242v-1231l-111 108v1123h-211l-100 109h303q35 41 36 79q6 66 -59 92q-34 15 -119 15q-11 -1 -38 -1h-37q-204 0 -387 29q-94 15 -156 77t-62 155q0 87 61 148l35 -27q-31 -58 -31 -107q0 -70 65 -106q51 -31 126 -24q180 15 352 15q158 0 244.5 -69
t97.5 -197q0 -24 -7 -79h142zM653 1259l99 -109h-83q-83 0 -270 -217q-182 -215 -205 -441q-1 -6 -1 -21v-20q0 -132 56 -264q21 -53 78 -98q64 -44 117 -44q16 0 30 3q-66 48 -66 129q0 102 115 125q63 11 103 -35q45 -43 45 -106q0 -90 -62 -144q-62 -51 -151 -42
q-178 20 -275 196q-83 153 -82 341q4 271 184 510q7 10 112 128h-409l-101 109h766z" />
    <glyph glyph-name="_466" unicode="&#x9cd;" 
d="M-405 -101l342 -285l-26 -36l-391 239z" />
    <glyph glyph-name="_467" unicode="&#x9ce;" horiz-adv-x="847" 
d="M911 -33l-74 20q26 77 26 93q0 101 -131 174q-15 8 -267 119q-170 74 -247 130q-181 142 -181 359q0 165 106 271q108 108 271 108q125 0 214 -74q88 -74 95 -198q5 -104 -58 -169q-64 -64 -165 -58q-118 11 -187.5 90t-82.5 221q-39 -16 -69 -74q-32 -59 -32 -105
q0 -145 177 -243l295 -141q159 -80 231 -171q81 -107 81 -276q0 -19 -2 -67v-9zM644 983q0 60 -81 105q-66 31 -139 31q-68 0 -112 -26q-5 -20 -5 -31q0 -69 54 -132h-1q57 -62 124 -66q60 -2 109 31q51 31 51 88z" />
    <glyph glyph-name="_468" unicode="&#x9d7;" horiz-adv-x="520" 
d="M452 1259l98 -109h-242v-1231l-110 108v1123h-212l-99 109h303q34 39 37 79q4 67 -60 92q-31 15 -119 15q-11 -1 -38 -1h-37q-205 0 -387 29q-94 15 -156 77q-63 66 -63 155q0 86 62 148l35 -27q-29 -60 -29 -107q0 -71 63 -106q51 -32 125 -24q180 15 354 15
q159 0 244.5 -69t96.5 -197q0 -24 -7 -79h141z" />
    <glyph glyph-name="_469" unicode="&#x9dc;" horiz-adv-x="1244" 
d="M1242 1259l104 -109h-736v-368q0 -68 19 -87q18 -18 66 -18q30 0 112 103l20 27q11 16 35 46q40 46 76 46q30 0 57 -24v1q71 -59 115 -146q51 -95 49 -195q-3 -207 -126 -346q-118 -130 -301 -130q-115 0 -218.5 50t-179.5 133q-82 88 -140 214q-61 138 -91 308
q-5 30 -12.5 80.5t-9.5 61.5q-8 58 -14 132l81 -25q6 -57 18 -112q7 -36 27 -113q89 -305 219 -427q122 -123 321 -123q142 0 246 100q89 83 101 243q6 43 -24 90q-27 45 -72 60q-51 -73 -108 -127q-105 -100 -188 -100q-65 0 -115 47q-67 61 -67 218v381h-520l-103 109
h1359zM854 -182q0 -46 -34 -79q-38 -32 -80 -32q-46 0 -79 32.5t-33 78.5q0 44 33 80q32 35 79 35t80 -35q34 -34 34 -80z" />
    <glyph glyph-name="_470" unicode="&#x9dd;" horiz-adv-x="1061" 
d="M983 1259l98 -109h-790v-782q0 -38 28 -67q29 -27 68 -27q113 0 229 136q113 132 134 241q-32 -5 -50 -5q-49 0 -92 34q-44 35 -44 100q0 63 40 101t103 38q86 0 140 -63h-1q56 -62 56 -170q0 -157 -158 -346q-167 -201 -323 -201q-78 0 -154 74q-75 75 -75 155v782h-205
l-99 109h1095zM504 -102q0 -46 -34 -79q-38 -32 -80 -32q-46 0 -79 32.5t-33 78.5q0 44 33 80q32 35 79 35t80 -35q34 -34 34 -80z" />
    <glyph glyph-name="_471" unicode="&#x9df;" horiz-adv-x="1081" 
d="M1002 1259l98 -109h-198v-1213l-62 61q-37 160 -184 283q-177 150 -409 150l-154 193q98 103 366 314q-40 46 -145 72q-71 5 -158 18q-66 26 -153 122h-16l-99 109h1114zM556 158q0 -44 -34 -79q-35 -35 -79 -35q-42 0 -79 35q-34 34 -34 79q0 42 34 79q35 35 79 35
q47 0 79 -35q34 -37 34 -79zM802 210v940h-523q263 -161 346 -295q-99 -77 -314 -266q133 -35 285 -156q133 -105 206 -223z" />
    <glyph glyph-name="_472" unicode="&#x9e0;" horiz-adv-x="1437" 
d="M859 -301l-3 -1q-100 100 -274 209l-295 182l333 246q27 68 33 80q-1 1 -3 1l-1 2v-1q-152 120 -350 153l-114 165q213 181 539 322q-71 98 -177 112q-156 -162 -315 -162q-80 0 -131.5 44t-53.5 122q0 49 31 82.5t81 35.5q44 2 73.5 -24.5t29.5 -69.5v-12q0 -3 -2 -11
q14 -8 31 -8q51 0 128 59q63 52 97 111q163 -70 260 -257q3 2 9.5 3.5t10.5 2.5v387l99 -97v-637q123 -82 209 -214v942l86 -74l6 -133h177l103 -109h-273v-943l-50 62q-16 104 -83 211q-82 114 -175 133v-569l-56 54q-20 170 -161 294l64 -126l-265 -188q116 -71 224 -160
q156 -133 158 -219zM798 353v565q-58 -20 -201 -101q-142 -86 -181 -123q227 -103 382 -341z" />
    <glyph glyph-name="_473" unicode="&#x9e1;" horiz-adv-x="1550" 
d="M1458 265q13 -231 -215 -338q-35 -16 -49 -16q-36 0 -36 59q0 6 2 20t2 16q26 37 26 102q0 88 -58 133q-35 47 -83 40q-45 -6 -84 -51q-8 -18 -16 -65q2 -59 13 -63q25 18 40 18q23 0 40 -23h-1q36 -38 30 -94q-12 -73 -83 -78q-49 -3 -81 36t-45 122q0 200 136 272
q37 17 67 17q37 0 74 -19q126 -55 126 -240q0 -43 26 -19q75 70 80 144q2 73 -66 128q-119 91 -300 172q-82 30 -104 64q-27 -285 -271 -384q-69 -18 -74 -18v-4q-22 0 -29 22q-22 15 -22 49v50q29 41 34 132q5 94 -72 186q-51 56 -113 49q-66 -8 -111 -82q-21 -29 -21 -93
q-5 -18 -5 -26q0 -22 23 -33q11 14 44 14q29 2 53 -14q45 -49 45 -107q0 -15 -3 -32q-18 -103 -136 -103q-47 0 -83.5 55.5t-56.5 151.5q-2 10 -2 15v16q0 66 41 170q77 182 235 182q27 0 95 -21q78 -33 126 -127q49 -94 47 -186q0 -42 6 -43q8 -5 27 13q97 97 104 190
q6 98 -81 170q-142 123 -404 230q-201 83 -219 244q-2 22 -2 31q0 57 27 101q37 43 84 43q9 0 27 -2q81 -33 81 -101q0 -61 -61 -83v-7q0 -44 105 -77q69 -21 124 -48l151 -72q78 -50 118 -80q66 -53 98 -102q22 -12 33 -50l3 3q28 33 65 33q59 0 68 -60q5 -17 5 -26
q0 -39 -43 -63q-8 -29 80 -53l91 -40q14 -7 43 -19.5t43 -18.5l27 -12q127 -82 168 -140q43 -55 47 -160z" />
    <glyph glyph-name="_474" unicode="&#x9e2;" horiz-adv-x="646" 
d="M583 132q4 -205 -180 -286q-11 -6 -38 -11q-22 -2 -36.5 13.5t-6.5 36.5v-1q4 15 4 28q21 50 21 93q0 10 -2 20q0 42 -44 99q-32 37 -74 26q-43 -4 -66 -46q-19 -19 -20 -58q-4 -39 14 -48q12 13 27 13q39 5 59 -51q7 -27 4 -51q-9 -63 -70 -69q-48 -4 -77.5 32
t-38.5 110q-6 69 28 133q37 69 96 97q32 15 58 15q32 0 63 -17q114 -47 114 -205q0 -21 6 -21t16 7v-1q61 64 65 125t-54 107q-91 73 -265 149q-63 27 -99.5 68t-38.5 89q-2 14 -2 25q0 40 23 69q24 30 65 21q39 -11 49 -48q13 -54 -33 -76q0 -20 106 -68q100 -43 145 -60
q95 -51 137.5 -112t44.5 -147z" />
    <glyph glyph-name="_475" unicode="&#x9e3;" horiz-adv-x="1299" 
d="M1239 442q4 -88 -46 -179q-48 -83 -136 -122q-26 -16 -53 -16q-13 0 -21.5 9.5t-8.5 26.5q0 11 3 23q4 12 4 30q21 30 21 97q0 7 -2 21q-7 47 -48 100q-22 39 -71 33q-46 -7 -67 -54q-19 -15 -19 -58v-21q0 -22 14 -30q8 9 26 16q41 2 60 -57q7 -25 5 -51
q-10 -67 -74 -76q-38 -4 -78 45q-1 -102 -57 -194q-58 -89 -159 -132q-13 -7 -40 -7q-28 0 -53 23q-4 4 -4 20q0 9 3 22q4 12 4 24q21 39 23 108q1 23 0 33q-1 58 -54 123q-32 41 -92 33q-48 -7 -81 -56q-19 -35 -22 -73q-2 -50 19 -59q11 11 32 11q19 1 37 -13v1
q46 -37 39 -111q-20 -81 -89 -86q-8 -2 -15 -2q-61 0 -89 82q-25 68 -21 133q1 58 25 126q69 147 187 147q32 0 75 -24q133 -77 133 -255v-17q0 -11 2 -13v1q3 -2 10 1l17 9q69 80 77 154q7 104 -205 234q-18 9 -77.5 37.5t-89.5 43.5q-116 59 -140 99q-33 45 -40 106
q-4 55 19 103q23 41 61 41q12 0 30 -5q42 -12 53 -60q5 -22 5 -33q0 -39 -39 -59v-5q0 -25 74 -52q76 -25 224 -103q114 -81 168 -145q6 -22 20 -45q23 137 116 183q27 13 58 13q32 0 61 -13q58 -28 88 -85.5t30 -129.5q0 -24 4 -25q8 -2 15 8q64 64 69 126q7 99 -170 198
l-101 48q-6 4 -19 9.5t-19 8.5q-141 68 -149 174q-3 52 16 86q30 39 71 30q36 -11 48 -47q13 -57 -32 -84q-6 -22 62 -51h-1q95 -24 183 -75q104 -62 146 -131q41 -71 45 -146z" />
    <glyph glyph-name="_476" unicode="&#x9e6;" horiz-adv-x="1133" 
d="M1042 526q0 -192 -138 -330q-137 -136 -330 -136q-197 0 -333 136q-138 138 -138 330t138 331t333 139q191 0 330 -139q138 -140 138 -331zM835 371q67 115 67 242q0 179 -129 256q-52 34 -123 34q-91 0 -186 -62q-87 -57 -155 -165q-68 -122 -68 -243q0 -179 131 -259
q58 -31 121 -31q89 0 189 62q90 58 153 166z" />
    <glyph glyph-name="_477" unicode="&#x9e7;" horiz-adv-x="926" 
d="M832 363q-10 -161 -154 -291q-162 -140 -314 -140q-74 0 -138 46q-73 52 -73 122q0 96 85 160q75 55 171 55q126 0 230 -93q78 40 78 169q0 69 -28 122q-27 47 -301 298q-228 210 -228 314q0 134 129 134q125 0 125 -147q0 -33 -11 -75q195 -195 287 -295
q154 -208 142 -379z" />
    <glyph glyph-name="_478" unicode="&#x9e8;" horiz-adv-x="1097" 
d="M1103 -116l25 -118q-405 405 -923 532q-142 238 -149 428l4 1q56 -109 225 -192q159 -74 267 -78q88 -2 176 40q96 49 96 130q0 67 -74 147q-71 76 -163 121l-182 77q-132 62 -132 165q0 57 38 92q33 30 76 30t81 -35q38 -36 38 -90q157 -63 265 -159q151 -139 147 -296
q-1 -282 -344 -380q250 -132 529 -415z" />
    <glyph glyph-name="_479" unicode="&#x9e9;" horiz-adv-x="1276" 
d="M1192 528q0 -218 -122 -352q-68 -68 -152.5 -107t-169.5 -39q-206 0 -407 250q-127 157 -208 400q-27 77 -62 288l85 -35q29 -225 178 -454q72 -107 200 -182q114 -61 202 -61q130 0 244 102q115 101 110 248q-4 151 -93 277q-89 118 -197 120q10 -27 10 -64
q0 -76 -53 -132q-54 -54 -130 -54q-75 0 -132 54q-53 56 -53 132q0 93 61 142q77 62 207 62q94 0 193 -48q108 -53 173 -146q116 -176 116 -401z" />
    <glyph glyph-name="_480" unicode="&#x9ea;" horiz-adv-x="1104" 
d="M968 316q0 -170 -168 -268q-140 -80 -321 -80q-132 0 -246 96q-121 97 -121 229q0 105 99 190q78 66 190 103q-42 15 -131 55q-119 71 -119 230q1 171 139 275q126 95 300 95q119 0 222 -78q112 -86 112 -203q0 -201 -232 -300q276 -91 276 -344zM799 940q0 98 -78 157
q-80 60 -181 60q-88 0 -159 -47q-81 -54 -81 -141q0 -97 90 -173q74 -60 183 -86q226 106 226 230zM813 266q-1 95 -100 181q-88 77 -195 95q-71 -17 -155 -103q-75 -83 -75 -165q0 -89 82 -147q73 -47 168 -47q214 0 275 186z" />
    <glyph glyph-name="_481" unicode="&#x9eb;" horiz-adv-x="1190" 
d="M1113 802v-4q-176 -66 -304 -184q-154 -150 -150 -305q4 -111 85 -195q72 -78 191 -116q-95 -39 -187 -39q-13 0 -43 2q-291 25 -447 153.5t-173 354.5q-2 30 -2 46q0 230 163 428q165 202 425 282l160 -39q-83 -89 -83 -156q0 -60 45 -92q38 -24 82 -24q8 0 30 2
q126 -81 208 -114zM825 794l23 14q-92 11 -151 77q-61 70 -75 163q-160 -74 -289 -248q-117 -168 -117 -355q0 -169 154 -291q136 -98 317 -120q-158 158 -158 314q0 148 79 266q81 117 217 180z" />
    <glyph glyph-name="_482" unicode="&#x9ec;" horiz-adv-x="1216" 
d="M1158 453q0 -195 -118 -334q-126 -148 -318 -148q-247 0 -462 374q-188 338 -184 611l48 -23l38 -183q29 -120 138 -292q111 -173 212 -234q100 -57 238 -57q147 0 238 100q91 103 91 247q0 76 -68 182q-36 -89 -122 -149q-87 -57 -186 -57q-134 -2 -194 97
q-42 68 -60 217l-29 220q-48 1 -79 31t-29 77q8 102 127 102q83 0 115 -81q15 -41 22 -148q-8 -162 -8 -263q0 -132 89 -137q72 -4 171 113q84 108 118 193q212 -159 212 -458z" />
    <glyph glyph-name="_483" unicode="&#x9ed;" horiz-adv-x="1090" 
d="M999 64q3 -122 -120 -125q-75 0 -100 63q-31 78 -31 232v38q3 72 6 239q0 7 0.5 20t0.5 20q-61 -1 -181 -2t-180 -2q-93 0 -183 102t-90 191q0 138 114 258t251 120q146 -2 270 -140q125 -140 125 -284v-644q43 7 79 -17q39 -27 39 -69zM378 708h381v36q0 99 -61 224
q-70 142 -151 146q-95 4 -195 -102q-95 -111 -95 -208q0 -96 121 -96z" />
    <glyph glyph-name="_484" unicode="&#x9ee;" horiz-adv-x="1314" 
d="M1225 838q0 -161 -178 -180q-9 -1 -30.5 -2.5t-28.5 -2.5l-84 -7q-50 -5 -51 -35q5 -14 14.5 -42t15.5 -42q17 -57 17 -96q2 -124 -122 -253q-41 -45 -153 -111q-113 -69 -169 -69q-83 0 -148 68q-67 66 -67 147v792q-138 1 -138 114q0 115 95 115q154 0 154 -234v-303
l116 83q73 46 136 46q93 0 218 -159q64 142 164 147h90q49 0 93 28l51 84q5 -49 5 -88zM737 555q0 55 -59 93q-52 31 -114 31q-112 0 -212 -72v-444q4 -25 36 -43q123 6 240 158q110 154 109 277z" />
    <glyph glyph-name="_485" unicode="&#x9ef;" horiz-adv-x="1185" 
d="M1098 344q-6 -149 -166 -263q-141 -98 -306 -120q49 95 49 230q0 141 -53 223q-56 89 -159 89q-11 0 -33 -2q-60 -9 -107 -87q-39 -73 -39 -137q0 -62 41 -95q13 4 32 4q50 0 81 -40q29 -37 23 -87q-5 -45 -34.5 -70t-80.5 -25q-101 0 -147 88q-39 70 -39 177
q0 137 95 253q96 118 231 111q140 -10 226 -132q77 -110 77 -259q0 -34 -4 -62q79 13 142 82q58 71 50 155q-10 56 -36 109.5t-61 85.5q-63 52 -199 105q-212 83 -274 115q-143 74 -247 210q-64 88 -64 159q0 105 123 105q38 0 64 -32t26 -68q0 -44 -35 -88
q65 -101 211 -148l245 -69q162 -47 270 -195q106 -144 98 -322z" />
    <glyph glyph-name="_486" unicode="&#x9f0;" horiz-adv-x="1052" 
d="M986 1259l100 -109h-211v-1199l-64 46q-62 191 -226 338q-184 149 -372 153l-144 202q322 259 707 363v97h-789l-99 109h1098zM428 744q-79 -52 -145 -105q159 -57 286 -183q96 -93 207 -267v230q-185 251 -348 325zM776 542v341q-129 -31 -246 -82q164 -135 246 -259z
" />
    <glyph glyph-name="_487" unicode="&#x9f1;" horiz-adv-x="1052" 
d="M986 1259l100 -109h-211v-1199l-64 46q-62 191 -226 338q-184 149 -372 153l-144 202q322 259 707 363v97h-789l-99 109h1098zM664 5l-84 -76q-53 96 -162 168q-108 72 -239 89l46 132q137 -17 264 -102q133 -90 175 -211zM776 189v694q-109 -22 -257 -98
q-153 -76 -236 -146q159 -57 286 -183q96 -93 207 -267z" />
    <glyph glyph-name="_488" unicode="&#x9f2;" horiz-adv-x="1223" 
d="M1172 -93h-64q-155 422 -396 757q-290 390 -639 557l230 123q578 -521 869 -1437z" />
    <glyph glyph-name="_489" unicode="&#x9f3;" horiz-adv-x="911" 
d="M886 586q0 -178 -140 -329q-138 -148 -317 -148q-67 0 -134 54q-62 50 -94 113q-5 78 -5 360v27h-112l-92 93h213v236q0 64 -96 89q-8 -1 -23 -3t-23 -2q-26 33 -33 88q58 61 121 61q108 0 144 -138q17 -70 17 -220q0 -48 4 -108h62l90 -96h-159q0 -56 -1 -167t-1 -166
q0 -108 127 -108q108 0 193 97q85 106 92 207q-3 0 -6 -0.5t-5 -0.5q-5 -1 -16 -1h-13q-143 0 -143 126q0 160 148 160q79 0 141 -71q61 -68 61 -153z" />
    <glyph glyph-name="_490" unicode="&#x9f4;" horiz-adv-x="407" 
d="M295 1856l85 -13l-493 -477h-253z" />
    <glyph glyph-name="_491" unicode="&#x9f5;" horiz-adv-x="573" 
d="M504 1259l99 -109h-46q-166 0 -237 -128v1q-7 -60 -7 -156q0 -79 27 -197q43 -204 43 -432q0 -95 -119 -211q-117 -116 -214 -116q-30 0 -51 45l38 21q102 9 164 102q52 82 52 191q0 78 -43 231t-43 234q0 133 52 230q14 24 128 185h-361l-98 109h616z" />
    <glyph glyph-name="_492" unicode="&#x9f6;" 
d="M-187 -175l-4 -1q-80 115 -258 122h-75q-253 4 -358 52q-163 75 -163 304q0 82 25 170q9 -5 32 -31q-1 -9 -1 -25v-23q0 -120 32 -182q48 -94 193 -109q62 -6 134 -12l121 -10q158 -17 264 -125v50q0 62 -14 110l43 73l4 -1q-3 -19 -3 -45q0 -48 20 -192q6 -18 8 -125z
" />
    <glyph glyph-name="_493" unicode="&#x9f7;" horiz-adv-x="812" 
d="M603 1150l108 -90v-1111l-108 104v1097z" />
    <glyph glyph-name="_494" unicode="&#x9f8;" horiz-adv-x="1094" 
d="M964 105h7q0 -163 -106 -163q-111 0 -111 237v702q0 59 -23 62q-2 -5 -7.5 -15.5t-16.5 -33t-21 -42.5q-27 -50 -72 -179q-44 -130 -68 -177q-32 -63 -85 -144l-21 -30q-12 -12 -24 -28q-63 -72 -168 -72q-106 0 -106 227v679q0 107 -84 107q18 156 122 156
q101 0 101 -206v-718q0 -65 31 -65h8q6 0 9 -1q1 0 3 -0.5t3 -0.5q23 -7 53 33t67 127q2 0 95 265q68 196 103 242q46 67 134 67q108 0 108 -213v-723q0 -93 69 -93z" />
    <glyph glyph-name="_495" unicode="&#x9f9;" horiz-adv-x="1045" 
d="M974 744q0 -150 -89 -253q-75 -81 -206 -81q-125 0 -201 69q-77 68 -77 193q0 108 83 198q84 85 219 85q109 0 184 -48q87 -60 87 -163zM859 708q0 74 -34 110t-98 33q-88 -7 -141 -77q-53 -68 -53 -157q0 -118 124 -118q60 0 142 71q48 44 60 138z" />
    <glyph glyph-name="_496" unicode="&#x9fa;" horiz-adv-x="1021" 
d="M1703 1798q-5 -92 -48 -153q-13 3 -32 3q-21 2 -41 0q5 73 5 105q-1 29 -21 55q-31 22 -57 22q-22 1 -70 -12q-65 -38 -129 -116q-45 -52 -90 -159l-128 -271q-77 -163 -150 -257q-156 -199 -358 -217q-183 -15 -371 215q-51 64 -93 214q-33 127 -33 195q0 50 27 64
q17 8 34.5 -10.5t34.5 -63.5l37 -115q19 -58 29 -73q18 -45 40 -64q112 -137 264 -137q89 0 171 48q68 34 126 103q45 45 124 153l50 78l64 107q19 31 25 42q88 150 152 223h-1q61 70 110 93q81 36 175 33q18 0 54 -4q86 -11 100 -101zM731 1363q0 -63 -45 -102
q-44 -38 -106 -38q-145 0 -138 145q7 142 138 145q151 4 151 -150z" />
    <glyph glyph-name="_497" unicode="&#x9fb;" horiz-adv-x="1348" 
d="M1182 -50l86 -116q-4 0 -13 2t-12 2q-31 5 -94.5 15t-96.5 16q-255 52 -446 156q-266 146 -367 368q-14 33 -14 62q0 107 124 197q115 84 251 104l122 -127l-165 -23h1q-153 -74 -153 -182q0 -42 40 -79q330 -309 737 -395z" />
    <glyph glyph-name="_402" unicode="&#x200b;" 
 />
    <glyph glyph-name="glyph99" unicode="&#x200c;" 
d="M3 -462h-118v2266h118v-2266z" />
    <glyph glyph-name="glyph100" unicode="&#x200d;" 
d="M337 1717l-255 -249l128 -127l127 -127l-83 -84l-195 198v-1788h-118v1788l-120 -122l-75 -76l-83 84l255 254l-189 187l-66 64l83 84l254 -257l84 85l170 172q20 -20 29 -31l26 -28z" />
    <glyph glyph-name="_387" unicode="&#x2013;" horiz-adv-x="791" 
d="M680 545h-566v131h566v-131z" />
    <glyph glyph-name="_388" unicode="&#x2014;" horiz-adv-x="1840" 
d="M1728 676v-131h-1613v131h1613z" />
    <glyph glyph-name="_389" unicode="&#x2018;" horiz-adv-x="523" 
d="M416 1218q0 -59 -41 -97q-40 -40 -96 -40q-74 0 -117 58t-43 131q0 199 217 308l18 -38q-75 -58 -106 -100q-32 -52 -34 -132q59 36 88 36q45 0 81 -41q33 -39 33 -85z" />
    <glyph glyph-name="_390" unicode="&#x2019;" horiz-adv-x="523" 
d="M416 1389q0 -95 -64 -177q-63 -84 -155 -125l-18 37q134 87 143 244q-58 -46 -92 -46l-40 7q-71 45 -71 115q0 53 41 96q39 42 95 42q71 0 116 -60q45 -65 45 -133z" />
    <glyph glyph-name="_391" unicode="&#x201a;" horiz-adv-x="526" 
d="M380 -59q0 -92 -64 -175q-61 -84 -155 -127l-18 38q134 87 143 243q-59 -47 -92 -47l-40 7q-71 44 -71 117q0 55 40 95q45 42 96 42q71 0 116 -58q45 -62 45 -135z" />
    <glyph glyph-name="_392" unicode="&#x201c;" horiz-adv-x="950" 
d="M821 1218q0 -59 -41 -97q-40 -40 -96 -40q-75 0 -118 58q-42 57 -42 131q0 99 60 183q62 81 159 125l18 -38q-87 -64 -106 -101q-28 -52 -35 -138q46 43 87 43q48 0 80 -41h-1q35 -38 35 -85zM416 1218q0 -58 -40 -97q-40 -40 -97 -40q-74 0 -117 58t-43 131q0 98 61 183
q62 84 157 125l18 -38q-86 -60 -108 -103q-26 -47 -33 -138q56 45 89 45q45 0 81 -41q32 -40 32 -85z" />
    <glyph glyph-name="_393" unicode="&#x201d;" horiz-adv-x="950" 
d="M821 1391q0 -196 -220 -304l-18 35q135 74 143 238q-9 -6 -26 -16.5t-23 -14.5q-29 -7 -43 -7q-110 0 -110 122q0 56 40 96q39 42 96 42q73 0 118 -58q43 -57 43 -133zM416 1389q0 -93 -63 -177q-61 -83 -156 -125l-18 37q135 89 144 244q-59 -46 -93 -46l-40 7
q-71 45 -71 115q0 53 41 96q39 42 95 42q72 0 117 -60q44 -64 44 -133z" />
    <glyph glyph-name="_394" unicode="&#x201e;" horiz-adv-x="937" 
d="M821 -60q0 -196 -220 -304l-18 35q136 74 143 237q-9 -6 -26 -16.5t-23 -14.5q-29 -7 -43 -7q-110 0 -110 123q0 56 40 96q38 41 96 41q73 0 118 -56q43 -55 43 -134zM416 -62q0 -94 -63 -176q-64 -85 -156 -126l-18 37q135 89 144 244q-59 -47 -93 -47l-40 7
q-71 45 -71 116q0 55 41 96t95 41q71 0 117 -58q44 -64 44 -134z" />
    <glyph glyph-name="_395" unicode="&#x2020;" horiz-adv-x="893" 
d="M123 784q26 23 61 23q28 0 85 -30q65 -27 156 -32q0 75 -10 115q-5 42 -26 103q-26 70 -26 95q0 39 34 69q23 13 45 13q28 0 53 -25v1q24 -20 24 -63q0 -35 -31 -104q-30 -64 -30 -204q107 12 157 35q61 27 90 27q40 0 57 -25q17 -23 17 -54q0 -34 -7 -43
q-19 -34 -60 -34q-32 0 -104 33q-76 34 -150 30q0 -103 9 -173q22 -107 61 -156q-21 -56 -45 -192q-23 -135 -23 -266v-263h-35v182q-6 179 -23 299q-17 131 -53 242l13 16q33 45 49 129q5 25 10 99q4 63 4 83q-82 0 -146 -30q-77 -28 -104 -28q-29 0 -52 21q-19 19 -19 55
q0 33 19 52z" />
    <glyph glyph-name="_396" unicode="&#x2021;" horiz-adv-x="969" 
d="M301 777q38 -20 159 -32q0 101 -32 197q-1 3 -2 8t-3 8q-25 85 -25 100q0 40 22 62q14 16 57 20q32 0 55 -23q22 -25 22 -64q0 -41 -31 -104q-30 -64 -30 -204q88 4 158 35q58 27 89 27q40 0 58 -26q16 -23 16 -53q0 -34 -7 -43q-19 -34 -60 -34q-29 0 -101 33
q-79 36 -153 30q0 -139 11 -187q11 -61 59 -131q-49 -72 -59 -126q-11 -43 -11 -188q75 -4 151 29q67 33 103 33q32 0 52 -23q15 -22 15 -53q0 -35 -21 -56q-23 -23 -53 -23q-33 0 -85 26q-62 27 -162 37q0 -142 32 -211q26 -56 31 -97q0 -42 -26 -65q-32 -22 -53 -22
q-23 0 -54 20q-26 20 -26 65q0 23 31 113q32 99 32 197q-84 0 -147 -33q-53 -30 -101 -30q-32 0 -53 21q-20 20 -20 58q0 28 17 51q29 23 56 23q35 0 104 -28q59 -24 106 -29l38 -3q0 129 -17 197v-1q-22 87 -58 119q34 52 51 101q17 52 24 216q-82 0 -146 -30
q-75 -28 -102 -28q-38 0 -56 23q-17 23 -17 51q0 34 20 54q23 23 60 23q19 0 82 -30z" />
    <glyph glyph-name="_397" unicode="&#x2022;" horiz-adv-x="784" 
d="M211 345q-72 80 -72 181q0 103 72 178q73 73 176 73q98 0 174 -73q72 -75 72 -178q0 -107 -74 -181h1q-66 -75 -173 -75q-103 0 -176 75z" />
    <glyph glyph-name="_398" unicode="&#x2026;" horiz-adv-x="1668" 
d="M1405 -87q-42 0 -69.5 27t-27.5 71t27.5 72t69.5 28q37 0 66 -30t29 -70t-28 -69t-67 -29zM915 11q0 -41 -27.5 -69.5t-66.5 -28.5q-44 0 -71.5 29t-27.5 69q0 41 29.5 70.5t69.5 29.5t67 -29.5t27 -70.5zM331 11q0 -39 -28 -68.5t-67 -29.5q-42 0 -69 29.5t-27 68.5
q0 42 29 71t67 29q40 0 67.5 -30t27.5 -70z" />
    <glyph glyph-name="_399" unicode="&#x2030;" horiz-adv-x="1992" 
d="M590 1080q69 -60 172 -60q73 0 123 30q3 3 15 12l145 129h72l-503 -863l-250 -427h-77l675 1153q-25 -25 -87 -55q-58 -23 -132 -23h-21q-52 3 -94 27q0 -7 2 -13v-2q1 0 1 -2q3 -8 3 -15v-2q1 -2 1 -4q1 -3 1 -13v-12q0 -166 -86 -293q-83 -131 -206 -131q-76 0 -141 66
q-57 58 -63 185q0 140 101 260q100 113 230 113q51 0 119 -60zM1778 459l-3 3q43 -65 43 -153q0 -134 -78 -275q-35 -64 -90 -99.5t-119 -35.5q-85 0 -149 67q-62 62 -62 179q0 136 95 255q101 120 229 120q88 0 134 -61zM1167 486q66 -49 66 -175q0 -158 -83 -280
q-85 -129 -199 -135q-87 0 -152 65q-64 67 -64 184q0 143 105 260q106 115 226 115q56 4 101 -34zM1710 62q70 112 70 249q0 54 -18 97q-30 61 -94 61q-94 0 -160 -144q-65 -154 -65 -248q0 -57 25 -95q20 -33 81 -40q91 0 161 120zM883 -17v-1q23 -38 75 -38
q50 0 94.5 33.5t77.5 94.5q63 124 63 234q0 101 -43 140v-1q-32 27 -66 27q-40 0 -83 -40t-74 -102q-69 -157 -69 -253q0 -54 25 -94zM527 679q68 116 68 249q0 63 -6 76q-7 7 -31 24q-2 1 -9.5 6t-11.5 7q-1 1 -3 2t-3 2v-1q-4 2 -16 13v-1q-11 7 -36 35q-1 1 -2.5 3
l-1.5 2q-49 -21 -91.5 -65t-67.5 -105q-54 -132 -54 -230q0 -68 29 -103q20 -27 74 -33q88 0 162 119z" />
    <glyph glyph-name="_400" unicode="&#x2039;" horiz-adv-x="675" 
d="M476 20q-10 7 -20 20h1l-110 104l-110 105v-1q-1 1 -2.5 2t-5 4t-8.5 9v-1l-81 70q19 25 143 136q135 124 166 160l30 29q11 7 15 12q14 10 15 12q7 0 11.5 -8.5t4.5 -12.5q-9 -8 -39 -66q-18 -35 -38 -68q-39 -44 -66 -83q-4 -6 -13 -17l-16 -19q1 2 5 9
q-24 -24 -48 -62q-8 -13 -11 -17q72 -94 148 -203t76 -118q0 -4 -5 -12t-12 -8q-4 0 -7.5 1.5t-5.5 3.5t-5.5 6t-4.5 5q-1 2 -7 8z" />
    <glyph glyph-name="_401" unicode="&#x203a;" horiz-adv-x="675" 
d="M238 170l43 58q16 22 25 33l49 64q8 8 9 11l-16 19l-82 108h1l-8 8v2q-1 1 -3.5 5t-4.5 6q-34 45 -36 47l-18 24q-58 89 -58 106q0 10 5.5 15t10.5 5q4 0 14 -10l4 -4l6 -7v1l5 -5l5 -5t8 -7.5t7 -7.5l9 -8q121 -123 194 -187q78 -71 118 -111l-7 -1l-4 -4v1q-2 -2 -4 -3
l-1 -1l-82 -73l-191 -175h1q-1 -2 -12 -13q-16 -18 -26 -28l-20 -21v1l-12 -12l-10 -5q-8 0 -12 6q-3 3 -3 13q49 93 96 155z" />
    <glyph glyph-name="_405" unicode="&#x25cc;" horiz-adv-x="1073" 
d="M362 259l-68 -99q-94 58 -153 153l98 68q46 -76 123 -122zM869 381l100 -68q-58 -96 -154 -153l-67 99q72 41 121 122zM1033 558q0 -49 -11 -107l-118 20q10 39 10 87q0 47 -11 87l119 21q11 -61 11 -108zM205 471l-116 -20q-12 51 -12 107t11 108l118 -21
q-10 -39 -10 -87q0 -42 9 -87zM294 954l68 -95q-74 -45 -123 -123l-98 67q57 94 153 151zM662 1024l-20 -115q-45 9 -87 9q-51 0 -87 -9l-20 114q60 15 106 15q40 0 108 -14zM969 803l-100 -67q-52 83 -121 123l67 95q96 -59 154 -151zM642 209l20 -116q-57 -12 -108 -12
q-53 0 -106 12l20 117q45 -12 87 -12q41 0 87 11z" />
    <glyph glyph-name="NULL" horiz-adv-x="702" 
 />
    <glyph glyph-name="CR" horiz-adv-x="1513" 
d="M742 3992l34 -35h-66zM710 -1540h66l-34 -32z" />
    <glyph glyph-name="glyph45" horiz-adv-x="1325" 
d="M1285 1259l100 -109h-568v-101q172 -13 288 -117q105 -99 123 -262q7 -73 -22 -118q-35 -51 -102 -47q49 -71 65 -192q2 -22 2 -31q0 -58 -22 -99q-35 -65 -106 -65q-54 0 -83 23q-46 40 -38 90q24 91 97 91q47 0 77 -31q10 90 -73 158q-84 71 -206 63v-575l-59 60
q-41 41 -171 135q-147 82 -285 86l-136 170l181 110q-32 39 -152 49l-147 177q311 232 672 319v107h-733l-99 109h1397zM720 667v215q-279 -91 -469 -228q90 -41 171 -107l145 70q89 39 153 50zM720 99v412q-146 -52 -373 -190q106 -22 230 -102q91 -57 143 -120zM1111 705
q20 0 34 -7v-3l3 2l-3 1q7 67 -65 136t-219 69q-9 0 -39 -2h-5q-1 -40 -1 -104v-73q0 -59 -1 -59q103 -7 206 -86q-4 17 -4 34q0 92 94 92z" />
    <glyph glyph-name="glyph46" horiz-adv-x="1087" 
d="M1052 1259l99 -109h-506q10 -18 21 -58q140 -4 255 -104q110 -98 107 -244q0 -55 -43 -107q-44 -53 -99 -46q-114 15 -114 117q0 37 27 65.5t64 28.5q47 0 93 -48q6 16 6 33q0 72 -86 130q-79 48 -157 48q-16 0 -38 -5q0 -184 -103 -332l-217 -268q-54 -74 -47 -122
q16 -102 124 -102q102 0 202 36q113 44 158 116q-128 11 -128 134q0 58 35 93.5t92 35.5q164 0 164 -155q0 -11 -2 -35q-13 -132 -180 -227q-113 -63 -277 -90q-27 -5 -47 -5q-97 0 -155.5 49.5t-74.5 142.5q-15 104 124 258h-1q31 38 39 50q-12 102 -160 102q-39 0 -56 -8
q-18 42 -118 207q56 67 244 149q167 75 276 93q-9 27 -34 68h-552l-99 109h897q10 29 10 55q0 89 -118 89q-57 0 -154 -7q-102 -6 -154 -6q-153 0 -224 33q-101 52 -101 158q0 66 35 148l38 -30q-21 -39 -21 -80q0 -67 76 -86q78 -19 258 -18h44q145 0 219 -17
q156 -37 156 -162q0 -35 -11 -77h214zM595 948l-2 2v-3q1 1 2 1zM437 590q155 206 156 357q-65 -15 -196 -66q-129 -49 -181 -88q168 -60 221 -203z" />
    <glyph glyph-name="glyph47" horiz-adv-x="1707" 
d="M1662 1259l111 -109h-1790l-112 109h1791zM1634 597q0 -65 -28 -117q-60 -111 -167 -111q-58 0 -105 32q-53 35 -53 94q0 128 112 128q25 0 49 -7q51 -15 67 -63q32 12 32 44q0 82 -88 122q-48 24 -128 24q-83 0 -169 -81q-27 -26 -58 -71q67 -88 67 -208
q0 -160 -109 -263q-108 -102 -267 -90q-274 18 -496 355q-187 282 -235 595l60 -36q55 -240 225 -464q199 -259 416 -268q262 -10 309 169q5 28 -19 66q-24 40 -53 48q-68 -48 -113 -48q-136 0 -136 144q0 60 35.5 98t92.5 38q94 4 150 -47q51 51 51 127q0 70 -50 114
q-50 45 -115 45q-88 0 -196 -53q-115 -55 -150 -129q76 -55 71 -120q-4 -118 -117 -118q-69 0 -114 46t-40 118q8 159 179 268q152 99 321 95q124 0 208 -88q92 -95 85 -191q0 -8 -2 -26q104 77 219 77q132 -3 189 -77q70 -88 70 -171z" />
    <glyph glyph-name="glyph2" horiz-adv-x="1122" 
d="M913 462v-605l-62 62q-21 40 -72 60q0 1 -2.5 2t-3.5 2v-1q-25 19 -139 19q-45 0 -98 -10q-57 -9 -98 -9q-178 0 -245 67q-101 104 -101 214q0 13 2 43q14 127 58 194l41 -32q-29 -118 -29 -157q0 -198 251 -198q32 0 79 5q56 6 80 6q97 0 144 -31q20 -6 99 -76v367
q0 158 -88 158q-70 0 -135 -62h1q-10 -19 -47 -83q3 1 9 1h9q39 0 66 -26.5t27 -62.5q0 -51 -49 -82q-25 -16 -63 -16q-57 0 -92 39t-32 109q3 137 159 234q27 17 53 27q-38 21 -86 41q-98 40 -227 40h-31q-10 0 -32 -2l-117 172q60 58 295 138q153 52 283 66v75h-733
l-99 109h1235l100 -109h-406v-77q279 -49 288 -249q2 -67 -26 -103q-35 -53 -100 -53q-31 0 -45 17h1q-33 30 -33 67q0 79 79 79q11 0 56 -27q6 57 -64 115q-45 39 -112 39q-26 0 -44 -7v-343q10 -5 29 -24q67 -91 67 -122zM705 638l15 2v311q-35 -4 -160 -39
q-163 -49 -227 -82q194 -46 372 -192z" />
    <glyph glyph-name="glyph3" horiz-adv-x="1677" 
d="M1166 394q0 -158 -106 -255q-46 -44 -98 -65q12 -25 28 -53v-464l-61 45q-114 149 -372 173l-94 162q74 86 185 149q-179 77 -333 311q-184 282 -229 576l54 -31q59 -254 233 -472q96 -114 199 -177.5t200 -70.5q4 0 16 -0.5t16 -0.5q233 0 275 168q7 27 -19 71
q-28 41 -55 48q-69 -50 -112 -50q-131 0 -131 140q0 126 124 129q92 3 147 -48q53 56 53 131q0 69 -49 115q-50 44 -115 44q-93 0 -196 -52q-124 -60 -150 -131q74 -57 72 -116q-4 -114 -111 -114q-70 0 -110 46q-41 49 -40 113q7 157 174 261q151 96 317 92q118 -1 199 -87
q89 -93 85 -185q0 -3 -1 -11t-1 -11q-2 -8 -2 -11q11 11 27 19q106 61 194 60q126 0 181 -73q70 -87 70 -166q0 -59 -30 -114q-59 -104 -162 -104q-52 0 -102 29q-48 33 -48 89q0 123 107 123q29 0 46 -7q19 -8 43 -32q22 -22 22 -32q38 6 38 48q0 59 -60 108
q-50 39 -156 39q-86 0 -171 -83q-5 -3 -55 -70q64 -88 64 -203zM1631 1259l102 -109h-1746l-100 109h1744zM891 -277v329q-11 -3 -44 -5l-45 -24l-53 -26q-98 -50 -134 -91q145 -34 276 -183z" />
    <glyph glyph-name="glyph4" horiz-adv-x="1348" 
d="M1303 1259l100 -109h-575v-115q185 -20 309 -167q114 -139 107 -303q-1 -84 -51 -146q-50 -60 -132 -62q-56 -3 -95 39q-37 38 -35 99q2 57 42 90.5t96 29.5q52 -6 98 -68q5 24 5 56q0 129 -118 211q-119 83 -226 76v-953l-68 38q-8 53 -130 126q-125 74 -181 74
q-38 0 -60 -19q19 -35 19 -71q0 -119 -105 -139q-58 -9 -112 27q-53 38 -53 98q0 210 226 210q192 0 366 -194v160q-41 63 -157 167v-1q-125 107 -314 107h-18q-11 0 -17 -1l-157 194q107 107 266 194q137 75 397 135v108h-743l-99 109h1415zM730 327v553l-64 -15l-64 -14h1
q-87 -25 -151 -64q-153 -80 -184 -121q134 -25 278 -139q147 -110 184 -200z" />
    <glyph glyph-name="glyph51" horiz-adv-x="1487" 
d="M1441 1259l98 -109h-229v-1213l-62 62q-57 112 -190 190q-105 62 -181 69q-38 2 -48 2q-28 0 -41 -4q5 -59 -36 -94t-95 -35q-65 0 -104 38t-39 98q0 105 99 133q-27 47 -57 77q-122 125 -318 131l-103 176q79 66 221 148q171 96 319 143v79h-688l-99 109h1553zM1211 142
v1008h-437q-2 -71 0 -82q268 -30 327 -329q5 -27 5 -86q0 -108 -67 -141q-28 -11 -56 -11q-44 0 -74 30t-30 75q0 43 30 73.5t74 30.5q24 0 44 -11q-12 108 -81 174q-35 32 -98 46q-49 14 -74 10v-533q121 -14 263 -101q96 -59 174 -153zM674 398h1v525q-98 -34 -185 -83
q-57 -30 -151 -95q191 -82 306 -287q23 -40 29 -60z" />
    <glyph glyph-name="glyph6" horiz-adv-x="1364" 
d="M849 890v-953l-60 61q0 2 -0.5 3t-0.5 3q-6 32 -12 48q-27 53 -68 96q-49 52 -64 52q-39 0 -53 -56q-19 -72 -19 -80l-55 -21q-63 123 -72 135q-31 41 -81 58q-26 10 -54 10q-47 0 -88 -35v1q-44 -41 -44 -80q0 -32 45 -37l6 6q35 37 79 37q93 0 93 -102
q0 -101 -121 -101q-56 0 -103 40q-61 55 -73 152q-2 24 -2 35q0 85 49 148q58 76 143 76q124 0 224 -195q33 55 49 76q31 41 84 37q13 0 100 -127v140q-9 12 -19 22l-18 18q-24 24 -119 79q-151 84 -326 84h-25q-16 0 -24 -1l-157 194q107 107 266 194q192 104 422 135v108
h-764l-99 109h1432l100 -109h-571v-115q186 -20 310 -167q115 -138 108 -303q-5 -85 -52 -146q-50 -60 -131 -62q-56 -3 -95 39q-38 38 -36 99q2 57 42 90.5t96 29.5q51 -6 97 -68q5 24 5 56q0 129 -118 211q-119 83 -226 76zM751 393v487q-76 -16 -153 -29
q-114 -27 -173 -64q-112 -60 -161 -120q143 -13 283 -97q125 -76 204 -177z" />
    <glyph glyph-name="glyph7" horiz-adv-x="1173" 
d="M1135 1259l99 -109h-517q4 -4 35 -65q121 -4 223 -60q124 -75 123 -233q0 -54 -42 -107q-44 -53 -99 -46q-115 15 -115 115q0 32 30 65q33 30 68 30q40 0 88 -49q6 20 6 35q0 69 -81 110q-57 30 -123 30q-28 0 -59 -6q0 -193 -121 -341q-44 -51 -106 -101
q-66 -51 -80 -66q-75 -87 -77 -117q24 -104 156 -104q21 0 153 27q51 12 96 40q47 30 55 54q-36 6 -62 36q-24 30 -24 65q0 58 35.5 94.5t94.5 36.5q53 0 93 -37v1q55 -47 44 -133q-10 -84 -110 -165v-431l-50 46v-1q-72 19 -143 19q-36 1 -182 -17q-97 -15 -180 -15
q-45 0 -77 6q-113 23 -180 109q-69 89 -69 218q0 96 31 180l42 -43q-12 -45 -12 -89q0 -97 54 -156q54 -62 151 -63q33 0 117 7q120 9 189 12q117 4 210 -98v256q-129 -56 -276 -56q-98 0 -170 57q-72 58 -77 137q-7 98 97 204q60 62 127 115q-94 66 -213 66q-43 0 -65 -15
q-5 9 -27 44t-38 61q-7 10 -15 24t-19 32t-18 29q81 75 273 140q113 38 247 45q-8 24 -35 68h-623l-99 109h1009q15 23 15 70q0 115 -195 120l-243 -12q-26 -2 -39 -2h-37q-87 0 -149 11q-99 19 -153 90q-54 75 -54 170q0 81 37 139l38 -21q-13 -51 -17 -102q-5 -45 38 -85
q44 -38 119 -47q21 -3 73 -3q55 0 188 5q82 3 139 3q70 0 102 -5q218 -48 243 -331h133zM576 710q87 94 89 252q-73 3 -196 -34q-129 -39 -194 -87q76 0 174 -50q79 -39 127 -81zM667 962l-2 2v-2h2z" />
    <glyph glyph-name="glyph8" horiz-adv-x="1569" 
d="M1537 1259l100 -109h-592v-203q32 5 96 5q128 0 226 -81q55 -44 84 -94q34 -60 30 -119q-3 -101 -40 -160q-29 -47 -76 -65q-33 -13 -68 -13q-53 0 -92 36q-37 34 -37 88q0 45 30.5 76.5t74.5 31.5q67 0 115 -73q10 33 10 69q0 83 -50 127q-56 47 -165 47q-88 0 -132 -16
v-851l-65 42q0 29 -5 76q-2 18 -12 61q-10 39 -10 44q-31 105 -115 184q-68 67 -133 76q-25 -50 -66 -75q-41 -26 -95 -26q-53 0 -95 45q-42 44 -42 96q0 78 45 116q38 32 114 32q16 0 40 -2q13 29 13 62q0 69 -61 127q-59 56 -129 56q-35 0 -48 -25q9 -49 -28 -96
q-41 -47 -97 -53q-72 -5 -123 36q-52 43 -52 120q0 71 57 120q36 30 114 43q-3 31 -35 75q-28 40 -63 61h-173l-98 109h1648zM952 922v228h-227q-32 -34 -32 -74q0 -66 72 -114q67 -48 135 -48q28 0 52 8zM952 342v458q-117 2 -207 69q-57 44 -98 108q-47 73 -69 173h-306
l66 -134q77 -13 150 -58q66 -42 123 -107q121 -135 134 -292q63 -38 88 -60q41 -32 71 -72q28 -38 48 -85z" />
    <glyph glyph-name="glyph9" horiz-adv-x="1556" 
d="M1527 1259l100 -109h-582v-203q32 5 96 5q128 0 226 -81q109 -85 104 -213q-4 -184 -106 -225q-33 -13 -68 -13q-53 0 -92 36q-37 34 -37 88q0 45 30.5 76.5t74.5 31.5q75 0 114 -59q11 38 11 55q0 71 -38 115q-53 59 -177 59q-88 0 -132 -16v-869l-61 62
q-22 42 -120 110q-112 82 -181 82q-38 0 -60 -19q33 -38 33 -79q0 -51 -39 -90q-36 -39 -96 -39q-62 0 -105 37q-44 38 -44 99q0 80 61 138q62 59 165 59q28 0 75 -7q60 -11 160 -80q71 -50 113 -98v165q0 71 -108 171q-86 83 -173 88q-18 -62 -69 -91q-38 -21 -92 -21
q-52 0 -94 45q-43 46 -43 99q0 65 47 109q46 43 112 38q25 0 40 -3q5 25 5 42q0 74 -48 120q-68 59 -112 59q-31 0 -49 -24q0 -47 -19.5 -84t-56.5 -54q-18 -9 -46 -12q-76 -5 -125 37q-51 42 -51 118q0 71 57 121q42 31 115 43q1 0 -1 3t-6 9.5t-10 15.5h1q-8 9 -66 44
h-173l-98 109h1638zM952 922v228h-220q-32 -34 -32 -74q0 -52 73 -110q64 -52 127 -52q28 0 52 8zM952 414v386q-124 0 -228 113q-39 46 -69 95q-37 63 -60 142h-322q7 -11 23.5 -35t24.5 -35q77 -7 140 -40q66 -35 117 -104q67 -91 115 -269q82 -31 143 -86
q78 -69 116 -167z" />
    <glyph glyph-name="glyph10" horiz-adv-x="1630" 
d="M1581 1259l99 -109h-226v-1199l-68 46q-48 143 -210 246q-86 54 -166 54h-16q-6 0 -16 -2q0 -53 -42 -95q-41 -41 -98 -41q-56 0 -98 39t-42 97q0 57 45 99q47 41 96 41q-12 45 -99 127v-1q-36 30 -104 40q-3 -63 -43 -103t-106 -40q-47 0 -83 36q-35 38 -35 90
q0 88 92 121q37 5 39 5l16 2q5 1 19 3q4 13 4 37q0 72 -49 125q-45 53 -113 45q7 -61 -28 -114t-99 -53q-52 0 -96 32q-44 35 -44 89q0 63 38 106.5t105 62.5q-12 105 -157 105h-109l-98 109h1692zM1354 179v971h-428v-142q45 13 83 13q95 0 169 -79q73 -77 80 -176
q5 -75 -23 -122q-37 -58 -103 -58q-118 0 -112 115q4 83 93 93q34 1 65 -15q2 8 2 11v12q0 103 -147 103q-42 0 -107 -35v-437q43 0 129 -31q99 -34 150 -75q93 -70 149 -148zM827 555v317q-243 41 -324 278h-216l54 -94q103 -21 179.5 -113.5t122.5 -247.5
q119 -57 184 -140zM827 1005v145h-205q-18 0 -27 -30q3 -77 85 -102q48 -13 147 -13z" />
    <glyph glyph-name="glyph11" horiz-adv-x="1523" 
d="M1491 1259l100 -109h-546v-203q32 5 96 5q135 0 226 -76q111 -92 111 -238q0 -67 -31 -126q-33 -61 -82 -79q-33 -13 -68 -13q-63 0 -95.5 32.5t-32.5 85.5q0 63 49 91q25 16 55 16q75 0 114 -52q18 54 18 55q0 174 -222 174q-88 0 -132 -16v-869l-60 60
q-87 101 -196 126q-102 19 -212 20q-33 2 -115 4.5t-121 4.5q-6 1 -18.5 1.5t-18.5 0.5q-98 10 -181 93q-82 82 -82 202q0 98 41 217l46 -31q-24 -52 -24 -125q0 -95 57.5 -147t164.5 -59q220 -9 290 -9q123 0 226 -73q56 -40 104 -112v142q0 117 -110 221q-79 77 -149 80
q-36 -113 -162 -113q-61 0 -99 44t-38 104q0 65 49 108q48 42 114 34q24 0 37 -3q4 8 4 19q0 72 -66 128q-56 50 -97 50q-37 0 -48 -15q-1 -47 -21 -84t-58 -54q-18 -9 -46 -12q-73 -4 -123 37q-52 43 -52 118q0 71 57 121q39 30 115 42q1 1 -18 29q-12 14 -40 27l-20 8
l-21 9h-173l-98 109h1602zM952 415v385q-124 0 -228 113q-93 106 -129 237h-322l64 -71v1q140 -46 247 -165q99 -106 130 -232q41 -13 118 -96q83 -89 120 -172zM952 927v223h-220q-32 -34 -32 -74q0 -52 73 -110q59 -47 127 -47q28 0 52 8z" />
    <glyph glyph-name="glyph12" horiz-adv-x="1343" 
d="M1315 1259l100 -109h-489v-193q18 0 50 6q33 6 48 6q110 -8 185 -87q56 -62 56 -179q0 -96 -50 -176q-31 -46 -94 -46q-117 0 -112 114q5 86 95 95q29 1 65 -16q30 16 30 61q0 91 -121 116q-17 4 -42 4q-54 0 -110 -27v-891l-62 60v-1q-206 140 -398 131l-82 118
q35 45 215 137q86 42 173 76q-23 33 -34 44v-1q-80 68 -164 65q-7 -36 -33 -62h1q-38 -44 -110 -44q-47 0 -92 42q-44 41 -44 96q0 44 30.5 82t74.5 50q14 2 90 2q0 58 1 60q-5 28 -19 43l-6 9q-29 42 -43 50q-8 4 -16 4q-5 0 -31 -8q-4 -43 -44 -74q-41 -29 -80 -29
q-57 0 -97 33q-43 34 -43 90q0 131 140 148q-5 50 -49 72q-38 20 -108 20h-109l-99 109h1427zM826 486v334q-244 28 -312 330h-226l52 -94q118 -48 181 -141q55 -79 55 -175q0 -8 -2 -30q50 -13 125 -72q95 -75 127 -152zM826 940v210h-180q-8 0 -28 -51q1 -48 24.5 -88.5
t65.5 -61.5q35 -14 70 -14q16 0 48 5zM826 79v281q-57 -21 -146 -67q-70 -34 -129 -72q60 -9 153 -55q84 -43 122 -87z" />
    <glyph glyph-name="glyph13" horiz-adv-x="1487" 
d="M1447 1259l83 -109h-220v-1201l-99 99v66q-24 57 -88 102q-65 47 -123 47q-57 0 -185 -59q-82 -40 -116 -58q-53 -23 -125 -37q-14 -3 -30 -3q-67 0 -131 58q-76 70 -88 157l40 34q36 -129 149 -129q69 0 160 49q-30 93 -118 181q-133 142 -318 148l-103 176
q79 66 221 148q171 96 319 143v79h-688l-99 109h1559zM1211 218v932h-439q-6 -61 -6 -82q273 -49 335 -344v1q10 -37 10 -72q0 -158 -128 -152q-46 2 -80 30q-36 28 -34 75q1 99 92 99q37 0 68 -22q-9 111 -79 184q-71 78 -178 81q-2 -107 -3 -316.5t-3 -316.5q85 48 119 57
q23 8 76 8q29 0 61 -3q101 -12 189 -159zM673 395v528q-158 -55 -335 -178q182 -75 303 -287q1 -2 4 -8.5t5 -10.5q3 -5 10 -19.5t13 -24.5z" />
    <glyph glyph-name="glyph14" horiz-adv-x="1176" 
d="M1135 1259l99 -109h-517q4 -4 35 -65q121 -4 223 -60q124 -75 123 -233q0 -56 -42 -107q-44 -53 -99 -46q-115 15 -115 115q0 32 30 65q33 30 68 30q40 0 88 -49q6 20 6 35q0 69 -81 110q-57 30 -123 30q-28 0 -59 -6q0 -193 -121 -341q-44 -51 -106 -101
q-66 -51 -80 -66q-75 -87 -77 -117q24 -104 156 -104q21 0 153 27q51 12 96 40q47 30 55 54q-36 6 -62 36q-23 29 -23 65q0 58 35 94.5t94 36.5q53 0 93 -37v1q55 -47 44 -133q-10 -84 -110 -165v-431l-50 46v-1q-72 19 -143 19q-36 1 -182 -17q-97 -15 -180 -15
q-45 0 -77 6q-113 23 -180 109q-69 89 -69 218q0 96 31 180l42 -43q-12 -45 -12 -89q0 -97 54 -156q54 -62 151 -63q33 0 117 7q120 9 189 12q117 4 210 -98v256q-129 -56 -276 -56q-98 0 -170 57q-72 58 -77 137q-7 98 97 204q60 62 127 115q-94 66 -213 66q-43 0 -65 -15
q-5 9 -27 44t-38 61q-8 13 -25.5 43t-25.5 42q79 75 272 140q113 38 247 45q-8 24 -35 68h-623l-99 109h1009q15 23 15 70q0 115 -195 120l-243 -12q-26 -2 -39 -2h-37q-87 0 -149 11q-99 19 -153 90q-54 75 -54 170q0 81 37 139l38 -21q-13 -51 -17 -102q-5 -45 38 -85
q44 -38 119 -47q21 -3 73 -3q55 0 188 5q82 3 139 3q70 0 102 -5q218 -48 243 -331h133zM1251 -544l18 -75q-209 200 -377 299q-12 -45 -50 -96q-54 -68 -123 -81q-21 -3 -41 -3q-62 0 -105 30q-80 59 -80 136q0 96 70 145q46 33 133 33q71 0 184 -65l82 -56
q190 -139 289 -267zM576 710q87 94 89 252q-73 3 -196 -34q-129 -39 -194 -87q76 0 174 -50q79 -39 127 -81zM667 -420q105 0 149 147q-75 37 -134 37q-119 0 -119 -93q0 -40 30.5 -65.5t73.5 -25.5zM818 -274l-1 3q-1 -1 -1 -2zM667 962l-2 2v-2h2z" />
    <glyph glyph-name="glyph15" horiz-adv-x="232" 
d="M61 759v99h55v-99h-55z" />
    <glyph glyph-name="glyph16" horiz-adv-x="232" 
d="M61 759v99h55v-99h-55z" />
    <glyph glyph-name="glyph17" horiz-adv-x="1216" 
d="M1190 677q0 -93 -124 -181q54 -70 54 -162q0 -88 -73 -173t-236 -97q-38 -2 -51 -2q-579 0 -733 1033l62 -44q59 -303 206 -545q75 -115 186 -189.5t233 -92.5q39 -3 78 1q65 5 76 8q98 34 128 55q40 30 40 78q0 40 -32 80q-49 -33 -97 -33q-53 0 -90 31t-37 84
q0 132 118 132q67 0 114 -59q27 16 59 47q39 36 39 60q0 87 -31 162q-42 89 -140 121l-112 -177q-22 94 -79 177q-75 94 -153 94q-86 0 -148 -38q-37 -25 -49 -87q1 0 102 6q80 5 134 -32q54 -39 54 -115q0 -66 -74 -146h1q-13 -18 -125 -117l-132 112q42 21 73 40
q67 40 86 59q38 34 60 85q-2 29 -48 29q-31 0 -101 -8q-72 -8 -101 -8q-93 0 -99 90q-6 103 92 189q89 74 204 74q208 0 297 -224l82 240q68 -79 198 -280q89 -167 89 -277z" />
    <glyph glyph-name="glyph18" horiz-adv-x="1166" 
d="M999 1150v-1202l-99 138v144q-107 224 -305 271q-29 7 -66 7q-83 0 -135.5 -44t-52.5 -117q24 8 119 30q22 2 32 2q65 0 118 -29q80 -44 69 -128q-13 -95 -162 -197l-80 -55l-112 127q266 119 266 170q0 44 -69 44q-27 0 -114 -42q-80 -40 -122 -40q-105 0 -118 127
q-10 112 115 199q9 7 29 18l-58 76l119 73q31 16 52 31q104 68 104 105q-18 57 -73 57q-40 0 -91 -27q-125 -68 -155 -68q-48 0 -80 54q-31 52 -31 113q0 121 107 204q98 72 240 72q184 0 310 -132q113 -123 158 -296q8 50 8 103q0 55 -11 157t-11 126v201l52 -31
q11 -71 30 -101.5t49 -30.5h89l99 -109h-220zM777 959q-50 75 -140 127q-91 54 -181 54q-55 0 -109 -26q-88 -46 -88 -136q36 9 135 9q80 0 147 -45q78 -56 74 -130q-3 -88 -117 -195q149 -5 282 -118q88 -74 122 -174q2 54 3 163.5t3 163.5q-42 169 -131 307z" />
    <glyph glyph-name="glyph19" horiz-adv-x="1744" 
d="M1716 1259l96 -109h-916v-533q238 237 540 366l197 -144q-91 -186 -120 -301q-35 -138 -35 -323q0 -148 34 -280l-60 29q-68 310 -68 451q0 238 44 362q-147 -49 -281 -159q-127 -109 -195 -241l-156 163v132q0 164 -112 321q-80 119 -219 119q-94 0 -167 -50
q-84 -64 -85 -150q18 1 93 16q57 12 79 12q81 0 148 -46q74 -53 74 -130q0 -88 -25 -138q-39 -76 -160 -197l-112 116q97 79 119 99q92 103 92 166q0 24 -24 42q-26 20 -53 20q-25 0 -110 -50q-79 -51 -121 -51q-56 0 -92 54q-34 52 -34 110q0 138 98 224v-1q97 88 257 88
q235 0 351 -308v321h923z" />
    <glyph glyph-name="glyph20" horiz-adv-x="1504" 
d="M1473 1259l97 -109h-575v-422q96 41 170 63q18 5 36 5q111 0 111 -99q0 -4 -9 -74q-10 -66 -11 -74q-6 -42 -14 -169q-4 -49 -4 -102q0 -25 2 -65q8 -108 59 -273q-91 40 -139 181q-23 69 -23 206q0 139 21 312q-89 -4 -199 -70v-632l-64 64q-182 242 -473 242l-110 146
q59 47 265 166q22 12 282 136q-48 171 -122 268q-149 181 -331 181q-58 0 -113 -26q-89 -44 -89 -136q35 9 125 9q82 0 149 -45q78 -56 74 -130q-4 -130 -253 -303l-107 140q50 23 163 85q117 75 111 124q-17 57 -74 57q-44 0 -90 -27q-125 -68 -154 -68q-48 0 -82 54
q-30 52 -30 113q0 121 108 204q98 72 238 72q92 0 195 -47q85 -42 139 -96q125 -131 166 -287q7 28 7 55q0 32 -16 118q-15 83 -13 148v304l47 -47q0 -80 23.5 -116t74.5 -36h432zM896 122v404q-29 -7 -170 -80q-131 -67 -153 -89q83 -24 178 -92q90 -65 145 -143z" />
    <glyph glyph-name="glyph21" horiz-adv-x="1508" 
d="M999 569v-1025l-61 46q-113 150 -371 174l-95 161q79 94 204 160l114 57q-145 101 -328 101l-110 146q66 54 265 166q55 29 282 136q-47 170 -122 268q-146 181 -331 181q-65 0 -113 -26q-89 -44 -89 -136q34 9 125 9q81 0 149 -45q75 -53 74 -130q-5 -129 -253 -303
l-108 140q66 32 164 85q117 77 111 124q-18 57 -74 57q-41 0 -90 -27q-127 -68 -154 -68q-50 0 -82 54q-30 54 -30 113q0 120 108 204q98 72 238 72q90 0 195 -47q81 -40 139 -96q125 -128 166 -287q7 24 7 55q0 32 -16 118q-15 80 -13 148v304l47 -47q0 -80 24 -116t74 -36
h422l97 -109h-565v-422q79 35 170 63q14 5 36 5q111 0 111 -99q0 -4 -9 -74q-10 -66 -11 -74q-7 -59 -14 -169q-4 -52 -4 -108q0 -21 2 -59q8 -104 59 -273q-90 40 -139 181q-23 69 -23 206q0 150 21 312q-89 -4 -199 -70zM900 195v331q-31 -8 -170 -81q-131 -66 -153 -88
q83 -24 178 -92q53 -38 102 -91q4 2 10.5 5t9.5 5q15 6 23 11zM900 -288v333l-4 4l-4 4l-76 -38q-7 -4 -30 -15t-28 -14q-94 -48 -133 -91q148 -37 275 -183z" />
    <glyph glyph-name="glyph22" horiz-adv-x="1508" 
d="M1013 -175l-4 -1q-80 116 -256 122h-77q-260 6 -358 52q-161 75 -161 304q0 77 24 170q8 -3 32 -31q-1 -9 -1 -25v-23q0 -118 32 -182q23 -43 75 -71t118 -38q11 -2 37.5 -4t36.5 -3l180 -15q158 -14 264 -125v27q-1 1 -5 4.5t-6 5.5l-9 9q-182 242 -473 242l-110 146
q66 54 265 166q55 29 282 136q-47 170 -122 268q-146 181 -331 181q-65 0 -113 -26q-89 -44 -89 -136q34 9 125 9q81 0 149 -45q75 -53 74 -130q-5 -129 -253 -303l-108 140q66 32 164 85q117 77 111 124q-18 57 -74 57q-41 0 -90 -27q-127 -68 -154 -68q-50 0 -82 54
q-30 54 -30 113q0 120 108 204q98 72 238 72q90 0 195 -47q81 -40 139 -96q125 -128 166 -287q7 24 7 55q0 32 -16 118q-15 80 -13 148v304l47 -47q0 -80 24 -116t74 -36h422l97 -109h-565v-422q79 35 170 63q14 5 36 5q111 0 111 -99q0 -4 -9 -74q-10 -66 -11 -74
q-7 -59 -14 -169q-4 -52 -4 -108q0 -21 2 -59q8 -104 59 -273q-90 40 -139 181q-23 69 -23 206q0 150 21 312q-89 -4 -199 -70v-628q1 -4 1 -10t1 -10q5 -43 12 -96zM900 121v405q-31 -8 -170 -81q-131 -66 -153 -88q82 -22 178 -92q92 -67 145 -144z" />
    <glyph glyph-name="glyph23" horiz-adv-x="1166" 
d="M999 1150v-1208l-61 61q-2 20 -42 81q-56 75 -78 94v-1q-98 86 -200 86q-36 0 -59 -20q26 -45 26 -76q0 -48 -31 -88q-32 -42 -79 -45q-61 -4 -112 33q-55 40 -55 112q0 80 65 136q64 55 163 55q64 0 89 -7h-1q182 -46 285 -219v506q-43 170 -132 309q-47 72 -147 127
q-100 54 -193 54q-65 0 -115 -26q-31 -15 -59 -69q-25 -49 -27 -89q26 8 133 8q81 0 148 -45q78 -49 75 -132q-7 -151 -253 -326l-108 139q6 5 57 36l110 69q115 74 107 128q-17 57 -73 57q-44 0 -90 -25q-126 -71 -155 -71q-48 0 -81 56q-30 54 -30 119q0 135 107 222
q98 72 239 72q90 0 195 -47q85 -42 139 -96q118 -124 158 -285q8 50 8 103q0 55 -11 157t-11 126v201l52 -31q11 -71 30 -101.5t49 -30.5h91l100 -109h-223z" />
    <glyph glyph-name="glyph24" horiz-adv-x="1463" 
d="M1410 1259l99 -109h-229v-1213l-61 61q-45 169 -109 227q-65 59 -106 59q-11 0 -20 -4q8 -21 8 -44q0 -54 -46 -94q-46 -41 -101 -41q-69 0 -120 42q-52 43 -52 115t59 119t125 47v239q-27 117 -37 151q-35 93 -69 145q-49 72 -140 127q-90 54 -181 54q-60 0 -110 -26
q-34 -17 -59 -69q-25 -48 -27 -89q26 8 132 8q82 0 150 -45q75 -55 74 -132q-7 -163 -247 -330l-107 139l166 103q49 31 81 75q23 38 20 59q-17 57 -73 57q-44 0 -90 -25q-126 -71 -155 -71q-49 0 -82 56q-31 52 -31 119q0 137 110 222q94 72 238 72q160 0 288 -134
q105 -109 169 -296q5 22 5 41q0 24 -16 111t-16 169v304l47 -47q0 -80 23.5 -116t74.5 -36h415zM1182 224v926h-233v-738q128 -30 233 -188z" />
    <glyph glyph-name="glyph25" horiz-adv-x="1696" 
d="M1657 1259l100 -109h-667v-410l19 -30q22 -36 30 -49q66 -84 159 -105q28 -7 58 -7q55 0 104 33q29 21 59 63q29 46 29 65q0 96 -69 127q2 -50 -28 -84q-29 -38 -79 -38q-28 0 -48 11q-64 28 -64 96q0 56 48 94q34 25 76 25q15 0 30 -3q102 -21 159 -98q60 -73 52 -178
q-8 -106 -88 -167q-67 -48 -145 -48q-10 0 -32 2q-126 14 -203 79q-15 13 -42 40q-16 18 -25 32v-663l-100 100q-40 85 -162 119q-24 6 -194 14q-66 1 -275 19q-168 22 -265 156q-74 105 -74 229q0 126 37 204l41 -39q-12 -47 -12 -93q0 -59 19 -107q65 -183 289 -207
q145 -2 347 -19q167 -28 250 -186q1 79 3.5 230.5t3.5 230.5q1 155 -99 321q-120 181 -302 205q-19 3 -40 3q-79 0 -146 -43q-90 -59 -78 -154q59 22 149 22q89 0 141 -40q69 -53 65 -138q-5 -93 -26 -157q-37 -86 -135 -178l-122 137q191 138 195 244q2 48 -47 48
q-39 0 -127 -38q-114 -50 -135 -49q-125 17 -120 167q5 144 110 221q122 84 251 80q344 -17 486 -427q-9 83 -13 123q-14 143 -14 222v301l47 -47q0 -80 23.5 -116t74.5 -36h521z" />
    <glyph glyph-name="glyph26" horiz-adv-x="1541" 
d="M1504 1259l98 -109h-512v-382q68 56 171 51q63 -1 108 -50q23 -23 62 -101q-34 -339 -34 -403q0 -182 59 -350l-119 72q-29 72 -29 183q3 392 3 433q-1 38 -8 55.5t-18 13.5q-20 5 -36 5q-79 0 -159 -71v-669l-100 100q-42 86 -162 119q-24 6 -194 14q-66 1 -275 19
q-168 22 -265 156q-74 105 -74 229q0 126 37 204l41 -39q-12 -47 -12 -93q0 -59 19 -107q65 -183 289 -207q180 -7 347 -19q167 -28 250 -186q1 79 3.5 230.5t3.5 230.5q2 156 -100 321q-118 181 -301 205q-21 3 -40 3q-79 0 -146 -43q-90 -59 -78 -154q59 22 149 22
q89 0 141 -40q69 -53 65 -138q-5 -93 -26 -157q-36 -84 -135 -178l-122 137q191 138 195 244q2 48 -47 48q-39 0 -127 -38q-114 -50 -135 -49q-125 17 -120 167q5 144 110 221q122 84 251 80q344 -17 486 -427q-9 83 -13 123q-14 143 -14 222v301l47 -47q0 -80 23.5 -116
t74.5 -36h368z" />
    <glyph glyph-name="glyph27" horiz-adv-x="1180" 
d="M1124 1259l107 -109h-230v-1224l-69 69q-3 14 -16 81q-14 40 -66 92q-52 54 -66 54q-42 0 -55 -55q-19 -77 -18 -84l-61 -21l-41 81q-48 92 -110 115q-79 26 -141 -27q-43 -37 -43 -75q0 -29 41 -32q36 43 88 43q98 0 98 -107q0 -46 -34.5 -76t-92.5 -30q-56 0 -105 41
q-64 52 -73 155q-12 98 52 180q65 83 144 83q118 0 219 -191q49 75 50 76q31 36 84 34q21 0 107 -119v438q0 121 -123 266q-163 196 -340 196q-56 0 -111 -20q-79 -30 -84 -128q38 9 71 9h57q83 0 154 -48q77 -52 73 -134q-5 -124 -257 -300l-115 138q20 9 172 105
q112 71 107 100q-13 58 -71 58q-42 0 -89 -26q-125 -72 -157 -72q-49 0 -84 56q-34 56 -34 119q0 124 113 207q96 75 240 75q183 0 340 -166q107 -113 165 -269q12 31 -4 160q-23 163 -23 179v317l55 -55q0 -159 93 -159h83z" />
    <glyph glyph-name="glyph29" horiz-adv-x="232" 
d="M61 759v99h55v-99h-55z" />
    <glyph glyph-name="glyph30" horiz-adv-x="1171" 
d="M990 1150v-1195l-68 36q-8 14 -19 33.5t-14 24.5q-33 44 -82 81q-122 85 -198 85q-34 0 -60 -20q27 -33 27 -75q0 -50 -37 -93q-36 -42 -84 -42q-67 0 -112 39q-47 40 -47 110q0 83 61 135q65 53 169 53q196 0 365 -189v200q-61 80 -199 134q-132 50 -254 50
q-28 0 -60 -5l-148 155q71 71 227 202q-39 -10 -82 -10q-19 0 -36 3q-189 39 -200 197q-2 35 39 91h-191l-99 109h1246l100 -109h-244zM891 426v724h-429q-69 0 -122 -45v1q-26 -23 -26 -66q0 -58 39 -78q24 -14 113 -27q71 -8 112 33l2 2q3 2 8 6l10 8v-1l43 35l110 -109
q-18 -8 -155 -131q-72 -60 -127 -120q211 -19 422 -232z" />
    <glyph glyph-name="glyph31" horiz-adv-x="232" 
d="M61 759v99h55v-99h-55z" />
    <glyph glyph-name="glyph32" horiz-adv-x="232" 
d="M61 759v99h55v-99h-55z" />
    <glyph glyph-name="glyph33" horiz-adv-x="1262" 
d="M1235 1259l99 -109h-301q36 -60 36 -120q0 -126 -162 -125q-83 3 -172 88q-52 55 -129 157h-346q59 -46 97 -122q143 1 220 -32q151 -68 191 -242q57 -1 119 -27q117 -48 180 -141.5t63 -224.5q0 -65 -46 -117q-45 -51 -110 -51q-45 0 -79 31t-34 76q0 98 105 98
q49 0 94 -54q7 26 7 40q0 92 -94 168q-93 76 -201 66v-667l-64 45q-216 302 -432 297l-148 175q275 175 539 284q-4 157 -145 186q-27 5 -50 5q-62 0 -81 -39q5 -22 5 -37q0 -76 -52 -119v1q-35 -32 -108 -32q-48 0 -89 37q-41 41 -41 86q0 70 51 121q46 44 108 50
q-7 47 -70 95q-62 46 -117 44h-91l-99 109h1347zM995 1080q0 34 -24 70h-297q121 -145 210 -145q111 0 111 75zM670 129v466q-188 -76 -344 -182q186 -50 344 -284z" />
    <glyph glyph-name="glyph34" horiz-adv-x="1267" 
d="M772 -45l10 -138q-84 123 -262 129h-76q-262 6 -358 52q-162 74 -162 304q0 77 24 170q8 -3 32 -31q-1 -9 -1 -25v-23q0 -118 32 -182q24 -43 75.5 -71t117.5 -38q11 -2 37.5 -4t36.5 -3q5 0 71.5 -5.5t109.5 -9.5q158 -14 264 -125v31q-2 2 -7 5t-8 5q-218 303 -432 297
l-148 175q275 175 539 284q-4 157 -145 186q-28 5 -50 5q-61 0 -81 -38q5 -16 5 -38q0 -77 -52 -119v1q-35 -32 -108 -32q-47 0 -89 36q-41 39 -41 87q0 72 51 121q46 44 108 50q-7 47 -70 95q-62 46 -117 44h-91l-99 109h1347l99 -109h-301q36 -62 36 -120
q0 -126 -162 -125q-83 3 -172 88q-36 38 -129 157h-346q57 -46 96 -122q140 0 221 -32q150 -62 191 -242q57 -1 119 -27q117 -48 180 -141.5t63 -224.5q0 -64 -46 -117q-45 -51 -110 -51q-46 0 -79.5 31t-33.5 76q0 98 105 98q49 0 95 -55q6 18 6 41q0 95 -94 168
q-83 68 -175 68q-8 0 -26 -2v-663zM670 129v466q-195 -80 -344 -182q186 -50 344 -284zM995 1080q0 34 -24 70h-298q116 -145 211 -145q111 0 111 75z" />
    <glyph glyph-name="glyph35" horiz-adv-x="2322" 
d="M868 503q-9 -113 -83 -173q-86 -69 -189 -69q-144 0 -227 53q-174 109 -268 350q-72 186 -70 361l39 -32q72 -361 289 -529q86 -56 180 -56q216 0 241 139q3 17 3 33q0 66 -45 112l-6 8q-2 2 -5 5.5t-6 6.5q-25 -51 -89 -93t-124 -40q-153 4 -220 181q-12 34 -12 87
q0 96 48 201q-5 37 -62 71q-69 35 -157 31h-112l-102 109h168q244 0 324 -132q27 35 94 86q75 46 184 46h1635l99 -109h-582v-203q32 5 96 5q128 0 227 -81q108 -85 103 -213q-5 -184 -105 -225q-35 -13 -69 -13q-51 0 -90 36t-39 88q0 44 31 76t74 32q70 0 115 -73
q11 33 11 69q0 174 -215 174q-87 0 -132 -16v-851l-66 42q0 29 -5 76q-2 18 -12 61q-9 41 -9 44q-33 107 -115 184q-70 67 -133 76q-51 -101 -160 -101q-54 0 -96 45q-42 44 -42 96q0 148 158 148q12 0 38 -2h3q12 32 12 62q0 68 -60 127q-59 56 -131 56q-29 0 -47 -25
q9 -49 -28 -96q-41 -47 -95 -53q-74 -5 -125 36q-52 43 -52 120q0 73 56 120q36 30 117 43q-3 33 -36 75t-63 61h-84q16 -33 16 -74q0 -74 -65 -121q-86 -60 -163 -60q-117 3 -223 64q-29 -63 -29 -172q0 -35 21 -69q20 -32 54 -32q132 0 211 148q203 -86 203 -291
q0 -10 -2 -40zM1721 342v458q-127 0 -221 92.5t-143 257.5h-314q46 -102 62 -134q153 -28 275 -165q121 -137 133 -292q135 -84 208 -217zM1721 922v228h-229q-31 -33 -31 -74q0 -65 73 -114q66 -48 136 -48q27 0 51 8zM721 1073q3 49 -27 71t-86 18q-45 -3 -92 -44
q-42 -37 -60 -83q18 -24 71 -33q26 -5 85 -13q39 -3 74 22q35 26 35 62z" />
    <glyph glyph-name="glyph36" horiz-adv-x="2354" 
d="M2329 1259l99 -109h-535v-203q32 5 96 5q136 0 227 -76q110 -92 110 -238q0 -67 -31 -126q-32 -60 -81 -79q-33 -13 -69 -13q-63 0 -95.5 32.5t-32.5 85.5q0 63 49 91q25 16 55 16q75 0 114 -52q3 11 6 20t5 15.5t3.5 11t2.5 6.5v2q0 174 -221 174q-87 0 -131 -16v-869
l-67 66q-78 94 -189 120q-102 19 -212 20q-46 2 -249 10q-4 0 -12.5 0.5t-12.5 0.5q-98 10 -181 93q-82 82 -82 202q0 95 42 217l45 -31q-23 -54 -23 -125q0 -96 57 -147.5t164 -58.5q220 -9 290 -9q120 0 226 -73q52 -40 104 -112v142q0 115 -109 221q-77 75 -150 80
q-36 -113 -161 -113q-62 0 -100 44t-38 104q0 65 48 108q48 42 115 34q25 0 38 -3q3 7 3 19q0 70 -65 128q-60 50 -99 50q-36 0 -47 -15q-2 -104 -78 -138q-18 -9 -47 -12q-73 -4 -123 37q-51 42 -51 118q0 71 55 120q40 32 116 44q0 1 -5 8q-2 2 -6.5 9t-6.5 11
q-19 17 -41 27q-2 1 -5 2t-4 2q-4 2 -14.5 6t-16.5 7h-163q16 -33 16 -74q0 -74 -65 -121q-84 -60 -163 -60q-117 3 -223 64q-29 -63 -29 -172q0 -35 21 -69q21 -32 54 -32q132 0 211 148q203 -86 203 -291q0 -10 -2 -40q-9 -113 -83 -173q-86 -69 -189 -69q-144 0 -227 53
q-176 110 -267 350q-73 188 -71 361l39 -32q72 -361 289 -529q86 -56 180 -56q216 0 241 139q3 17 3 33q0 65 -44 112q-1 2 -3 4.5t-4 3.5q-2 2 -5 5.5t-6 6.5q-25 -51 -89 -93t-124 -40q-153 4 -220 181q-12 34 -12 87q0 96 48 201q-5 37 -62 71q-69 35 -157 31h-112
l-102 109h168q244 0 324 -132q27 35 94 86q75 46 184 46q51 0 90 -15l-14 15h1592zM1800 415v385q-126 0 -229 113q-91 103 -127 237h-324q14 -14 66 -71v1q139 -47 247 -165q99 -108 129 -232q42 -14 119 -96q85 -93 119 -172zM1800 927v223h-221q-31 -33 -31 -74
q0 -53 73 -110q63 -47 127 -47q28 0 52 8zM721 1073q3 49 -27 71t-86 18q-45 -3 -92 -44q-42 -37 -60 -83q18 -24 71 -33q26 -5 85 -13q39 -3 74 22q35 26 35 62z" />
    <glyph glyph-name="glyph37" horiz-adv-x="1887" 
d="M868 503q-9 -113 -83 -173q-88 -69 -189 -69q-142 0 -228 53q-173 110 -267 350q-73 188 -71 361l39 -32q75 -362 289 -529q86 -56 181 -56q216 0 241 139q3 17 3 33q0 66 -45 112q-2 2 -4 4.5t-3 3.5q-2 2 -5 5.5t-6 6.5q-25 -51 -89 -93q-61 -42 -123 -40
q-77 2 -133 48.5t-87 132.5q-12 34 -12 87q0 91 47 201q-6 38 -61 71q-69 35 -157 31h-113l-101 109h167q244 0 324 -132q26 33 95 86q59 36 183 36q84 0 142 -45q34 -28 48 -63q29 20 73 20q37 0 76 -34q36 -33 30 -74q111 18 258 182q212 -170 212 -316q0 -209 -250 -306
q109 -50 221 -154q115 -106 172 -208v1209l47 -34q0 -125 94 -167h70l99 -109h-210v-1199l-64 47q-23 97 -79 186.5t-133 157.5q-173 126 -375 155l-184 228q59 -9 79 -6q108 -7 242 51q77 39 122 95t45 120q0 58 -46 98q-187 -189 -383 -193q-54 0 -104 34q-30 19 -46 49
l-11 -11q-6 -6 -9 -7q-86 -60 -164 -60q-117 3 -223 64q-29 -63 -29 -172q0 -35 21 -69q21 -32 55 -32q132 0 210 148q204 -86 204 -291q0 -10 -2 -40zM720 1073q3 49 -26.5 71t-85.5 18q-45 -3 -92 -44q-42 -37 -60 -83q18 -24 71 -33q26 -5 85 -13q38 -3 73 22
q35 26 35 62z" />
    <glyph glyph-name="glyph38" horiz-adv-x="1270" 
d="M772 -45l10 -138q-84 123 -262 129h-76q-262 6 -358 52q-162 74 -162 304q0 77 24 170q8 -3 32 -31q-1 -9 -1 -25v-23q0 -118 32 -182q24 -43 75.5 -71t117.5 -38q11 -2 37.5 -4t36.5 -3q5 0 71.5 -5.5t109.5 -9.5q158 -14 264 -125v31q-2 2 -7 5t-8 5q-218 303 -432 297
l-148 175q275 175 539 284q-4 157 -145 186q-28 5 -50 5q-61 0 -81 -38q5 -16 5 -38q0 -77 -52 -119v1q-35 -32 -108 -32q-47 0 -89 36q-41 39 -41 87q0 72 51 121q46 44 108 50q-7 47 -70 95q-62 46 -117 44h-91l-99 109h1347l99 -109h-301q36 -62 36 -120
q0 -126 -162 -125q-83 3 -172 88q-36 38 -129 157h-346q57 -46 96 -122q140 0 221 -32q150 -62 191 -242q57 -1 119 -27q117 -48 180 -141.5t63 -224.5q0 -64 -46 -117q-45 -51 -110 -51q-46 0 -79.5 31t-33.5 76q0 98 105 98q49 0 95 -55q6 18 6 41q0 95 -94 168
q-83 68 -175 68q-8 0 -26 -2v-663zM670 129v466q-195 -80 -344 -182q186 -50 344 -284zM995 1080q0 34 -24 70h-298q116 -145 211 -145q111 0 111 75z" />
    <glyph glyph-name="glyph39" horiz-adv-x="1140" 
d="M1109 1259l100 -109h-376q13 -23 13 -48q0 -45 -46 -94q-45 -48 -90 -48q-151 1 -262 144q-21 28 -33 46h-86q-56 0 -56 -50q0 -41 35 -82q123 -9 203 -107q66 -81 70 -224q151 176 312 251l181 -120q-126 -129 -170 -294q-25 -119 -25 -206q0 -42 4 -73q8 -51 65 -309
l-63 63q-41 74 -52 108q-39 107 -52 239q-4 33 -4 80q0 132 43 279q-18 -4 -34 -20h1q-14 -16 -21 -23h1q-2 -2 -7 -7.5t-8 -9.5q-114 -108 -205 -215q-157 -176 -265 -176q-104 0 -172 86q-60 79 -56 174l38 38q12 -70 52 -116q40 -43 86 -43q59 0 177 118q105 110 105 179
q1 84 -47 143q-46 55 -94 55q-13 0 -29 -8q3 -10 3 -25q0 -46 -38 -81q-40 -37 -82 -37q-147 0 -147 144q0 65 44 104q46 37 103 40q5 13 5 22q0 53 -69 103h-174l-99 109h1221zM754 1098q0 28 -14 52h-252q91 -108 176 -120q36 -6 63 14t27 54z" />
    <glyph glyph-name="glyph40" horiz-adv-x="1759" 
d="M868 503q-9 -113 -83 -173q-88 -69 -190 -69q-141 0 -227 53q-173 110 -267 350q-73 188 -71 361l39 -32q75 -362 289 -529q86 -56 181 -56q216 0 241 139q3 17 3 33q0 66 -45 112q-2 2 -4 4.5t-3 3.5q-2 2 -5 5.5t-6 6.5q-25 -51 -89 -93q-66 -41 -123 -40
q-154 4 -221 181q-12 34 -12 87q0 96 48 201q-6 38 -61 71q-69 35 -157 31h-123l-100 109h176q244 0 324 -132q26 33 95 86q75 46 183 46h1066l99 -109h-218v-1199l-65 52q-1 10 -6 22l-21 64q-57 143 -213 241q-138 89 -268 89q-13 0 -39 -2l-126 132q2 -30 -1 -46z
M1509 209v941h-428q-59 0 -105 -49q-45 -46 -43 -109q8 -128 152 -128q71 0 109 30v-1q12 12 64 54l111 -110q-49 -24 -155 -116q-104 -93 -144 -143q237 -59 439 -369zM865 596q70 87 231 221q-86 -23 -130 -15q-149 29 -192 137q-73 -44 -142 -44q-117 3 -223 64
q-29 -63 -29 -172q0 -35 21 -69q21 -32 55 -32q131 0 210 148q175 -72 199 -238zM756 1035q2 43 11 65q-6 30 -27 44q-30 23 -85 18q-91 -7 -137 -44q-40 -34 -62 -83q18 -24 71 -33q13 -3 35 -6l49 -7q19 -3 38 -3q53 0 84 25q12 7 23 24zM1107 820l-2 4q-1 -1 -9 -7
q2 1 5.5 2t5.5 1z" />
    <glyph glyph-name="glyph41" horiz-adv-x="1954" 
d="M1918 1259l99 -109h-202v-1213l-60 60q-40 37 -132 65q-15 4 -66 4q-21 0 -107 -2q-161 -6 -215 -9q-10 0 -18.5 -0.5t-12.5 -0.5l-3 -1q-147 12 -229 104q-86 98 -86 239q0 70 30 162l47 -31q-11 -43 -11 -88q0 -37 7 -64q21 -71 82 -119q71 -46 156 -59q48 0 94 5
q95 6 156 6q131 0 236 -72q27 -20 60 -59q-9 57 -23 111v-1q-33 77 -87 124q-28 23 -114 62q-73 32 -168 40q-11 1 -38.5 1t-39.5 1q-46 2 -71 2l-141 156q45 54 239 235q-41 -10 -84 -10q-23 0 -43 4q-193 35 -209 210q-8 86 39 138h-158q16 -33 16 -74q0 -74 -65 -121
q-86 -60 -163 -60q-118 3 -224 64q-29 -63 -29 -172q0 -35 21 -69q21 -32 55 -32q132 0 210 148q204 -86 204 -291q0 -10 -2 -40q-9 -113 -83 -173q-88 -69 -189 -69q-142 0 -228 53q-173 110 -267 350q-73 188 -71 361l39 -32q75 -362 289 -529q86 -56 181 -56
q216 0 241 139q3 17 3 33q0 66 -45 112q-2 2 -4 4.5t-3 3.5q-2 2 -5 5.5t-6 6.5q-24 -49 -88 -93q-64 -42 -124 -40q-77 2 -133 48.5t-87 132.5q-12 34 -12 87q0 91 47 201q-6 38 -61 71q-69 35 -157 31h-122l-101 109h176q244 0 324 -132q26 33 95 86q75 46 183 46h1258z
M1715 315v835h-429q-60 0 -105 -48q-43 -46 -42 -110q8 -117 147 -121q87 -2 113 22l51 42q2 1 8 5.5t8 6.5l109 -110q-46 -20 -155 -116q-99 -89 -144 -143q292 -55 439 -263zM768 1073q2 48 -28 69.5t-85 19.5q-90 -7 -137 -44q-40 -34 -62 -83q18 -24 71 -33
q26 -5 85 -13q19 -3 37 -3q53 0 84 25q35 26 35 62z" />
    <glyph glyph-name="glyph42" horiz-adv-x="1356" 
d="M1322 1259l100 -109h-221v-1203l-63 48q-12 63 -40 91q-86 84 -146 84l-22 -2q3 -15 3 -32q0 -54 -34.5 -91.5t-85.5 -37.5q-68 0 -114 34q-48 37 -48 97q0 63 44 107q45 45 91 45q-9 57 -64 94q-57 -27 -127 -27q-143 0 -227 51q-174 111 -255 261q-63 118 -83 357
l39 -33q32 -162 105 -275q71 -93 173 -167q82 -54 200 -54q81 0 150 26q41 17 64 45t23 61q0 55 -41 76q-65 -37 -214 -37q-38 0 -50 4h1q-81 20 -115 45q-48 39 -76 120q-10 27 -10 64q0 18 3 39q4 26 41 108q-5 37 -62 71q-69 35 -156 31h-123l-101 109h191
q233 -6 310 -132q26 33 95 86q75 46 183 46h662zM867 598q-1 -108 -83 -176l-9 -7q76 -43 113 -132q135 -30 214 -149v1016h-258q16 -33 16 -74q0 -73 -64 -121q-86 -60 -164 -60q-117 3 -223 64q-27 -38 -27 -83q0 -35 19 -63q23 -38 99 -38q108 0 212 63q84 -45 115 -80
q45 -52 40 -160zM655 1162q-115 -8 -200 -127q44 -41 175 -41q73 0 108 18.5t35 65.5q0 93 -118 84z" />
    <glyph glyph-name="glyph43" horiz-adv-x="232" 
d="M61 759v99h55v-99h-55z" />
    <glyph glyph-name="glyph44" horiz-adv-x="1538" 
d="M1510 1259l99 -109h-738q0 -68 40 -123q22 -32 94 -92q30 -25 117 -55q178 -59 214 -76q118 -64 118 -187q0 -139 -167 -351q-177 -213 -313 -213q-74 0 -136 71q-61 70 -61 146v376q-31 -86 -135 -190q-131 -128 -287 -145q-72 2 -136 72q-60 71 -60 143v624h-172
l-98 109h1621zM1288 620q0 16 -5 38q-299 98 -410 312v-698q0 -77 58 -77q107 0 237 159q120 156 120 266zM629 765v-1q-292 77 -374 230v-466q0 -93 93 -93q79 0 198 104q100 94 100 178q0 28 -17 48zM777 777v373h-525q0 -46 41 -109q48 -71 194 -104q90 -19 183 -43
q82 -44 107 -117z" />
    <glyph glyph-name="ch173" horiz-adv-x="1660" 
d="M1753 -160l8 -61q-167 171 -396 281q-200 85 -465 126l-102 197q99 -28 178 -28q63 0 160 20q109 22 236 112q141 109 137 206q-1 67 -61 116q-63 47 -132 47q-17 0 -26 -4q10 -24 9 -63q-2 -46 -37.5 -99t-92.5 -101q-124 -95 -226 -96q-72 -3 -122 36q-49 41 -51 108
q-42 -95 -128 -181q-128 -128 -287 -145q-74 2 -135 72t-61 143v624h-172l-98 109h1748l100 -109h-884q32 -92 118 -142q89 -53 189 -53q63 0 115 16q18 5 33 5q120 0 203 -107q80 -111 80 -228q0 -134 -125 -248q-97 -90 -247 -145q121 -57 288 -177q95 -67 161 -128.5
t85 -102.5zM1158 812q0 8 -5 28q-99 32 -204 98q-47 30 -81 85v-363q0 -37 15 -55t46 -17q75 5 151 76q78 72 78 148zM770 793v357h-517q0 -47 40 -109q48 -71 194 -104q90 -19 183 -43q74 -42 100 -101zM629 765v-1q-292 77 -374 230v-466q0 -93 93 -93q77 0 199 104
q99 93 99 178q0 28 -17 48z" />
    <glyph glyph-name="ch174" horiz-adv-x="1688" 
d="M1754 6l8 -60q-120 102 -198 153v-330l-99 66q-51 60 -131 83h1q-20 5 -59 5q-34 0 -107 -5q-33 -2 -87 -12q-47 -10 -78 -10q-21 0 -46 5q-119 24 -192 105t-93 214q-9 50 -9 105q0 49 12 82l47 -31q-3 -14 -3 -32q0 -49 19 -122q40 -161 214 -179q26 2 81 12
q68 13 133 13q116 0 222 -75q43 -30 75 -77v238q-88 41 -209 73h1q-150 37 -330 48l-113 190q45 -8 102 -8q51 0 94 7q94 12 161 33q80 23 236 93q106 75 104 149q-1 60 -71 94q-44 23 -122 23q-7 0 -8 -4l-9 -9q-2 -2 -2 -3q6 -97 -106 -184q-93 -67 -248 -67
q-72 0 -114 39q-33 32 -50 78q0 -35 -10 -69q-45 -105 -121 -181q-134 -129 -294 -145q-67 -6 -135 72q-61 70 -61 143v624h-172l-98 109h1760l99 -109h-894q27 -86 117 -142q91 -53 189 -53q53 0 104 14q25 9 68 4q99 -10 177 -84q51 -51 67 -90q17 -42 17 -111
q0 -94 -128 -202q-87 -71 -274 -116q226 -68 358 -162q89 -68 205 -202zM629 765v-1q-291 76 -374 230v-466q0 -93 93 -93q76 0 199 104q99 93 99 178q0 28 -17 48zM293 1041q57 -79 187 -108q87 -15 189 -39q67 -19 101 -100v356h-517q0 -47 40 -109zM1160 812q2 7 -5 28
q-113 32 -194 93q-37 33 -92 92v-271q0 -78 60 -87q18 -2 30 -2q73 0 141 54q39 31 48 48q4 9 12 45z" />
    <glyph glyph-name="ch175" horiz-adv-x="1688" 
d="M1753 -160l8 -61q-149 149 -326 246v-425l-66 66q-115 144 -323 144h-22q-14 0 -21 -1l-92 121q27 35 125 99q90 60 160 93q-121 37 -296 64l-102 197q99 -28 178 -28q63 0 160 20q109 22 236 112q141 109 137 206q-1 67 -61 116q-63 47 -132 47q-17 0 -26 -4
q10 -24 9 -63q-2 -46 -37.5 -99t-92.5 -101q-124 -95 -226 -96q-72 -3 -122 36q-49 41 -51 108q-45 -105 -121 -181q-134 -129 -294 -145q-67 -6 -135 72q-61 70 -61 143v624h-172l-98 109h1762l99 -109h-897q32 -92 118 -142q89 -53 189 -53q63 0 115 16q18 5 33 5
q120 0 203 -107q80 -111 80 -228q0 -134 -125 -248q-97 -90 -247 -145q150 -60 348 -214q152 -119 186 -194zM629 765v-1q-292 77 -374 230v-466q0 -93 93 -93q77 0 199 104q99 93 99 178q0 28 -17 48zM770 794v356h-517q0 -47 40 -109q57 -79 187 -108q87 -15 189 -39
q67 -19 101 -100zM1158 812q0 8 -5 28q-99 32 -204 98q-47 30 -81 85v-363q0 -37 15 -55t46 -17q75 5 151 76q78 72 78 148zM1335 -235v294q-59 -23 -145 -71q-97 -57 -117 -75q79 -2 161 -60q67 -42 101 -88z" />
    <glyph glyph-name="glyph48" horiz-adv-x="2480" 
d="M2420 370q0 -85 -46 -149q-51 -75 -130 -75q-54 -2 -121.5 25t-135.5 75q-134 100 -196 200v-497l-49 41q-28 132 -80 183q-66 57 -195 57h-16q-10 0 -15 -1q-24 -1 -148 -14q-102 -9 -164 -9q-74 0 -124 14q-242 74 -254 362q-30 -53 -103 -126q-131 -128 -287 -145
q-72 2 -136 72q-61 70 -61 143v624h-171l-99 109h641l99 -109h-376q0 -46 41 -109q48 -71 193 -104q97 -21 184 -43q76 -42 102 -107q19 56 67 123l34 -37q-65 -81 -63 -203q3 -187 115 -256q77 -49 243 -49v-4l90 7h84q231 0 354 -145q0 133 1 398.5t1 399.5q0 36 -26 70
q-27 35 -59 37q-102 5 -206 -113q-106 -119 -113 -219q64 10 112 -27q50 -39 42 -104q-13 -136 -149 -127q-84 7 -141 72q-50 63 -44 151q14 170 165 327q146 153 288 153q11 0 33 -2q74 -9 132 -64q58 -56 58 -128v-275q44 102 148 219q123 131 230 132q114 2 172 -77
q64 -73 64 -188q0 -123 -81 -229q96 -122 96 -259zM2348 442q0 21 -20 67q-18 37 -39 58q-33 -28 -100 -62q-53 -11 -99 19q-43 26 -51 84q-2 22 -2 29q0 102 112 126q37 6 76 -18q41 -25 58 -57q48 47 48 127q0 67 -37 113t-102 46q-118 0 -255 -124q-139 -126 -141 -237
q-1 -117 126 -217q122 -101 240 -101q70 0 128 41q58 40 58 106zM630 765v-1q-291 76 -374 230v-466q0 -93 93 -93q76 0 198 104q100 94 100 178q0 28 -17 48z" />
    <glyph glyph-name="glyph49" horiz-adv-x="969" 
d="M824 468v-874l-61 61q-1 22 -42 80q-37 57 -76 95v-1q-101 86 -201 86q-35 0 -58 -20q25 -47 25 -76q0 -47 -30 -88q-33 -42 -81 -45q-60 -4 -111 32q-55 40 -55 113q0 80 65 135t163 55q64 0 89 -7h-1q184 -45 284 -219v519l-34 -45q-181 -216 -320 -216q-74 0 -137 71
q-61 70 -61 146v880h-195l-99 109h1040l98 -109h-745q0 -54 35 -126q21 -41 94 -89q57 -36 117 -55q184 -60 214 -76q117 -65 117 -187q0 -71 -34 -149zM711 608q8 50 -35 62q-286 87 -395 298v-696q0 -77 55 -77q90 0 227 143q52 52 97 139q45 83 51 131z" />
    <glyph glyph-name="glyph50" horiz-adv-x="1361" 
d="M1327 1259l100 -109h-226v-1203l-63 48q-12 63 -40 91q-86 84 -146 84l-22 -2q3 -15 3 -32q0 -54 -34.5 -91.5t-85.5 -37.5q-68 0 -114 34q-48 37 -48 97q0 63 44 107q45 45 91 45q-9 57 -64 94q-57 -27 -127 -27q-143 0 -227 51q-172 110 -255 261q-63 118 -83 357
l39 -33q32 -162 105 -275q71 -93 173 -167q82 -54 200 -54q81 0 150 26q41 17 64 45t23 61q0 55 -41 76q-65 -37 -214 -37q-38 0 -50 4h1q-81 20 -115 45q-48 39 -76 120q-10 27 -10 64q0 18 3 39q4 26 41 108q-5 37 -62 71q-69 35 -156 31h-123l-101 109h191
q233 -6 310 -132q26 33 95 86q75 46 183 46h667zM867 598q-1 -108 -83 -176l-9 -7q76 -43 113 -132q135 -30 214 -149v1016h-258q16 -33 16 -74q0 -73 -64 -121q-86 -60 -164 -60q-117 3 -223 64q-27 -38 -27 -83q0 -35 19 -63q23 -38 99 -38q108 0 212 63q84 -45 115 -80
q45 -52 40 -160zM655 1162q-115 -8 -200 -127q44 -41 175 -41q73 0 108 18.5t35 65.5q0 93 -118 84z" />
    <glyph glyph-name="ch179" horiz-adv-x="232" 
d="M61 759v99h55v-99h-55z" />
    <glyph glyph-name="glyph52" horiz-adv-x="232" 
d="M61 759v99h55v-99h-55z" />
    <glyph glyph-name="glyph53" horiz-adv-x="232" 
d="M61 759v99h55v-99h-55z" />
    <glyph glyph-name="glyph54" horiz-adv-x="1826" 
d="M1779 1259l99 -109h-1241q-29 2 -37 -32q-5 -18 -5 -28q0 -73 142 -110q79 -21 171 -21q124 0 232 56q62 -103 158 -144q68 -27 207 -38l151 40l73 -83l65 -74q-108 -141 -143 -248q-36 -111 -36 -289q0 -29 11 -112q2 -15 10.5 -74t14.5 -100l-66 25q-23 69 -36 141
q-20 112 -20 222q0 160 43 290q22 68 57 133q-64 0 -121 6q-76 9 -119 22q-84 24 -147 68q-52 37 -83 89q-181 -109 -181 -229q0 -74 100 -74q77 0 198 89q150 -93 150 -271q0 -127 -90 -211q-77 -68 -179 -68q-12 0 -38 2q-110 12 -219 128q-98 96 -145 206
q-22 -75 -82 -132q-64 -61 -141 -64q-107 -3 -199 54q-109 69 -183 206q-45 90 -75 204q-20 80 -31 150q-5 32 -10 76l-8 92l66 -26q1 -6 2.5 -16t1.5 -15l4 -30l6 -40q4 -26 7 -39q15 -79 36 -140q45 -136 86 -190q49 -64 114 -100q66 -35 138 -41q104 2 161 45
q69 48 69 138q0 37 -20 72q-19 34 -51 34q-22 0 -81 -35t-90 -35q-98 0 -156 79q-55 78 -51 175q4 85 54 165q31 50 86 102h-421l-98 109h1890zM1356 435q0 70 -72 91q-30 -23 -80 -45q-60 -23 -83 -23q-95 0 -161 63q-63 66 -63 163q0 30 12 87q16 54 18 82q-66 5 -117 16
q-124 27 -205 90q-60 48 -96 116q-56 -43 -88 -82q-69 -83 -69 -167q0 -75 83 -70q49 3 120 45q68 43 84 41q68 -2 113 -119q13 -33 45 -190q25 -103 138 -192q116 -89 225 -83q75 5 135 56q61 52 61 121z" />
    <glyph glyph-name="glyph55" horiz-adv-x="1879" 
d="M1835 1259l99 -109h-1211q-37 -17 -82 -33q6 -35 79 -72q65 -27 114 -31q64 -5 148 25l152 62q178 -146 345 -146q46 0 103 11q68 16 74 16q114 -116 158 -164q-95 -54 -144 -202q-52 -149 -52 -356v-464l-61 62q-57 66 -187 108q-95 27 -163 27h-21q-7 0 -19 -2l-98 134
q54 46 222 125l233 102q-2 30 -2 58q0 279 94 414q-6 0 -15 -0.5t-15 -0.5q-265 0 -385 139q-49 -5 -104 -49q-57 -47 -57 -126q0 -60 43 -60q13 0 60 13q48 14 77 14q30 0 57 -13q58 -24 113 -109q36 -62 29 -127q-12 -101 -85 -161t-193 -60q-141 0 -260 109v-1
q-68 59 -106 146q-33 -72 -83 -107q-86 -56 -155 -56q-155 0 -254 105q-104 109 -136 212q-53 173 -53 303q0 19 2 49l48 -34l24 -143q21 -85 45 -136q45 -88 122 -150q59 -48 175 -65q20 -3 38 -3q72 0 130 47q64 50 68 105q2 32 -20 54.5t-54 22.5q-33 0 -97 -16
q-64 -15 -79 -13q-90 14 -127 66q-39 60 -39 125q0 20 7 53q13 58 52 118q34 54 62 75h-464l-98 109h1946zM1335 535q0 30 -23.5 53t-53.5 30h-4l-1 1q-5 1 -13 1h-11q-10 0 -34 -6q-40 -10 -56 -8q-104 8 -148 74q-39 57 -39 135q0 52 16 88q-5 -1 -15 -1h-15
q-113 0 -222 58q-98 53 -154 117q-8 -6 -13 -11q-63 -55 -85 -84t-34 -62q-11 -28 -11 -44q0 -44 66 -39l60 17q45 15 65 15q35 0 75 -20q58 -25 96 -104q25 -49 19 -101q52 -100 101 -144q56 -53 228 -74q60 -8 143 23q63 24 63 86zM1519 -62v283q-127 -48 -279 -126
q80 -5 170 -61q73 -46 109 -96z" />
    <glyph glyph-name="glyph56" horiz-adv-x="1423" 
d="M1380 1259l98 -109h-643q-46 -11 -135 -57q3 -91 151 -106q13 -1 36 -3q6 0 22 -1.5t27 -2.5q6 -1 17 -1h18q118 0 219 63l169 -176q-103 -55 -163 -250q-49 -154 -49 -303q0 -127 36 -209l-3 -306l-56 55q-4 47 -86 103q-82 58 -132 60v-232l-64 46q-116 179 -319 179
q-12 0 -38 -2l-124 135l215 129q-231 20 -361 199q-121 169 -121 411q0 61 10 130l40 -32q-2 -38 -2 -53q0 -200 96 -339q120 -175 348 -175q96 0 175 45q94 54 95 138q0 59 -68 80l-98 -39q-56 -21 -107 -23q-102 -4 -194 74q-93 79 -93 184q0 135 185 279h-494l-99 109
h1492zM1065 455q0 183 81 413q-30 -3 -70 -3q-147 0 -261 40q-143 53 -200 156q-90 -37 -141 -84q-71 -67 -73 -144q0 -38 30.5 -63.5t70.5 -25.5q64 0 257 82q181 -160 181 -273q0 -62 -36 -137v-294q85 -18 207 -145q0 28 -1 85.5t-1 85.5q-44 197 -44 307zM824 -55v345
q-89 -39 -286 -174q197 -62 286 -171zM1149 869l-2 3q-1 -1 -1 -4z" />
    <glyph glyph-name="glyph57" horiz-adv-x="1581" 
d="M1546 1259l98 -109h-902q-49 -25 -49 -94q0 -70 57 -181q60 -121 120 -127q166 208 349 230q22 2 33 2q88 0 161 -49q86 -59 86 -167q0 -115 -115 -202q104 -105 99 -239q-5 -98 -82 -144q-49 -28 -110 -28q-29 0 -42 3q-218 37 -346 257q-35 -107 -114 -180
q-85 -76 -194 -77q-255 -5 -412 314q-123 244 -148 536l58 -41q24 -202 141 -418q70 -114 153.5 -185t162.5 -77q108 2 196 65q93 66 93 164q0 76 -49 101q-13 -1 -92 -43q-83 -44 -137 -44q-117 0 -185 69t-68 187q0 100 61 206q58 97 137 162h-507l-96 109h1643zM1415 361
q0 86 -78 158q-45 -50 -120 -50q-117 0 -117 124q0 110 101 110q63 0 113 -59q85 52 84 127q0 50 -64 87q-57 30 -108 30q-65 -2 -194 -102q-126 -96 -126 -157q0 -137 105 -253q104 -117 238 -122q166 -1 166 107zM503 645q93 0 249 114q-105 103 -153 292
q-149 -91 -201 -252q-7 -20 -7 -45q0 -109 112 -109zM754 758v3l-2 -2z" />
    <glyph glyph-name="glyph58" horiz-adv-x="1787" 
d="M1743 1259l99 -109h-223v-1203l-63 48q-13 67 -39 91q-85 84 -147 84h-11q-8 0 -12 -1q4 -15 4 -33q0 -55 -34 -92t-85 -37q-69 0 -116.5 35.5t-47.5 95.5q0 63 44 107q48 44 91 45q-78 79 -117 145t-39 138q0 108 90 237q-252 -3 -424 112q-86 59 -124 127
q-56 12 -124 -104q-72 -115 -67 -181q8 -90 96 -90q48 0 144 51q97 50 108 50q59 0 138 -154q49 -102 49 -188q0 -137 -98 -213q-99 -80 -222 -81q-152 -6 -302 141q-107 109 -166 303q-53 170 -53 343q0 66 4 118l48 -34q10 -419 223 -613v1q77 -66 222 -78q5 -1 14 -1h15
q88 0 147 39q87 55 92 134q10 121 -73 121q-9 0 -93 -35q-83 -36 -116 -36q-113 4 -190 95q-70 87 -70 201q-3 169 173 312h-501l-98 109h1854zM1305 283h-1q138 -30 217 -149v1016h-734q-5 -2 -16 -6t-17 -6q-22 -8 -26 -10q-27 -12 -26 -48q6 -71 85 -116q65 -37 156 -31
q93 4 246 59l165 -174q-205 -123 -205 -272q0 -127 156 -263z" />
    <glyph glyph-name="glyph105" horiz-adv-x="232" 
d="M61 759v99h55v-99h-55z" />
    <glyph glyph-name="glyph106" horiz-adv-x="232" 
d="M61 759v99h55v-99h-55z" />
    <glyph glyph-name="glyph61" horiz-adv-x="1353" 
d="M1318 464q-3 -79 -47 -138q-46 -56 -133 -58q-87 10 -171 86.5t-154 214.5v-618l-62 46q-62 154 -145 225q-122 109 -374 144l-130 219q243 166 550 333q-28 82 -101 135q-72 57 -162 64q-62 5 -117 -25q-60 -31 -63 -85q40 0 66 -38q25 -37 25 -81q0 -106 -118 -110
q-82 -5 -125 49q-45 58 -35 133q15 125 133 194q90 51 203 51h17q12 0 17 -1q198 -18 323 -236v378l98 -111v-309q54 85 96 139q85 110 190 103q92 -8 151 -71q60 -66 60 -155q0 -162 -94 -240q105 -95 102 -238zM1249 935q0 84 -118 84q-100 0 -214 -90q-101 -87 -102 -175
q-2 -93 107 -209q108 -117 202 -126q66 -7 92 17t26 90q0 56 -78 130q-44 -36 -97 -36q-101 0 -105 106q-4 43 25 76t72 33q56 0 103 -62q87 14 87 162zM715 198v578q-131 -75 -386 -248q247 -119 386 -330z" />
    <glyph glyph-name="glyph62" horiz-adv-x="1353" 
d="M813 569v-1025l-60 46q-114 150 -372 174l-95 161q74 92 205 160l167 82q-21 29 -52 56v-1q-122 109 -374 144l-130 219q243 166 550 333q-28 82 -101 135q-72 57 -162 64q-62 5 -117 -25q-60 -31 -63 -85q40 0 66 -38q25 -37 25 -81q0 -106 -118 -110q-82 -5 -125 49
q-45 58 -35 133q15 125 133 194q90 51 203 51h17q12 0 17 -1q198 -18 323 -236v378l98 -111v-309q54 85 96 139q85 110 190 103q92 -8 151 -71q60 -66 60 -155q0 -162 -94 -240q105 -95 102 -238q-3 -79 -47 -138q-46 -56 -133 -58q-87 10 -171 86.5t-154 214.5zM1249 935
q0 84 -118 84q-100 0 -214 -90q-101 -87 -102 -175q-2 -93 107 -209q108 -117 202 -126q66 -7 92 17t26 90q0 56 -78 130q-44 -36 -97 -36q-101 0 -105 106q-4 43 25 76t72 33q56 0 103 -62q87 14 87 162zM715 194v582q-131 -75 -386 -248q246 -120 386 -334zM715 -288v346
q-7 -4 -37 -18.5t-50 -25.5q-30 -17 -57 -29q-92 -46 -130 -90q144 -35 274 -183z" />
    <glyph glyph-name="glyph63" horiz-adv-x="1296" 
d="M1208 -435l7 -73q-396 375 -903 436l-129 221q82 -44 211 -44q403 0 403 162q0 21 -6 45q-25 67 -123 94q-23 -50 -119 -97q-95 -46 -157 -46q-144 0 -228 72q-81 75 -81 182q0 12 2 38q4 60 89 119q34 21 43 26l226 133q155 105 155 245q0 42 -38 74q-39 33 -81 33
q-61 0 -146 -45q-84 -48 -103 -106q70 -34 70 -89q0 -109 -113 -109q-70 0 -109 51q-35 49 -29 122q7 48 46 101t100 96q129 83 235 83q87 0 158 -65v1q75 -66 86 -150q117 124 148 150q97 79 197 79q81 0 125 -65q43 -61 43 -147q0 -112 -75 -192q98 -112 98 -240
q0 -159 -163 -159q-137 0 -255 120q-106 111 -136 248q-21 -45 -111 -134q40 -103 204 -248q160 -137 160 -224q0 -91 -85 -173q-65 -59 -165 -92q109 -47 290 -191q186 -142 259 -242zM1114 703q0 66 -61 127q-41 -57 -94 -57q-87 0 -98 115q-2 43 21 67.5t68 24.5
q40 0 74 -18q78 45 78 114q0 81 -93 81q-106 0 -202 -72q-98 -77 -98 -180q0 -96 94 -192q102 -91 199 -91q112 0 112 81zM562 524q0 3 -29 66q-26 50 -39 108q-26 -19 -161 -92q-138 -80 -142 -118q-8 -47 63 -76q52 -21 108 -21q200 0 200 133z" />
    <glyph glyph-name="glyph64" horiz-adv-x="1356" 
d="M1195 574l102 -99q-207 -138 -207 -367q0 -118 66 -233l-46 -46q-112 163 -112 327q0 82 40 193q49 125 70 182q-308 0 -446 319q-3 -4 -34 -53q0 -1 -2 -3t-2 -3q-135 -197 -135 -260q0 -48 49 -48q16 0 29 4q89 20 128 93q188 -87 188 -330q0 -123 -93 -205
q-91 -79 -218 -79q-381 0 -479 740l54 -45q105 -544 403 -544q76 0 154 60t78 134q0 31 -18 69q-17 35 -45 35q-10 0 -18 -5q-65 -39 -154 -39q-183 0 -178 194q4 60 66 161q1 2 2 3q1 2 2 3l93 146q66 100 66 155q0 39 -33 63q-31 25 -71 25q-105 0 -153 -93
q43 -45 43 -104q0 -98 -109 -116q-65 -11 -104 32q-40 40 -40 105q0 113 111 207q107 89 221 89q81 0 128 -32q18 -14 53 -67q32 -50 61 -64q219 145 371 145q175 0 175 -167q0 -98 -57 -182q81 -87 81 -139q0 -96 -80 -161zM1206 739q0 15 -21 46q-17 28 -30 43
q-44 -62 -119 -62q-114 0 -114 112q-2 114 107 114q55 0 100 -36q47 24 47 77q0 43 -26.5 72.5t-68.5 29.5q-87 0 -217 -73q-137 -81 -137 -157q0 -91 107 -185q112 -94 204 -94q50 0 109 34q59 37 59 79z" />
    <glyph glyph-name="glyph65" horiz-adv-x="1489" 
d="M1404 631q0 -93 -82 -148q-56 -38 -109 -38q-16 0 -23 4v-566l-58 33l-13 29q-17 36 -111 130q-118 111 -204 135v-372l-62 35q-44 63 -167 192v-1q-144 120 -378 156l-92 214q89 24 309 145q246 133 261 166q33 79 33 147q0 88 -60 171q-28 40 -101 40q-87 0 -184 -58
q-107 -62 -120 -136q105 -15 102 -131q-2 -48 -37.5 -80.5t-86.5 -32.5q-73 0 -120 71q-16 25 -16 64q0 135 157 273q148 128 291 136q185 9 270 -190q51 63 146 125q114 72 220 79q80 5 137 -57q56 -62 56 -145q0 -103 -82 -175q46 -25 87 -91q37 -59 37 -124zM1306 674
q0 64 -65 103q-48 -55 -93 -55q-117 2 -117 100q0 43 29.5 73.5t71.5 30.5q31 0 73 -19q92 20 92 91q0 44 -44 76q-35 26 -85 29q-88 5 -173 -52q-83 -51 -135 -131q-24 -46 -24 -67q0 -22 24 -72q72 -110 117 -152q65 -53 180 -62q60 -5 104 24q45 29 45 83zM1097 58v402
q-98 43 -174.5 123t-120.5 191v-419q65 -30 163 -134q82 -84 132 -163zM696 23v536q-201 -110 -401 -206q236 -89 401 -330z" />
    <glyph glyph-name="glyph66" horiz-adv-x="1465" 
d="M717 796v-1q14 56 14 97q0 83 -59 171q-30 40 -101 40q-87 0 -184 -58q-107 -62 -121 -136q105 -15 102 -131q-2 -48 -37.5 -80.5t-85.5 -32.5q-76 0 -120 71q-17 26 -17 64q0 130 158 273q148 128 291 136q187 8 270 -190q50 67 145 125q113 71 220 79q86 5 139 -57
q56 -64 56 -145q0 -100 -84 -175q49 -29 88 -92q36 -58 36 -123q0 -90 -82 -148q-55 -38 -109 -38q-8 0 -21.5 1t-47.5 7t-68 16t-77.5 31.5t-81.5 50.5t-74.5 76t-61.5 104v-333q106 44 168 61q14 5 36 5q112 0 112 -98q0 -9 -7 -60q-2 -13 -6.5 -44t-6.5 -45
q-7 -60 -14 -170q-4 -53 -4 -110v-29q0 -9 2 -27q8 -104 60 -273q-90 40 -141 180q-23 72 -23 207q0 150 21 312q-85 -1 -197 -71v-46q0 -18 -0.5 -55t-0.5 -55v-474l-63 62q-185 243 -476 243l-107 145q51 46 265 167q68 35 281 137v29q-8 0 -22 -2q-51 -8 -155 -34
q-94 -25 -155 -32q-24 -3 -49 -3q-131 0 -212 88t-101 215q-3 29 -3 59q0 71 14 126q7 -8 18 -14l2 -1h-2q3 -3 7 -5l9 -6q-2 -30 -2 -51q0 -32 3 -71q13 -85 76.5 -145.5t160.5 -60.5q19 0 40 3q35 0 125 16l16 2q22 4 55.5 9t40.5 6q22 2 30 2q54 0 104 -23q-6 138 -6 195
q0 67 15 118l1 6q2 7 4 10zM1329 674q0 64 -65 103q-45 -55 -94 -55q-116 2 -116 100q0 43 29.5 73.5t71.5 30.5q31 0 73 -19q92 20 92 91q0 44 -44 76q-35 26 -86 29q-85 4 -172 -51q-86 -54 -134 -132q-26 -44 -26 -67q0 -105 143 -224q63 -51 178 -62q58 -4 105 23
q45 28 45 84zM704 -211l-1 246v159q-28 -9 -170 -81q-121 -62 -151 -88q87 -26 176 -92q91 -67 146 -144z" />
    <glyph glyph-name="glyph67" horiz-adv-x="997" 
d="M959 1259l98 -109h-709v-582q0 -133 93 -133q111 0 195 87q93 103 100 268q-87 0 -123 45q-27 33 -27 91q0 55 42 91q40 34 93 34q87 0 130 -79q34 -64 30 -157q-10 -182 -86 -332q50 -37 72 -97q25 -61 20 -116q-14 -121 -108 -212q-42 -40 -103 -64.5t-119 -24.5
q-121 0 -224 64q-75 47 -134 120q-56 70 -106 173q-40 79 -68 170l44 37q52 -106 74 -142q58 -98 113 -153q56 -53 112 -84q64 -34 132 -45q19 -3 54 -3q75 0 130 32q40 22 76 76q42 64 42 95q0 53 -76 99q-36 -42 -105 -77q-75 -36 -128 -36q-101 0 -173 81q-82 91 -82 179
v595h-251l-99 109h856q62 41 62 82q0 47 -62 73q-48 21 -104 21v3q-11 -4 -50 -5q-45 -3 -163 -5q-8 0 -21 -0.5t-19 -0.5q-264 0 -373 89q-79 64 -79 158q0 77 53 148l50 -28q-40 -46 -40 -88q0 -50 54 -85q39 -28 101 -36q38 -7 135 -7q28 0 110 2q9 1 28 1h27
q109 0 188 -18q112 -28 172 -105.5t60 -198.5h86z" />
    <glyph glyph-name="glyph68" horiz-adv-x="1110" 
d="M942 131v-507l-59 60q-78 77 -136 91q-1 0 -6 -0.5t-10 -0.5q-37 -1 -152 -3q-44 -2 -111 -15q-50 -9 -97 -7q-63 6 -120 26q-65 23 -111 63q-91 83 -91 226q0 70 30 161l46 -31q-12 -46 -12 -91q0 -35 7 -62v1q24 -81 124 -121q57 -21 122 -28q45 4 80 10q64 10 130 10
q90 0 181 -38q28 -12 85 -94v254q-73 -46 -165 -46q-89 0 -174 38q-101 45 -186 146q-68 87 -105 151q-55 94 -82 208l59 1q56 -118 132 -213q80 -98 170 -147q59 -33 127 -44q19 -3 54 -3q77 0 133 32q36 19 79 67q38 49 38 84q0 51 -78 99q-34 -41 -104 -77
q-74 -36 -129 -36q-100 0 -172 81t-72 179v595h-380l-99 109h974q65 40 65 82q0 47 -65 73q-50 21 -105 21v3q-11 -4 -47 -5q-46 -3 -165 -5q-7 0 -21 -0.5t-21 -0.5q-258 0 -370 89q-79 67 -79 158q0 75 52 148l50 -28q-40 -47 -40 -88q0 -47 54 -85q47 -29 101 -36
q48 -6 147 -6h46q34 0 52 1q9 1 28 1h26q111 0 188 -18q234 -55 234 -304h73l100 -109h-699v-582q0 -133 93 -133q112 0 194 87q94 106 101 268q-149 0 -149 136q0 55 40 91q40 34 95 34q91 0 131 -79q33 -67 28 -157q-11 -187 -85 -332q52 -25 74 -85q19 -51 13 -131
q-1 -11 -3.5 -21.5t-7.5 -22.5t-7.5 -19t-10 -20.5t-9.5 -17t-11 -19t-10 -16.5z" />
    <glyph glyph-name="glyph69" horiz-adv-x="1489" 
d="M1435 1259l98 -109h-225v-1213l-62 62q-34 74 -93 102q-38 17 -66 21q-34 4 -44 -6q-4 -35 -22 -63q-20 -32 -54 -50.5t-74 -18.5q-56 0 -85 26v-1q-71 59 -71 125q0 26 9 53q19 48 65 76q23 15 57.5 19.5t59.5 -2.5q5 40 -17 94q-19 47 -43 73q-33 37 -91 50
q-2 -17 -56 -92q-68 -83 -137 -128q-80 -51 -162 -51q-77 0 -155 75q-74 77 -74 154v695h-206l-99 109h908q0 2 0.5 5t0.5 4l3 56q-17 107 -184 111q-63 0 -245 5q-141 4 -237 36q-192 60 -192 226q0 73 37 143l37 -14q-18 -63 -18 -102q0 -112 163 -137q48 -5 120 -5
q59 0 139 3q54 2 76 2q107 0 183 -16q200 -42 223 -317h533zM1209 150v1000h-918v-695q0 -38 28 -66q29 -27 68 -27q66 0 126 39q44 28 82 75q113 136 132 239q-32 -5 -50 -5q-49 0 -92 34q-44 35 -44 100q0 63 39.5 100.5t103.5 37.5q88 0 141.5 -62.5t53.5 -169.5
q0 -7 -2 -17t-6 -26t-8.5 -30.5t-13 -42.5t-14.5 -49q80 -35 133 -131q55 -99 72 -216q20 -3 46 -11q31 -9 53 -21q48 -24 70 -56z" />
    <glyph glyph-name="glyph70" horiz-adv-x="232" 
d="M61 759v99h55v-99h-55z" />
    <glyph glyph-name="glyph71" horiz-adv-x="232" 
d="M61 759v99h55v-99h-55z" />
    <glyph glyph-name="glyph72" horiz-adv-x="232" 
d="M61 759v99h55v-99h-55z" />
    <glyph glyph-name="glyph73" horiz-adv-x="2082" 
d="M2039 1259l100 -109h-234v-1213l-100 99l7 552q2 156 -100 321q-118 181 -300 205q-21 3 -40 3q-78 0 -149 -45q-84 -59 -85 -152q60 22 157 22q89 0 142 -40q31 -23 47.5 -61t16.5 -77q-14 -194 -208 -382l-121 136q109 76 177 167q65 77 66 125q1 24 -11.5 36t-37.5 12
q-38 0 -127 -38q-109 -51 -135 -49q-4 0 -10 0.5t-10 1.5q22 -66 22 -150q0 -45 -5 -74q-29 -174 -128.5 -265t-258.5 -91q-266 0 -438 298q-136 235 -177 556l52 -24q97 -308 171 -424q143 -217 360 -217q138 0 250 96q111 96 111 232q0 38 -27 89q-23 47 -55 67
q-42 -85 -136 -160q-107 -88 -185 -88q-52 0 -92 46h1q-45 51 -55 94q-2 14 -2 125v267h-504l-99 109h1045l96 -109h-441v-337q11 -24 36 -24q55 0 156 95q55 51 127 142q37 -26 77 -71q9 131 109 204q125 84 250 80q345 -16 487 -427q-3 24 -12 123q-14 143 -14 222v301
l46 -47q0 -80 24 -116t74 -36h90z" />
    <glyph glyph-name="glyph74" horiz-adv-x="2088" 
d="M2060 1259l97 -109h-701v-400q0 -55 20 -78q58 6 158 100q6 6 54 57q12 12 40 42t45 48q95 -44 150 -166q53 -113 54 -222q1 -193 -102 -319q-119 -134 -301 -127q-167 6 -314 177q-110 133 -161 279q-69 -348 -385 -348q-266 0 -438 298q-136 235 -177 556l52 -24
q97 -308 171 -424q142 -217 360 -217q138 0 250 96q111 98 111 232q0 39 -26 89q-27 52 -56 67q-38 -80 -136 -160q-107 -88 -185 -88q-53 0 -93 46q-39 45 -53 97q-2 14 -2 122v267h-504l-99 109h2171zM1907 581q-3 83 -77 181q-48 -79 -139 -158q-104 -92 -189 -101
q-144 -15 -144 272v375h-769v-337q11 -24 36 -24q55 0 156 95q59 56 127 142q102 -66 163 -208q31 -89 95 -247q60 -146 137 -226q93 -85 244 -85q127 0 245 100q121 97 115 221z" />
    <glyph glyph-name="glyph75" horiz-adv-x="1821" 
d="M714 193q-266 0 -438 298q-136 235 -177 556l52 -24q95 -302 170 -424q146 -217 361 -217q137 0 249 96t112 232q0 38 -27 89q-22 46 -56 67q-41 -84 -135 -160q-107 -88 -186 -88q-51 0 -91 46h1q-45 51 -55 94q-2 14 -2 125v267h-505l-98 109h1900l100 -109h-234v-1203
l-65 48q-12 65 -38 91q-86 84 -147 84l-22 -2q4 -15 4 -32q0 -55 -35 -92t-86 -37q-69 0 -116 35.5t-47 95.5q0 64 45 107q43 43 91 45q-57 166 -144 230q-77 -327 -381 -327zM1071 818q28 -66 33 -172q80 -42 146 -144t90 -219q141 -31 215 -148v1015h-966v-337
q11 -24 35 -24q56 0 157 95q55 51 127 142q105 -69 163 -208z" />
    <glyph glyph-name="glyph76" horiz-adv-x="2076" 
d="M2035 1259l100 -109h-230v-1213l-100 99l7 552q2 156 -100 321q-118 181 -300 205q-21 3 -40 3q-78 0 -149 -45q-84 -59 -85 -152q60 22 157 22q89 0 142 -40q31 -23 47.5 -61t16.5 -77q-14 -194 -208 -382l-121 136q109 76 177 167q65 77 66 125q1 24 -11.5 36t-37.5 12
q-38 0 -127 -38q-109 -51 -135 -49q-4 0 -10 0.5t-10 1.5q22 -66 22 -150q0 -45 -5 -74q-29 -174 -128.5 -265t-258.5 -91q-266 0 -438 298q-136 235 -177 556l52 -24q97 -308 171 -424q143 -217 360 -217q138 0 250 96q111 96 111 232q0 38 -27 89q-23 47 -55 67
q-42 -85 -136 -160q-107 -88 -185 -88q-52 0 -92 46h1q-45 51 -55 94q-2 14 -2 125v267h-504l-99 109h1045l96 -109h-441v-337q11 -24 36 -24q55 0 156 95q55 51 127 142q38 -27 76 -71q11 131 110 204q125 84 250 80q345 -16 487 -427q-3 24 -12 123q-14 143 -14 222v301
l46 -47q0 -80 24 -116t74 -36h86zM876 40q0 -45 -34 -79q-36 -33 -79 -33q-46 0 -78 33t-32 79q0 39 32 78q33 35 78 35q46 0 79 -35q34 -37 34 -78z" />
    <glyph glyph-name="glyph77" horiz-adv-x="232" 
d="M61 759v99h55v-99h-55z" />
    <glyph glyph-name="glyph78" horiz-adv-x="232" 
d="M61 759v99h55v-99h-55z" />
    <glyph glyph-name="glyph79" horiz-adv-x="1470" 
d="M1447 1259l98 -109h-748v-821q11 -97 77 -97q77 0 186 92q107 87 132 168q21 78 19 95q-24 -6 -54 -6q-58 0 -97.5 35t-39.5 91q0 65 38 109.5t102 44.5q88 0 149 -77q57 -74 57 -168q0 -167 -148 -342q-158 -179 -318 -179q-73 0 -138 74q-64 73 -64 148v601
q-107 230 -276 230q-76 0 -135 -62q-57 -62 -57 -136q0 -87 85 -135q-2 22 -2 29q0 44 10 67q26 65 97 65q128 0 128 -116q0 -37 -14 -79q-33 -82 -163 -82q-33 0 -72 14q-186 74 -186 242q0 113 82 202q83 89 192 89q107 0 172 -47q15 -13 90 -96q34 -38 49 -102v258h476
q57 37 57 83q0 110 -255 110q-53 0 -132 -4q-87 -3 -132 -3q-43 0 -138 -14q-102 -13 -137 -13q-131 0 -223 77q-91 79 -81 208q7 79 28 100l32 -21q-15 -36 -15 -70q0 -62 54 -101q50 -34 114 -34q94 0 288 12q210 13 288 13q84 0 152 -11q46 -10 94 -34.5t77 -54.5
q73 -81 63 -181q-3 -25 -13 -62h152z" />
    <glyph glyph-name="glyph80" horiz-adv-x="1434" 
d="M1419 1259l98 -109h-749v-812q19 -97 77 -97q73 0 192 94q102 85 124 137q25 56 22 76q-35 -7 -54 -7q-56 0 -98 36q-43 37 -43 96q0 65 37.5 107t106.5 42q94 0 149 -76q56 -74 56 -168q0 -140 -108 -261l1 1v-679l-59 60q-75 74 -136 91h1q-26 6 -89 6q-19 0 -81 -2
q-318 -12 -361 -9q-418 36 -418 414q0 103 54 201l50 -31q-30 -111 -26 -147q14 -137 100 -210.5t236 -80.5h27q5 0 125 2q128 4 211 4q78 0 123 -17q4 -1 8 -4q47 -25 49 -26q32 -15 88 -94v424q-139 -116 -260 -116q-73 0 -138 74q-64 73 -64 148v592q-111 230 -276 230
q-80 0 -138 -58q-55 -59 -55 -140q0 -106 86 -159q-3 20 -3 49q0 27 5 42q30 78 131 67q101 -12 101 -118q0 -42 -16 -73q-44 -83 -162 -83q-38 0 -73 13q-185 78 -185 267q0 121 78 205q80 86 194 86q107 0 174 -47q22 -16 89 -96h-1q34 -36 51 -104v260h475q57 37 57 83
q0 110 -255 110q-53 0 -132 -4q-86 -3 -131 -3q-43 0 -138 -14q-99 -13 -138 -13q-132 0 -221 77q-92 77 -84 208q8 78 30 100l31 -21q-15 -36 -15 -70q0 -62 54 -101q50 -34 114 -34q95 0 287 12q213 13 289 13q84 0 152 -11q48 -10 96 -34t77 -55q71 -80 62 -181
q-4 -37 -14 -62h153z" />
    <glyph glyph-name="glyph81" horiz-adv-x="1085" 
d="M1061 1259l99 -109h-427q260 -281 260 -637q0 -5 -0.5 -15.5t-0.5 -16.5q-5 -145 -125 -289q-126 -151 -267 -151q-162 -1 -265 111q-101 113 -101 276q0 40 17 91q146 47 257 168q124 131 124 273v15q0 11 -1 16v-1q-144 181 -239 181q-78 0 -136 -61t-58 -136
q0 -85 86 -135q-4 60 17 104q25 57 88 57q127 0 127 -117q0 -39 -14 -76q-34 -85 -161 -85q-40 0 -73 13q-185 77 -185 243q0 116 80 203q80 89 192 89q125 0 255 -150q-2 6 -4.5 15.5t-3.5 15.5l-64 95q-12 36 -89 187q-103 191 -103 313q0 126 117 224l122 -106
q-153 -58 -153 -198q0 -132 241 -407h388zM902 613q-4 194 -162 406q9 -60 9 -101q0 -30 -4 -47q-33 -186 -114 -293q-87 -115 -248 -193q-19 -10 -19 -69q0 -189 172 -189q66 0 145 42q111 70 168.5 183.5t52.5 260.5z" />
    <glyph glyph-name="glyph82" horiz-adv-x="1082" 
d="M1061 1259l99 -109h-427q260 -281 260 -637q0 -5 -0.5 -15.5t-0.5 -16.5q-4 -117 -90 -246v-595l-61 60q-77 77 -137 92q-5 2 -111 -3q-36 -3 -114 -17q-61 -12 -101 -10q-308 23 -308 314q0 70 30 161l49 -30q-12 -47 -12 -90q0 -37 7 -64v1q34 -126 227 -149
q26 2 85 14q68 13 134 13q74 0 125 -39q38 -25 87 -95v327q-96 -84 -202 -84q-162 -1 -265 111q-101 113 -101 276q0 40 17 91q146 47 257 168q124 131 124 273v29q-149 182 -240 182q-78 0 -136 -61t-58 -136q0 -85 86 -135q-4 60 17 104q25 57 88 57q127 0 127 -117
q0 -39 -14 -76q-34 -85 -161 -85q-40 0 -73 13q-185 77 -185 243q0 116 80 203q80 89 192 89q125 0 253 -146q-3 12 -6 27l-64 95q-12 36 -89 187q-103 191 -103 313q0 126 117 224l122 -106q-153 -58 -153 -198q0 -132 241 -407h388zM902 613q-4 194 -162 406q9 -60 9 -101
q0 -30 -4 -47q-33 -186 -114 -293q-87 -115 -248 -193q-19 -10 -19 -69q0 -189 172 -189q66 0 145 42q111 70 168.5 183.5t52.5 260.5z" />
    <glyph glyph-name="glyph83" horiz-adv-x="1247" 
d="M1142 726q0 -58 -43 -105q-3 -5 -27 -27q-18 -16 -56 -52q33 -44 69 -120q36 -79 37 -125q4 -85 -81 -145q-82 -54 -176 -46q-628 52 -799 999l48 -18q114 -371 245 -551q201 -276 502 -267q57 2 93.5 39t36.5 90q0 45 -28 91q-37 -36 -94 -36q-69 0 -106 45
q-35 45 -26 112q18 114 112 114q69 0 104 -63q104 35 104 126q0 113 -106 231l-109 -158l-36 63q0 79 -79 136q-79 58 -161 58q-69 0 -115 -46t-46 -114q0 -40 26 -90q28 -46 64 -46q7 0 16 4q-11 25 -11 46q0 43 28.5 70t68.5 25q95 -8 94 -121q-3 -66 -50 -98
q-49 -32 -110 -23q-102 15 -166 88q-62 71 -62 173q0 97 72 189t168 92q167 0 268 -218l119 190q45 -25 53 -125q18 -56 95 -181q64 -106 64 -206z" />
    <glyph glyph-name="glyph84" horiz-adv-x="1339" 
d="M1242 737q0 -73 -57 -134q-18 -16 -80 -49l6 -6q2 -3 20.5 -27t24.5 -32.5t18.5 -27.5t19 -33.5t9.5 -29.5v1q17 -56 12 -116q-6 -104 -114 -160v-346l-59 61q-44 40 -149 47q-47 1 -168 -12q-184 -22 -265 -22q-19 0 -45 2q-147 13 -235 107q-86 98 -86 240
q0 123 27 207l50 -31q-8 -27 -10 -99q0 -73 7 -105q16 -69 82 -118q64 -45 160 -56q18 -3 126 4q142 5 186 5q118 0 203 -32q54 -26 77 -41v162l-16 -2q-3 -1 -9.5 -1.5t-9.5 -0.5q-2 0 -6 -0.5t-7 -0.5q-5 -1 -18 -1h-18q-319 0 -528 279q-197 264 -257 721l70 -17
q84 -403 241 -596q188 -230 480 -223q101 5 149 36q36 27 36 87q0 28 -58 125q-37 -37 -94 -37q-59 0 -100 41q-39 42 -31 107q17 99 119 99q67 0 96 -39q104 36 104 127q0 86 -106 204l-108 -157l-35 62q0 75 -81 135q-80 59 -160 59q-69 0 -116 -46q-45 -45 -45 -115
q0 -43 25 -89q27 -47 64 -47q8 0 16 5q-11 22 -11 47q0 37 29 68q31 31 69 26q104 -16 102 -114q-2 -71 -58 -105q-53 -30 -112 -22q-109 23 -165 86q-61 70 -61 174q0 97 71 189t169 92q166 0 268 -218l148 201q41 -21 46 -56q11 -25 27 -96q1 -3 5.5 -22t6.5 -28
q14 -60 47 -115q62 -107 62 -181z" />
    <glyph glyph-name="glyph85" horiz-adv-x="1477" 
d="M1447 1259l98 -109h-748v-777q6 -44 26 -70.5t51 -26.5q77 0 186 91q107 85 133 169q20 75 18 95q-24 -6 -54 -6q-56 0 -96 34q-41 35 -41 91q0 67 38 111t102 44q92 0 149 -75t57 -170q0 -170 -147 -341q-156 -180 -319 -180q-73 0 -138 74q-64 73 -64 148v581
q-79 106 -151.5 167.5t-124.5 61.5q-74 0 -135 -61q-57 -62 -57 -136q0 -87 85 -135q-5 64 17 104q26 57 88 57q128 0 128 -117q0 -39 -14 -76q-34 -85 -163 -85q-39 0 -72 13q-186 79 -186 243q0 112 82 203q80 89 192 89q128 0 263 -157q10 -29 48 -98v244h749z" />
    <glyph glyph-name="glyph132" horiz-adv-x="1434" 
d="M1422 1259l98 -109h-748v-636q14 -95 76 -95q75 0 191 93q100 84 125 139q25 58 21 75q-30 -6 -53 -6q-59 0 -99 34q-42 36 -42 97q0 65 37.5 107t105.5 42q92 0 149 -75q56 -74 56 -171q0 -139 -108 -260l1 1v-671l-58 59q-73 73 -136 92q-49 0 -168 -4q-99 -5 -211 -5
q-98 0 -147 5q-149 12 -231 90v-1q-91 79 -91 223q0 75 29 162l47 -29q-11 -43 -11 -88q0 -38 7 -65q21 -58 84.5 -97.5t161.5 -50.5q62 -2 358 -2q87 0 182 -38q30 -14 86 -93v417q-142 -118 -260 -118q-71 0 -138 76q-63 73 -63 146v415q-111 230 -277 230q-80 0 -138 -58
q-54 -60 -54 -140q0 -110 85 -159q-3 30 -3 50q0 26 5 41q33 78 131 67q103 -12 103 -118q0 -40 -18 -73q-47 -83 -161 -83q-40 0 -72 13q-187 76 -187 267q0 121 79 206q76 85 193 85q106 0 174 -47q8 -8 90 -96q35 -42 50 -103v259h749z" />
    <glyph glyph-name="glyph133" horiz-adv-x="1085" 
d="M1049 1259l100 -109h-236v-1213l-110 112q-51 144 -156 228q-108 87 -225 87q-76 0 -135 -62q-58 -61 -58 -137q0 -84 86 -134q-5 64 17 104q25 55 88 55q127 0 127 -114q0 -40 -14 -79q-36 -83 -162 -83q-33 0 -72 14q-186 75 -186 242q0 112 81 202q80 87 193 90
q145 1 263 -75q113 -76 154 -201v407q0 210 -101 359q-87 129 -295 129q-106 0 -166 -63q-59 -62 -59 -156v-14q0 -10 1 -15q14 -156 138 -168q-19 27 -19 67q0 59 37 93.5t97 34.5q55 0 89 -48q32 -47 23 -102q-13 -75 -79 -118q-53 -35 -111 -35h-15q-5 0 -15 2
q-131 18 -200 100q-73 85 -73 215q0 149 85 246q100 112 269 112q71 0 149 -37q79 -37 126 -87q86 -102 123 -174q17 -57 42 -119q2 18 2 30q0 55 -17 155q-22 134 -22 157v301l68 -48q0 -80 23.5 -115.5t74.5 -35.5h70z" />
    <glyph glyph-name="glyph134" horiz-adv-x="1398" 
d="M1358 1259l100 -109h-223v-1199l-62 48q-28 128 -86 188q-57 60 -179 87q10 -30 10 -62q0 -42 -21 -72q-45 -62 -142 -62q-61 0 -109 42v-1q-48 42 -51 112q-1 88 60 136q61 47 150 45v181q0 209 -102 359q-87 129 -271 129q-106 0 -167 -63q-65 -71 -57 -185
q15 -155 138 -168q-19 31 -19 67q0 58 37 93t96 35q53 0 89 -48q34 -49 25 -102q-14 -74 -79 -118q-53 -35 -112 -35h-16q-5 0 -15 2q-130 18 -199 100q-73 85 -73 215q0 149 85 246q99 112 270 112q138 0 250 -124q88 -105 124 -174q17 -57 42 -119q2 18 2 30q0 55 -17 155
q-22 134 -22 157v301l67 -48q0 -80 23.5 -115.5t74.5 -35.5h379zM1137 193v957h-224v-757q131 -65 224 -200z" />
    <glyph glyph-name="glyph89" horiz-adv-x="1078" 
d="M1049 1259l100 -109h-236v-1222l-70 46q-47 120 -155 177q-120 56 -201 56q-49 0 -72 -20q30 -33 30 -75q0 -52 -38 -90q-36 -39 -88 -39q-67 0 -117 47q-50 50 -43 114q20 173 243 173q111 0 251 -69q92 -46 151 -120v465q0 210 -101 359q-87 129 -295 129
q-106 0 -166 -63q-59 -62 -59 -156v-14q0 -10 1 -15q13 -153 138 -167q-19 27 -19 66q0 58 37.5 93t96.5 35q53 0 88 -48q33 -48 24 -102q-13 -75 -80 -118q-53 -35 -110 -35h-15q-5 0 -15 2q-127 17 -200 100q-73 88 -73 215q0 149 85 246q99 112 269 112q69 0 149 -37
q85 -41 126 -87q86 -102 123 -174l18 -56l24 -63q1 4 1 12v15q0 61 -16 158q-22 134 -22 157v301l68 -48q0 -80 24 -115.5t74 -35.5h70z" />
    <glyph glyph-name="glyph90" horiz-adv-x="232" 
d="M61 759v99h55v-99h-55z" />
    <glyph glyph-name="glyph91" horiz-adv-x="1264" 
d="M1149 359q0 -157 -106 -257q-94 -89 -230 -89h-15q-10 0 -15 1q-126 10 -252.5 102t-232.5 246q-87 136 -148 286.5t-81 288.5l52 -30q58 -249 236 -473q90 -110 196 -176t202 -72q4 0 16 -0.5t15 -0.5q234 0 275 168q9 30 -18 71q-25 40 -54 48q-69 -50 -112 -50
q-131 0 -131 141q0 125 123 129q89 4 147 -49q41 44 41 146q0 68 -42 106t-111 38q-92 0 -196 -52q-111 -52 -148 -130q72 -54 72 -117q0 -115 -114 -115q-68 0 -109 47q-41 49 -40 113q9 155 175 263q151 93 314 90q113 -1 193 -77q80 -78 74 -184q-1 -4 -1.5 -13t-0.5 -13
q-3 -55 -5 -74q-12 -40 -46 -92q77 -103 77 -220zM1234 1259l101 -109h-1353l-101 109h1353z" />
    <glyph glyph-name="glyph92" horiz-adv-x="1288" 
d="M1249 1259l99 -109h-1361l-99 109h1361zM1169 449q0 -91 -51 -160q-38 -54 -114 -76v-438l-60 61q-140 132 -314 132q-48 0 -91 -7l-117 136l193 121q0 -1 2 0t6 4t6 4q-198 52 -350 277q-147 225 -210 541l75 -42q57 -236 233 -443q176 -198 409 -198q139 0 164 4
q97 23 120 106q13 65 -87 140q-44 -39 -81 -39q-47 0 -76 28.5t-29 73.5t30.5 76.5t74.5 31.5q29 0 75 -30q92 6 97 86q5 71 -67 93q-69 24 -112 22q-101 -5 -144 -27q-48 -23 -100 -88q47 -38 47 -103q0 -40 -37 -77q-35 -36 -85 -31q-129 13 -129 134q0 57 42 123
q37 56 147 121q74 43 194 56q24 2 36 2q79 0 151 -35q57 -29 94 -76t45 -101q12 -107 -105 -184q118 -97 118 -218zM925 -95v303l-102 -15h1q-132 -54 -228 -118q180 -12 329 -170z" />
    <glyph glyph-name="glyph93" horiz-adv-x="1294" 
d="M1247 1259l99 -109h-210v-1184h-16q-3 1 -16 11l-11 7l1 -1q-4 2 -11 8t-11 8q0 23 -41 103q-93 131 -303 209q-182 67 -354 69l-181 248q69 -20 124 -20q139 0 293 95q181 103 181 228q0 66 -83 146l-141 -160l-59 9q-8 79 -64 136q-57 57 -134 57q-78 0 -78 -75
q0 -20 3 -35q166 -36 166 -149q0 -41 -41 -79q-37 -33 -78 -31q-212 9 -202 244q6 99 80 173q75 73 172 72q24 -1 50 -15q27 -15 50 -38l5 -5q2 -2 5 -5.5t4 -5.5l58 -77l146 159q165 -162 175 -173q83 -101 77 -226q-9 -118 -101 -216q-88 -83 -198 -125q117 -28 242 -128
q114 -94 196 -200v1233l44 -56q11 -96 39 -102h123z" />
    <glyph glyph-name="glyph94" horiz-adv-x="1216" 
d="M1120 656q-10 -121 -96 -193v-555l-69 45q-50 79 -158 131q-108 57 -200 57q-50 0 -73 -20q30 -35 30 -75q0 -49 -38 -90q-39 -39 -86 -39q-68 0 -118 47q-51 46 -43 114q19 171 242 171q120 0 252 -67q89 -46 162 -125v350q-116 -58 -193 -58q-136 0 -265 61
q-90 46 -194 173q-76 89 -153 274q-55 133 -71 244l47 -19q114 -296 246 -425q56 -56 147 -100q88 -35 223 -34q82 0 182 58q111 65 111 156q0 56 -48 115q-32 38 -108 38q-49 0 -72 -23q21 -31 21 -64q0 -18 -4 -29q-30 -94 -119 -99q-77 -4 -123 46h1q-37 39 -39 96
q-2 71 55 128t150 64q7 1 19 1h20q157 0 262 -99q101 -95 101 -224v-16q0 -10 -1 -15zM1217 1259l97 -109h-1327l-99 109h1329z" />
    <glyph glyph-name="glyph95" horiz-adv-x="1400" 
d="M1352 1259l100 -109h-222v-1331l-56 34q-29 74 -45 109q-33 60 -74 99q-85 79 -171 106q2 -10 2 -16v-15q0 -138 -133 -138q-60 0 -106 37q-49 40 -52 92q-5 81 50 130q50 45 108 45q4 13 4 32q0 55 -29 98q-86 -26 -147 -19q-126 18 -232 77.5t-164 149.5
q-111 167 -166 400l68 -26q85 -218 136 -285q62 -82 177 -132q112 -46 211 -46q238 0 238 181q0 66 -34 115q-33 51 -93 51q-19 0 -37 -7q24 -30 24 -65q0 -54 -40 -91q-41 -36 -95 -36q-64 0 -102 44q-37 43 -37 99q0 80 64 131q57 43 140 45q142 4 218 -80q83 -84 78 -225
q-5 -180 -125 -245q57 -80 61 -178q160 -64 260 -221v1081h-1144l-99 109h1464z" />
    <glyph glyph-name="glyph96" horiz-adv-x="1705" 
d="M1115 513v-576l-60 60v-1l-23 21q-48 44 -74 66q-34 25 -170 33q-63 2 -145 -5q-97 -10 -145 -10q-194 0 -307 120q-99 105 -99 257q0 186 90 325l35 -37q-42 -116 -42 -259q0 -94 75 -172q85 -91 217 -83q230 13 276 13q71 0 158 -46q75 -41 116 -99v720q0 96 -74 96
q-49 0 -115 -24q-53 -21 -79 -40v1q-113 -102 -115 -175q26 7 43 7q42 0 74 -32q39 -36 39 -92q0 -62 -43 -102q-40 -40 -113 -34q-171 18 -171 205q0 63 44 146q42 82 119 146q130 111 301 111q57 0 128 -74q60 -66 60 -137v-191q1 -2 7 -11t8 -14q2 -3 10 -16t12 -21
q66 -81 158 -104q29 -6 56 -6q60 0 109 33q28 19 57 62q29 44 29 64q0 97 -69 127q1 -48 -28 -84q-29 -38 -78 -38q-26 0 -50 13q-62 27 -62 96q0 58 48 93q34 24 77 24q15 0 30 -3q100 -19 157 -97q57 -76 51 -178q-9 -108 -87 -168q-65 -47 -143 -47q-12 0 -34 2
q-127 13 -202 81v-1q-36 30 -56 55zM1678 1259l99 -109h-1790l-98 109h1789z" />
    <glyph glyph-name="glyph97" horiz-adv-x="1562" 
d="M1510 1259l99 -109h-1622l-98 109h1621zM1476 -85l-120 72q-28 66 -28 183q3 392 3 433q-3 77 -27 69q-20 5 -35 5q-73 0 -154 -65v-675l-60 60q-17 19 -97 86q-38 26 -170 33q-63 2 -145 -5q-99 -10 -145 -10q-194 0 -307 120q-99 105 -99 257q0 186 90 325l34 -37
q-41 -118 -41 -259q0 -92 74 -172q86 -91 218 -83q230 13 276 13q71 0 158 -46q75 -41 116 -99v720q0 96 -74 96q-51 0 -115 -24q-53 -21 -79 -40v1q-113 -102 -115 -175q26 7 43 7q42 0 74 -32q39 -36 39 -92q0 -62 -43 -102q-40 -40 -113 -34q-171 18 -171 205
q0 63 44 146q40 80 119 146q130 111 301 111q57 0 128 -74q60 -66 60 -137v-67q65 48 165 44q61 -2 109 -50q26 -28 60 -101q-32 -349 -32 -403q0 -182 59 -350z" />
    <glyph glyph-name="glyph98" horiz-adv-x="1196" 
d="M1120 656q0 -51 -36 -120q-37 -65 -87 -102v-497l-61 61q-2 9 -6.5 26t-6.5 24l-1 1v3q-17 41 -69 96q-49 52 -63 52q-11 0 -39 -14q-30 -17 -37 -42q-4 -16 -24 -43q-19 -25 -19 -37l-56 -21q-80 162 -174 193q-27 10 -55 10q-48 0 -89 -35q-45 -42 -45 -79
q0 -32 45 -37q40 43 88 43q33 0 62 -32t29 -70q0 -36 -35 -69q-35 -32 -86 -32q-56 0 -103 40q-58 51 -72 152q-3 12 -3 39q0 82 48 144q58 76 144 76q144 0 247 -196q83 119 181 114q13 0 49 -39q32 -35 52 -83v198q-77 -34 -162 -34q-120 0 -258 78q-115 68 -205 178
q-88 107 -144 234q-61 132 -80 265l47 -19q80 -260 246 -425q34 -35 145 -83q117 -53 225 -51q82 0 182 58q111 65 111 161q0 48 -41 110q-30 38 -115 38q-49 0 -72 -23q22 -29 22 -63q0 -49 -36.5 -85t-93.5 -42q-60 -5 -108 35q-49 39 -52 100q-5 84 54 140q60 57 156 66
q6 1 18 1h19q156 0 267 -104q97 -91 97 -259zM1217 1259l97 -109h-1327l-99 109h1329z" />
    <glyph glyph-name="glyph101" 
 />
    <glyph glyph-name="glyph102" horiz-adv-x="1738" 
d="M1708 1259l99 -109h-669v-332l20 -32q22 -36 30 -49q66 -84 159 -105q28 -7 58 -7q55 0 104 33q29 21 59 63q29 46 29 65q0 96 -69 127q2 -50 -28 -84q-29 -38 -79 -38q-28 0 -48 11q-64 28 -64 96q0 56 48 94q34 25 76 25q15 0 30 -3q102 -21 159 -98q60 -73 52 -178
q-8 -106 -88 -167q-67 -48 -145 -48q-10 0 -32 2q-126 14 -203 79q-15 13 -42 40q-15 16 -26 34v-741l-61 60q-52 46 -137 72q-21 6 -194 14q-121 -2 -316 8q-175 23 -266 160q-72 111 -72 234q0 127 38 206l40 -38q-11 -52 -11 -93q0 -60 19 -110q64 -182 285 -207h29
q170 0 360 -14q118 -18 212 -147q-20 105 -62 162q-33 52 -109 102q-131 88 -441 101l-173 227q114 4 278 60q92 37 145 84q91 79 103 174q9 62 -43 108t-116 46q-56 0 -125 -33q-67 -31 -88 -77q69 -31 65 -122q-1 -54 -45 -89q-40 -31 -101 -25q-60 6 -99.5 51t-39.5 109
q0 135 141 227q112 64 223 64q10 0 40 -2q117 -11 202 -101q86 -92 86 -208q0 -184 -294 -369q129 -35 249 -112q110 -75 178 -169v1168l47 -47q0 -80 24 -116t75 -36h524z" />
    <glyph glyph-name="glyph103" horiz-adv-x="1571" 
d="M1547 1259l99 -109h-508v-378q64 51 166 47q63 -1 108 -50q23 -23 62 -101q-34 -339 -34 -403q0 -182 59 -350l-118 72q-30 69 -30 183q3 392 3 433q-3 75 -25 69q-22 5 -37 5q-78 0 -154 -67v-673l-61 60q-43 43 -138 72q-23 6 -193 14q-121 -2 -316 8q-175 23 -266 160
q-72 111 -72 234q0 127 38 206l40 -38q-11 -52 -11 -93q0 -60 19 -110q64 -182 285 -207h29q170 0 360 -14q119 -18 212 -147q-20 105 -62 162q-31 48 -109 102q-131 88 -441 101l-174 227q115 4 279 60q94 39 145 84q91 79 103 174q9 62 -43 108t-116 46q-56 0 -125 -33
q-67 -31 -88 -77q69 -31 65 -122q-1 -54 -45 -89q-40 -31 -101 -25q-60 6 -99.5 51t-39.5 109q0 135 141 227q112 64 223 64q9 0 39 -2q118 -10 203 -101q86 -92 86 -208q0 -185 -295 -369q129 -33 250 -112q113 -79 178 -169v1168l47 -47q0 -80 24 -116t75 -36h363z" />
    <glyph glyph-name="glyph104" horiz-adv-x="232" 
d="M61 759v99h55v-99h-55z" />
    <glyph glyph-name="ch233" horiz-adv-x="1912" 
d="M1868 1259l99 -109h-232v-1213l-100 99l7 552q4 150 -99 321q-58 87 -130 140.5t-147 64.5q-20 3 -39 3q-81 0 -151 -45q-83 -57 -84 -152q60 22 158 22q89 0 141 -40q62 -50 64 -138q-14 -192 -207 -382l-122 136q115 81 179 167q63 78 64 125q1 48 -47 48
q-39 0 -129 -38q-112 -50 -134 -49h-6q-4 0 -5 1q-66 -148 -87 -238q-35 -135 -35 -319q0 -143 34 -280l-60 29q-68 310 -68 451q0 241 42 355q-313 -100 -495 -455l-118 122q-20 25 -16 30v683h-158l-98 109h850l99 -109h-594v-533q265 280 538 365l57 -40q6 140 110 217
q122 84 251 80q174 -7 288 -115q99 -98 173 -307q-4 33 -12 118q-14 148 -14 222v301l47 -47q0 -80 23.5 -116t74.5 -36h88z" />
    <glyph glyph-name="ch234" horiz-adv-x="1881" 
d="M1843 1259l99 -109h-239v-1213l-61 61q-9 38 -34 91q-63 134 -195 229q-134 90 -323 99l-140 156q50 61 239 235q-41 -10 -84 -10q-24 0 -44 4q-59 13 -87 27q-84 -182 -113 -295q-35 -135 -35 -319q0 -143 34 -280l-60 29q-68 310 -68 451q0 241 42 355
q-313 -100 -495 -455l-118 122q-20 25 -16 30v683h-158l-98 109h1954zM1603 216v934h-426q-63 0 -108 -48q-43 -45 -41 -110q7 -117 149 -121q78 -1 110 23l66 53l111 -110q-48 -23 -156 -117v1q-95 -85 -143 -143q133 -35 255 -138q115 -97 183 -224zM853 1012
q-7 86 39 138h-648v-533q265 280 538 365l103 -76q-24 37 -32 106z" />
    <glyph glyph-name="glyph107" horiz-adv-x="1219" 
d="M1185 1259l99 -109h-1079v-488q179 236 397 360l156 -132q-175 -221 -175 -332q0 -37 20 -63q34 77 179 202q128 106 232 147l170 -113q-182 -223 -182 -597q0 -85 49 -214l-67 41q-75 212 -75 398q0 161 71 313q-260 -185 -362 -436q-40 65 -80 143q-44 81 -52 147
q-6 73 96 331q-86 -49 -186 -172q-129 -154 -163 -284l-127 125v624h-119l-99 109h1297z" />
    <glyph glyph-name="glyph108" horiz-adv-x="1508" 
d="M1462 1259l98 -109h-1180v-436q164 215 377 331l176 -126q-72 -48 -130 -151q-58 -97 -58 -173q0 -50 38 -85q24 63 195 209q66 52 171 87q101 36 156 34l129 -112q-98 -134 -128 -201q-75 -165 -71 -357q2 -157 38 -274q-44 30 -66 48q-93 84 -200 102q-25 4 -78 4
q-59 0 -127 -4q-230 -13 -324 -13h-20q-11 0 -14 1q-86 10 -163.5 49.5t-121.5 101.5q-81 105 -81 239q0 13 2 43q11 120 43 192l42 -39q-14 -64 -14 -115q0 -32 7 -72q24 -100 86 -162q84 -76 223 -81q103 6 250 6q101 0 223 -3q133 -23 235 -140q-5 20 -10 36l-17 60
q-22 79 -21 132q11 212 92 387q-111 -34 -214 -134q-117 -111 -153 -232l-119 100q-51 43 -68 168q-4 27 -4 57q0 49 12 91l54 140q-91 -60 -168 -149q-110 -136 -152 -257l-127 127v571h-293l-99 109h1574z" />
    <glyph glyph-name="glyph109" horiz-adv-x="1230" 
d="M1002 134v-496l-61 45q-116 150 -374 174l-93 161q75 93 204 158l230 115l3 -5q-2 24 -2 37v36q0 161 71 313q-260 -185 -362 -436q-40 65 -80 143q-44 81 -52 147q-6 73 96 331q-86 -49 -186 -172q-129 -154 -163 -284l-127 125v624h-119l-99 109h1298l99 -109h-1080
v-488q179 236 397 360l156 -132q-175 -221 -175 -332q0 -37 20 -63q34 77 179 202q128 106 232 147l170 -113q-182 -223 -182 -597zM902 -196v347l-142 -72q-91 -48 -133 -91q144 -36 275 -184z" />
    <glyph glyph-name="glyph110" horiz-adv-x="1303" 
d="M803 940l22 -40q34 -69 34 -158v-16q103 44 173 65q38 12 84 -15q44 -28 61 -78q19 -51 19 -171q0 -15 -3 -75v-106q0 -53 -1 -92v-24q0 -4 -0.5 -13.5t-0.5 -15.5v-114q0 -157 33 -224q-61 21 -108 77q-46 62 -46 128q0 509 -4 556q-39 0 -207 -73v-696q-7 6 -17.5 16.5
l-16.5 16.5l-36 35q-90 121 -196 195q-125 83 -262 100l-39 43q-16 17 -28 30t-17.5 19t-8.5 9q-12 12 -28 30q106 90 280 194q149 90 258 140v59q0 36 -6 84q-15 53 -57 53q-123 0 -256 -96q-113 -76 -200 -194q-35 37 -57 60q-36 36 -41 36v465h-144l-107 109h1384
l108 -109h-1134v-312q87 93 207 148q104 52 190 52q103 0 168 -98zM742 74l6 1v425q-99 -24 -291 -169q82 -39 163 -108q67 -61 122 -149z" />
    <glyph glyph-name="glyph111" horiz-adv-x="1294" 
d="M845 -58v-234l-60 45q-113 149 -372 174l-95 161q74 86 178 144q-62 26 -131 33l-108 122q83 73 258 180q129 79 233 125v54q0 133 -69 133q-123 0 -253 -94q-114 -78 -200 -190q-85 91 -95 91v464h-144l-99 109h1377l99 -109h-1135v-324q92 95 207 152q105 52 194 52
q102 0 164 -94q52 -77 52 -190v-18q129 56 165 63q33 7 73 -16q36 -20 55 -70q17 -48 17 -156v-83q-2 -64 -2 -82v-134q-3 -88 -3 -105q0 -146 32 -205q-58 19 -100 73q-40 52 -40 116q0 442 -2 512q-25 -1 -195 -69q0 -106 -0.5 -315t-0.5 -315zM748 123v403
q-81 -10 -270 -157q171 -82 270 -246zM747 -128v174q-57 63 -120 113q-2 -1 -11.5 -5t-11.5 -6q-100 -52 -131 -91q140 -34 274 -185z" />
    <glyph glyph-name="glyph112" horiz-adv-x="1017" 
d="M974 1259l98 -109h-838v-479q89 90 244 191q119 73 279 97l198 -120q-152 -311 -152 -601q0 -59 34 -300l-61 26q0 16 -4 36v-1q-146 176 -288 176q-54 0 -87 -27q24 -43 24 -72q0 -50 -31 -88q-31 -37 -83 -42q-65 -5 -110 29q-53 38 -53 112q0 89 74 142q64 45 153 45
q199 0 364 -152q-18 82 -23 288q-2 131 40 361q-122 -11 -249 -106q-160 -129 -225 -256l-143 149v592h-148l-99 109h1086z" />
    <glyph glyph-name="glyph113" horiz-adv-x="1135" 
d="M1106 1259l101 -109h-762v-239q50 32 168 76q114 43 187 52q38 -17 104 -74q58 -52 85 -92q-70 -31 -116 -144q-31 -85 -31 -153v-15q0 -10 1 -15l94 78q27 22 52 -3q86 -95 86 -244q0 -128 -105 -246q-124 -122 -295 -122q-211 0 -381 228q-120 167 -184 375
q-68 227 -68 448l56 -43q22 -210 86 -378q80 -209 202 -336q128 -127 278 -127q111 0 203 53q91 53 126 152q7 14 5 57q-5 42 -23 50q-187 -156 -325 -156q-66 0 -127 49q-63 49 -63 109q0 129 121 129q41 0 74 -36t33 -73q0 -18 -13 -48q59 -1 119 46q-33 85 -33 202
q0 92 32 161q-197 -40 -336 -155l-111 134v300h-359l-99 109h1218z" />
    <glyph glyph-name="glyph160" horiz-adv-x="1194" 
d="M1051 623v-724q-83 98 -145 124h1q-16 3 -101 14q-27 0 -47 -3q-72 -2 -122 -2q-43 0 -140 -9q-76 -7 -117 -5q-138 12 -242 117q-84 99 -84 216q0 144 46 226l43 -42q-14 -44 -14 -153q0 -71 70 -132q69 -60 176 -83q6 -2 14 -2h53q9 0 39 2q37 3 74.5 5.5t60.5 4
t34 2.5q98 2 176 -27q78 -27 126 -101v485q-130 -232 -309 -232q-92 0 -142 40q-57 45 -57 113q0 62 42 98v-1q42 39 93 34q47 -5 83 -38v1q36 -30 36 -77q0 -21 -5 -36q62 14 140 95q-31 87 -31 197q0 96 31 162q-45 -10 -219 -102q-171 -93 -255 -159l-111 132v387h-261
l-99 109h1268l99 -109h-907v-324q88 58 239 131q186 92 254 104q49 -25 104 -75q58 -52 84 -92q-70 -30 -116 -143q-28 -72 -30 -143q11 23 29 66q14 2 26 2q89 0 113 -53z" />
    <glyph glyph-name="glyph161" horiz-adv-x="1178" 
d="M1150 1259l100 -109h-251v-1213l-61 61q-24 121 -84 196q-59 74 -123 74q4 -56 -43 -100q-48 -45 -112 -45q-158 0 -158 158q0 83 57 123q58 40 144 40q-31 99 -31 185q0 117 4 142q-248 -127 -357 -279l-127 116v542h-121l-99 109h1262zM900 250v900h-693v-414
q203 178 383 233l207 -106q-51 -47 -88 -151q-28 -88 -28 -181q0 -58 14 -98q53 -22 118 -81q61 -55 87 -102z" />
    <glyph glyph-name="glyph162" horiz-adv-x="1622" 
d="M1589 1259l100 -109h-1307v-503q123 122 230 186q150 84 282 111l197 -114q-38 -55 -69 -117l41 -69q68 -83 160 -104q29 -6 56 -6q60 0 108 33q29 20 58 62q29 44 29 64q0 95 -70 128q0 -48 -29 -86q-30 -36 -78 -36q-27 0 -49 12q-61 25 -61 97q0 56 47 91q34 25 76 25
q14 0 29 -3q100 -19 160 -97q55 -77 49 -179q-11 -106 -86 -167q-68 -49 -147 -49q-8 0 -30 2q-122 13 -203 81q-69 62 -86 114v1q0 2 -1 4.5t-2 3.5q-42 -129 -42 -274q0 -7 0.5 -19t0.5 -19q4 -135 60 -387l-63 66q-69 69 -167 83q-25 4 -63 4q-64 0 -143 -13
q-7 -2 -21.5 -4.5t-21.5 -3.5q-91 -19 -144 -19q-13 0 -39 2q-175 13 -261 146q-54 93 -54 207q0 12 2 38q55 202 60 219l43 -39q-30 -128 -30 -165q0 -30 4 -47v1q30 -104 68 -136q56 -53 193 -56q34 0 121 14t126 14q161 0 294 -157q-74 185 -82 367q0 6 -0.5 18.5
t-0.5 18.5q0 133 28 263q-75 -13 -211 -108q-131 -89 -224 -235l-144 149v587h-295l-98 109h1700z" />
    <glyph glyph-name="glyph163" horiz-adv-x="1474" 
d="M1420 -23v-65l-40 39v-1l-1 1q-1 1 -1 2t-2 2t-3 3q-1 0 -5.5 4t-7.5 6l-52 53q-22 24 -33.5 77.5t-11.5 184.5q0 302 27 425q-9 11 -19 11q-3 0 -16 -7t-35.5 -21t-43.5 -27t-53.5 -34t-53.5 -34q-61 -40 -63 -41q-9 -5 -23.5 -14.5t-15.5 -10.5q-16 -77 -16 -166v-21
q0 -13 1 -20q3 -123 48 -336v1q3 -4 3 -9q2 -4 4 -24l2 -17l-67 67v-1q-5 3 -15.5 10.5t-16.5 11.5q-25 18 -39 27t-38 18.5t-51 13.5q-25 4 -63 4q-64 0 -143 -13q-6 -2 -17 -4t-17 -3q-78 -19 -154 -19h-19q-12 0 -19 1q-176 14 -261 146q-54 94 -54 204q0 11 2 41
q1 20 60 219l43 -39q-30 -124 -30 -165q0 -30 4 -47v1q29 -101 68 -136q56 -53 193 -56q34 0 121 14q71 14 126 14q165 0 294 -157q-76 186 -82 367q0 6 -0.5 18.5t-0.5 18.5q0 138 27 263q-70 -13 -210 -108q-133 -92 -224 -235l-144 149v587h-295l-99 109h1556l98 -109
h-1160v-503q123 123 230 186q150 84 282 111l197 -114q-27 -37 -68 -117q36 21 112 70q118 78 127 78q12 0 26 -10.5t22 -26.5q10 -19 37.5 -54.5t54.5 -57.5q-26 -192 -26 -368q0 -245 44 -367z" />
    <glyph glyph-name="glyph164" horiz-adv-x="232" 
d="M61 759v99h55v-99h-55z" />
    <glyph glyph-name="glyph165" horiz-adv-x="232" 
d="M61 759v99h55v-99h-55z" />
    <glyph glyph-name="glyph166" horiz-adv-x="1064" 
d="M1020 1259l99 -109h-233v-1213l-65 64q-53 71 -172 145q-55 29 -116 29q-53 0 -86 -27q23 -39 23 -72q0 -51 -31 -88q-32 -38 -82 -42q-65 -5 -110 29q-53 38 -53 112q0 89 74 142q64 45 154 45q205 0 363 -152v77q-5 18 -12 31q-45 91 -238 177q-153 67 -302 62
l-132 174q78 70 146 118q20 13 150 104q-98 2 -164 54q-88 73 -88 166q0 94 54 148q55 55 128 66q66 9 119 -26q51 -35 51 -98q0 -65 -43 -92q-34 -20 -67 -20q-19 0 -31 4q-50 18 -64 35q-26 -18 -26 -53q0 -41 56 -85q46 -34 134 -34q23 0 83 25q110 61 246 118v186h235z
M785 303v597q-120 -53 -251 -134q-169 -104 -211 -155q171 -50 305 -149q112 -79 157 -159z" />
    <glyph glyph-name="glyph167" horiz-adv-x="1255" 
d="M1213 1259l99 -109h-227v-1213l-61 61q-22 75 -74 122q-51 48 -99 48h-9q-3 0 -9 -2q2 -14 2 -23q0 -48 -34 -82h1q-38 -45 -102 -45q-70 0 -110 42q-40 40 -40 94q0 61 43 104q42 42 87 46q-4 15 -25 60q-30 69 -160 132q-112 53 -219 53q-14 0 -38 -2l-131 156
q87 102 263 207q-96 10 -150 52q-77 66 -77 159q0 73 43 123q56 62 169 62q42 0 81 -34q35 -33 35 -78q0 -41 -30 -77q-32 -34 -75 -34q-44 0 -68 25q-9 -5 -14 -35q-5 -33 7 -49q40 -58 129 -58q28 0 42 9l211 108v178h540zM986 163v987h-214v-848q138 -28 214 -139z
M673 434v482q-57 -19 -189 -103q-152 -99 -181 -128q133 -37 241 -118q97 -78 129 -133z" />
    <glyph glyph-name="glyph168" horiz-adv-x="1558" 
d="M1553 1259l100 -109h-651v-370l30 -52q8 -10 15 -24q67 -82 160 -104q29 -6 55 -6q59 0 108 32q29 20 58 62q29 44 29 64q0 100 -69 128q2 -50 -29.5 -86.5t-78.5 -36.5q-26 0 -47 12q-63 25 -63 98q0 57 48 92q33 24 75 24q15 0 30 -3q104 -18 160 -95q56 -74 50 -179
q-11 -112 -87 -169q-64 -49 -147 -49q-8 0 -30 2q-127 15 -203 83v-1q-45 38 -64 69v-704l-63 60q-65 59 -134 72q-16 4 -55 4q-45 0 -97 -4q-7 -1 -48 -3q-182 -12 -192 -13q-139 -5 -231 78q-87 81 -106 213q-5 35 -5 68q0 57 15 123l61 -44q0 -110 16 -151
q24 -64 99 -97.5t184 -34.5l121 9q75 2 129 -7q119 -18 207 -115v104q-24 55 -89.5 109t-161.5 99q-181 78 -303 74l-131 175q36 30 145 107q18 11 63.5 40t67.5 43l2 2q1 1 3.5 2.5t3.5 2.5q-74 5 -154 66q-88 73 -88 166q0 95 57 150q58 58 131 64q70 4 112 -24
q52 -36 52 -100q0 -65 -43 -92q-34 -20 -67 -20q-18 0 -29 4q-45 17 -64 36q-26 -17 -26 -54q0 -40 59 -88q65 -45 130 -45q25 0 83 24q189 108 247 133v186h650zM903 303v586q-87 -33 -259 -132q-134 -79 -203 -134q174 -45 308 -154q105 -87 154 -166z" />
    <glyph glyph-name="glyph169" horiz-adv-x="1480" 
d="M1437 1259l98 -109h-533v-385q64 58 175 54q59 -1 107 -50q26 -28 60 -101q-34 -339 -34 -403q0 -187 60 -350l-118 72q-28 66 -28 183q2 328 2 352v81q-2 77 -27 69q-18 5 -35 5q-82 0 -162 -74v-666l-63 60q-57 57 -134 72q-16 4 -55 4q-45 0 -97 -4q-7 -1 -48 -3
q-182 -12 -192 -13q-139 -5 -231 78q-87 81 -106 213q-5 35 -5 68q0 57 15 123l61 -44q0 -110 16 -151q24 -64 99 -97.5t184 -34.5l120 9q76 2 130 -7q123 -20 206 -115v104q-48 113 -250 208q-181 78 -303 74l-131 175q36 30 145 107q18 11 63.5 40t67.5 43l2 2
q1 1 3.5 2.5t3.5 2.5q-74 5 -154 66q-89 73 -89 166q0 95 58 150q58 58 131 64q70 4 112 -24q52 -37 52 -100q0 -66 -44 -92q-32 -20 -66 -20q-18 0 -29 4q-45 17 -64 36q-26 -17 -26 -54q0 -40 59 -88q65 -45 129 -45q26 0 84 24q180 103 246 133v186h535zM902 303v586
q-92 -35 -258 -132q-134 -79 -203 -134q174 -45 308 -154q109 -90 153 -166z" />
    <glyph glyph-name="glyph170" horiz-adv-x="232" 
d="M61 759v99h55v-99h-55z" />
    <glyph glyph-name="glyph171" horiz-adv-x="232" 
d="M61 759v99h55v-99h-55z" />
    <glyph glyph-name="glyph172" horiz-adv-x="1386" 
d="M1360 1259l99 -109h-747v-812q4 -45 24 -71t52 -26q77 0 186 91q111 92 132 170q23 81 19 95q-27 -7 -53 -7q-57 0 -97 34q-41 35 -41 92q0 66 38 110t102 44q95 0 150 -76q56 -74 56 -168q0 -166 -146 -342q-158 -180 -320 -180q-73 0 -138 74t-65 148v392
q-105 165 -245 165q-50 0 -77 -20q34 -34 34 -81q0 -46 -37 -83q-36 -36 -88 -36q-60 0 -100 36t-40 93q0 89 51 140q78 73 173 73q200 0 329 -186v331h-624l-99 109h1199q58 39 58 93q0 110 -254 110q-57 0 -133 -4q-86 -3 -131 -3q-43 0 -138 -14q-91 -13 -139 -13
q-132 0 -221 77q-92 78 -82 208q8 78 27 100l32 -21q-15 -36 -15 -70q0 -65 55 -101q46 -34 114 -34q96 0 287 12q189 13 288 13q85 0 153 -11q106 -22 172 -89q72 -81 63 -181q-4 -45 -14 -72h151z" />
    <glyph glyph-name="glyph173" horiz-adv-x="1440" 
d="M1390 1259l98 -109h-776v-775q0 -166 157 -166q95 0 189 94q50 53 93 136q42 82 44 123q-18 -2 -48 -2q-49 0 -89 33q-41 33 -41 100q0 60 41 99t106 39q68 0 134 -66q55 -66 48 -167q-8 -103 -59 -208v-684l-60 60q-79 76 -135 92q-15 0 -168 -5q-50 -2 -110 -13
q-61 -11 -97 -7q-145 12 -231 89q-92 84 -92 223q0 71 30 162l47 -29q-11 -52 -11 -91q0 -35 7 -62q31 -125 245 -148q29 3 80 9q66 9 130 9q91 0 181 -38q30 -15 85 -92v379q-43 -42 -168 -112q-56 -32 -158 -32h-18q-11 0 -18 1q-87 15 -152 89q-63 74 -63 185v343
q-105 165 -245 165q-42 0 -77 -20q34 -35 34 -81q0 -49 -36 -84t-89 -35q-60 0 -100 36t-40 93q0 89 51 140q76 73 173 73q202 0 329 -186v331h-624l-99 109h1352q9 7 14.5 30.5t1.5 44.5q-3 111 -195 115q-5 0 -16.5 0.5t-19.5 0.5q-56 0 -202 -8q-40 -2 -59 -2
q-111 0 -177 22q-200 65 -200 240q0 73 37 143l37 -14q-17 -61 -17 -102q0 -115 160 -137q28 -4 97 -4q75 0 162 4q83 3 138 3q71 0 103 -5q218 -47 242 -331h44z" />
    <glyph glyph-name="glyph174" horiz-adv-x="1134" 
d="M1103 1259l100 -109h-420q252 -286 252 -626q0 -191 -104 -325q-60 -72 -147 -115q-91 -46 -168 -47q-188 -4 -314 99q-149 128 -149 311q0 22 5 54q291 64 449 221q-124 197 -241 197q-50 0 -77 -20q34 -37 34 -80q0 -48 -37 -85q-38 -35 -88 -35q-61 0 -100.5 35.5
t-39.5 94.5q0 83 57 141q73 69 167 69q107 0 204 -76q103 -80 161 -198q73 97 73 204q0 88 -49 181h-684l-99 109h721q-19 32 -50.5 80t-42.5 69q-82 151 -82 278q0 136 106 245l124 -77q-138 -75 -138 -207q0 -169 203 -388h374zM925 606q0 204 -111 345q0 1 0.5 3t0.5 3
l-4 -1q1 -3 3 -5q-11 -214 -124 -332q-75 -76 -295 -199q-75 -40 -76 -76q-5 -93 64 -154q71 -59 171 -59q147 0 267 142q104 137 104 333z" />
    <glyph glyph-name="glyph129" horiz-adv-x="1259" 
d="M1233 1259l110 -109h-631v-440q0 -49 31 -49t65 34q85 81 143 176q20 32 49 32q21 0 39 -20q101 -101 120 -282q17 -129 -21 -267q-59 -210 -269 -284q-94 -32 -218 -23q-107 5 -210 81q-94 67 -152 164q-88 147 -140 355l94 -48q51 -183 157 -259q124 -91 300 -104
q63 -2 147 22q132 40 192 140q32 62 40 198q2 104 -51 157q-52 -79 -135 -166q-26 -26 -80 -46q-50 -19 -90 -14q-79 9 -106 72q-14 37 -14 126v108q-101 114 -205 114q-48 0 -74 -17q35 -37 35 -82q0 -50 -39 -88q-37 -37 -95 -37q-63 0 -103.5 37t-40.5 97q0 93 51 145
q73 76 178 76q167 0 293 -134v226h-618l-109 109h1357z" />
    <glyph glyph-name="glyph130" horiz-adv-x="1267" 
d="M1211 1259l99 -109h-567v-413q0 -51 35 -51q30 0 68 34q33 32 143 152h-1q14 27 43 27q18 0 37 -17q110 -114 117 -267q0 -5 0.5 -15t0.5 -16q0 -191 -110 -325q-2 -4 -5 -8v-467l-61 61q-36 39 -149 47q-43 2 -168 -12q-259 -31 -311 -27q-148 13 -241 112
q-94 100 -94 245q0 128 26 205l49 -30q-9 -36 -10 -99q0 -73 7 -105q21 -72 91 -120q75 -54 168 -63q18 -3 126 7q121 10 187 10q119 0 203 -33q48 -22 78 -41v227q-122 -72 -293 -72q-105 0 -220 72q-108 65 -168 151q-74 109 -88 135q-33 68 -51 173l64 -45
q62 -148 195 -236q105 -72 278 -72q59 0 154 29q96 32 139 69q61 52 97 98q38 59 39 125q5 89 -61 132q-18 -24 -134 -142q-33 -30 -78 -47q-47 -19 -86 -14q-76 9 -101 78q-14 44 -14 130v87q-100 112 -205 112q-51 0 -79 -19q36 -34 36 -81q0 -49 -38 -85q-42 -35 -89 -35
q-61 0 -99.5 35.5t-38.5 93.5q0 93 48 141q69 70 173 70q169 0 292 -135v234h-657l-99 109h1323z" />
    <glyph glyph-name="glyph177" horiz-adv-x="1255" 
d="M1373 -618l-3 -2q-157 158 -343 268q-30 -42 -93 -82q-65 -42 -122 -50q-18 -3 -36 -3q-63 0 -111 33q-71 50 -66 137q2 74 68 117q56 38 133 39q116 4 190 -52q11 22 16 63q-40 36 -145 42q-43 2 -168 -12q-259 -31 -311 -27q-148 13 -241 112q-94 100 -94 245
q0 128 26 205l49 -30q-9 -36 -10 -99q0 -73 7 -105q21 -72 91 -120q75 -54 168 -63q18 -3 126 7q121 10 187 10q119 0 203 -33q48 -22 78 -41v227q-122 -72 -293 -72q-105 0 -220 72q-108 65 -168 151q-74 109 -88 135q-34 69 -50 173l63 -45q62 -148 195 -236
q105 -72 278 -72q61 0 154 29q96 32 139 69q61 52 97 98q37 55 39 125q5 90 -61 132q-18 -24 -134 -142q-33 -30 -78 -47q-47 -19 -86 -14q-76 9 -101 78q-14 44 -14 130v87q-100 112 -205 112q-51 0 -79 -19q36 -34 36 -81q0 -49 -38 -85q-42 -35 -89 -35q-61 0 -99.5 35.5
t-38.5 93.5q0 90 48 141q69 70 173 70q169 0 292 -135v234h-657l-99 109h1323l99 -109h-567v-413q0 -51 36 -51q29 0 67 34q33 32 143 152h-1q14 27 43 27q18 0 37 -17q110 -114 117 -267q0 -5 0.5 -15t0.5 -16q0 -191 -110 -325q-2 -4 -5 -8v-463q-1 -5 -1 -14v-15
q0 -5 -0.5 -13t-0.5 -14q1 0 2 -1t2 -1l26 -19q187 -136 258 -244q4 -39 16 -85zM796 -406q109 26 154 105q-64 48 -152 48q-124 0 -128 -76q-2 -44 39 -64q38 -21 87 -13zM952 -303l-1 3l-1 -1z" />
    <glyph glyph-name="glyph178" horiz-adv-x="1242" 
d="M1207 357q5 -188 -143 -303q-98 -75 -258 -75q-136 0 -278 102q-128 93 -221 245l-92 160q-45 89 -68 170q-50 171 -55 281l72 -32q8 -45 68 -235q48 -128 177 -290q65 -86 190 -155q121 -67 214 -67q108 0 175 34q113 62 129 163q12 83 -49 146q-48 51 -121 51
q-29 0 -51 -7q22 -29 19 -73q-5 -94 -87 -117q-27 -10 -58 -10q-66 0 -105 43t-39 115q0 74 67 132t168 58q-38 17 -82 54q-78 64 -115 97q-30 21 -53 30q5 -18 5 -32q0 -49 -41 -90q-40 -40 -91 -40q-63 0 -109 43t-46 103q0 69 50 110t131 41q61 0 170 -56l155 -89
q46 -27 97 -27q50 0 82 25q44 39 44 131q0 116 -56 157h-1030l-109 109h1322l109 -109h-185q20 -29 32 -61q21 -86 21 -158q0 -151 -74 -204q-55 -45 -110 -52q89 -30 153 -109q76 -88 76 -209z" />
    <glyph glyph-name="glyph179" horiz-adv-x="1276" 
d="M1213 248q2 -88 -62 -157q-56 -62 -132 -86q-69 -20 -138 -20q-206 0 -394 142q-114 86 -179 184q-178 271 -264 690l85 -48q105 -397 269 -585q174 -200 435 -234q85 -9 178 23q103 33 111 96q0 24 -28 49q-27 25 -68 30q-28 -37 -85 -37q-47 0 -77.5 30.5t-30.5 76.5
q0 49 31 82.5t77 33.5q29 0 78 -32q93 4 93 82q0 49 -70 77q-56 27 -108 24q-84 -5 -144 -38q-51 -25 -90 -75q39 -32 39 -91q0 -45 -34 -79q-33 -34 -84 -34q-59 0 -96.5 36t-37.5 91q0 47 43 114q44 69 137 122q59 32 136 47q-12 8 -32 24l-114 96q-26 18 -52 30
q5 -18 5 -32q0 -48 -40 -88q-39 -39 -90 -39q-62 0 -108 42t-46 101q0 69 49.5 109.5t130.5 40.5q62 0 166 -55q4 -2 154 -89q46 -27 108 -27q64 0 95.5 27t31.5 93q0 96 -86 155h-1003l-108 109h1399l110 -109h-292l3 -5q15 -15 45 -56q42 -55 42 -149q0 -113 -68 -169
q-23 -18 -47 -31q1 -1 3 -1q53 -24 97 -77q45 -52 40 -94q-8 -85 -98 -149q115 -82 115 -171z" />
    <glyph glyph-name="glyph180" horiz-adv-x="1118" 
d="M956 636v-699l-62 63q-27 42 -78 63q-29 13 -88 13q-47 0 -87 -5q-202 -25 -228 -25q-175 0 -266 91q-96 101 -96 259q0 100 57 195l42 -32q-30 -125 -30 -159q0 -205 269 -205q31 0 102 11t104 11q99 0 164 -43q21 -7 100 -77v461q0 159 -88 159q-74 0 -133 -62
q-50 -50 -74 -133q16 3 25 1l8 -4q36 0 58 -31q24 -32 24 -69q0 -54 -48 -87q-33 -21 -72 -21q-60 0 -102 51q-37 46 -37 107q0 18 3 38q26 157 186 254q-23 16 -47 39q-57 63 -83 82q-32 23 -57 23q-26 0 -55 -18q13 -19 13 -40q0 -45 -41 -83q-38 -38 -86 -38
q-60 0 -105 39t-45 99q0 65 50 115q51 51 126 51q96 0 203 -61l121 -82q40 -21 79 -21q51 0 100 28q27 18 62 72q33 57 33 110q0 38 -21 74h-869l-99 109h1189l101 -109h-239q22 -76 22 -150q0 -141 -93 -225q2 -2 3 -2l17 -13q68 -92 68 -124z" />
    <glyph glyph-name="glyph181" horiz-adv-x="1242" 
d="M1171 440q2 -185 -139 -294q-50 -39 -119 -57q16 -34 31 -57v-465l-61 45q-116 151 -374 173l-92 162q78 96 202 159l4 1q-56 26 -110 65q-128 95 -217 239l-84 143q-42 76 -73 180q-51 171 -52 267l63 -28q10 -45 66 -228q48 -123 175 -287q71 -85 186 -151
q125 -67 210 -67q107 0 173 36q53 28 75 50q40 41 53 112q11 82 -47 147h1q-49 49 -122 49q-35 0 -61 -8q28 -28 27 -73q-5 -91 -86 -113q-25 -7 -54 -7q-64 0 -101.5 40t-37.5 111q0 69 66 126q56 44 133 52l-3 2q-3 3 -5 6q-23 20 -37 34l-38 34q-3 3 -7.5 7t-5.5 5h1
q-27 24 -108 66q8 -18 8 -35q0 -43 -39 -85q-40 -37 -86 -37q-57 0 -103 40t-46 98q0 64 48 103t126 39q69 0 316 -140q50 -26 97 -26q48 0 82 24q46 39 46 129q0 80 -58 124h-1007l-99 109h1309l98 -109h-203q6 -14 30 -64q25 -54 25 -124q0 -126 -74 -191q-37 -33 -79 -45
q61 -30 104 -84q72 -87 73 -202zM843 -266v342h-9q-14 -8 -50.5 -26.5t-57.5 -29.5l-24 -12q-98 -51 -132 -91q146 -38 273 -183z" />
    <glyph glyph-name="glyph182" horiz-adv-x="1076" 
d="M1180 -348l15 -79q-227 246 -557 398q-213 94 -321 105l-105 252q152 -92 321 -92q152 0 229 67q58 62 66 146q1 5 1 15v16q0 143 -107 166q-33 8 -85 -25q20 -37 20 -74q0 -58 -42 -94q-41 -38 -97 -38q-127 0 -151 120q-11 75 50 139q59 63 134 72q29 8 64 12
q-32 18 -49 37q-56 65 -87 87q-32 23 -57 23q-26 0 -55 -18q13 -19 13 -40q0 -45 -41 -83q-38 -38 -86 -38q-60 0 -105 39t-45 99q0 65 50 115q51 51 126 51q96 0 203 -61l121 -82q40 -21 79 -21q51 0 100 28q27 18 62 72q33 57 33 110q0 38 -21 74h-869l-99 109h1184
l100 -109h-233q22 -76 22 -150q0 -142 -99 -229q-35 -32 -85 -43q192 -83 182 -273q-10 -160 -121 -249q-97 -75 -257 -76l318 -210q171 -125 281 -268z" />
    <glyph glyph-name="glyph183" horiz-adv-x="1081" 
d="M1100 -194l15 -79q-90 71 -161 115v-259l-99 66q-53 63 -131 84h1q-15 4 -59 4q-48 0 -107 -4q-78 -10 -87 -12q-51 -9 -78 -9q-21 0 -46 5q-117 23 -190.5 105t-94.5 212q-9 60 -9 105q0 49 12 81l47 -31q-3 -13 -3 -32q0 -48 19 -121q40 -159 214 -179q29 3 81 13
q69 12 133 12q119 0 222 -75q43 -30 75 -77v170q-95 51 -231 111q-144 65 -368 145l-113 267q166 -71 202 -82q115 -33 208 -33q102 0 179 41q73 41 73 143q0 57 -28 100q-31 54 -85 66q-27 7 -86 -25q21 -38 21 -72q0 -57 -42 -96t-96 -39q-130 0 -151 121q-11 77 49 138
q61 64 136 74q4 2 17 4t18 3q-36 39 -115 108q-7 7 -23 21l-10 11v-1q-22 19 -47 19q-15 0 -32 -11q11 -19 11 -39q0 -44 -40 -84q-38 -38 -87 -38q-60 0 -105 39q-44 42 -44 99q0 67 49 116q53 50 127 50q95 0 205 -78l119 -98q28 -18 62 -18q24 0 104 25q36 14 66 67
q31 55 31 115q0 44 -21 81h-820l-99 109h1153l99 -109h-266q42 -87 42 -172q0 -172 -156 -243q69 -32 111 -86q66 -85 62 -175q-11 -155 -147 -231q-87 -45 -210 -45q-37 0 -64 4q149 -65 343 -200l66 -45l66 -44q73 -57 113 -107z" />
    <glyph glyph-name="glyph184" horiz-adv-x="1557" 
d="M1611 1149h-849v-521l47 37l152 133q74 58 156 102l151 67l196 -147l-56 -119q-57 -134 -77 -254l-9 -77l-4 -141l4 -48l6 -35l3 -41l13 -80l15 -56l19 -58l-79 32l-38 114l-23 97l-17 96l-15 155l-2 48v47l2 59l8 56l31 127q-81 -29 -121 -54l-53 -32q-26 -15 -47 -38
q-82 -75 -135 -147q-64 -81 -97 -168l-153 157v235l-26 39q-32 47 -43 55q-37 34 -79 55.5t-77 21.5l-26 -2q37 -27 37 -85q-11 -43 -50.5 -75.5t-94.5 -32.5q-57 0 -88 31l-36 48q-21 37 -22 62q0 105 65 160q52 45 134 45q87 0 172 -61l44 -40l39 -35l44 -49l7 -10v327
h-662l-83 110h1603z" />
    <glyph glyph-name="glyph139" horiz-adv-x="1412" 
d="M1408 1259l107 -109h-791v-501q60 97 194 204q121 94 244 126l192 -141q-169 -187 -169 -564q0 -103 50 -344l-69 29q-66 81 -130 118.5t-156 39.5q-67 -5 -81 -7q-52 -5 -170 -5q-153 1 -242 109q-68 82 -68 197q0 71 16 136l68 -40q-9 -31 -9 -63q0 -75 73 -128
q86 -58 191 -47q18 1 42.5 3t41 3.5t28.5 2.5q65 3 113 -6q57 -11 106.5 -52.5t133.5 -134.5q-43 155 -45 360q-3 165 57 317q-109 -50 -187 -127q-114 -115 -183 -249l-148 153v176q-99 176 -183 176q-48 0 -71 -17q33 -36 33 -81q0 -49 -38 -87q-37 -37 -93 -37
q-63 0 -103 37t-40 97q0 89 50 142q73 75 176 75q160 0 269 -157v287h-646l-107 109h1544z" />
    <glyph glyph-name="glyph140" horiz-adv-x="1489" 
d="M1450 1259l97 -109h-861v-359q94 99 211 153q108 52 195 52q104 0 166 -92q52 -79 52 -160v-807l-64 64q-88 123 -240 176q-67 26 -229 43l-110 125q93 125 544 345v42q0 113 -68 113q-117 0 -251 -90q-129 -85 -209 -193q-86 92 -97 92v51q-64 184 -185 203
q-48 8 -79 -16q35 -35 35 -80q0 -47 -37 -85q-36 -36 -88 -36q-61 0 -100.5 36.5t-39.5 94.5q0 80 62 139q59 62 151 62q185 0 281 -197v324h-599l-99 109h1562zM1211 125v407q-296 -143 -344 -199q133 -52 193 -83q114 -62 151 -125z" />
    <glyph glyph-name="glyph141" horiz-adv-x="1450" 
d="M1399 1259l107 -109h-562v-412q114 48 161 59q40 10 79 -15q39 -26 57 -73q18 -46 18 -158q0 -13 -3 -69v-97q0 -13 -2 -135v-105q0 -148 34 -212q-64 19 -108 75q-42 57 -42 121q0 459 -3 509q-21 0 -191 -72v-640l-70 66q-98 135 -269 206q-130 57 -255 62l-115 129
q171 131 560 294q-47 49 -126 107q-133 94 -224 94q-39 0 -65 -18q29 -38 29 -79q0 -55 -46 -95q-44 -40 -96 -40q-71 0 -118 41q-46 42 -46 104q0 105 74 170q67 57 191 57q225 0 469 -277v403h-846l-107 109h1515zM837 131v392q-48 -10 -173 -69q-124 -58 -174 -90
q225 -82 347 -233z" />
    <glyph glyph-name="glyph142" horiz-adv-x="1429" 
d="M927 -58v-385l-61 45q-113 149 -372 173l-94 162q80 95 203 158l102 51q-46 30 -106 54q-133 58 -257 63l-109 126q71 54 275 157q164 85 284 134q-42 47 -131 110q-133 93 -224 93q-35 0 -71 -17q30 -39 30 -81q0 -51 -44 -92q-44 -39 -92 -39q-68 0 -114 42v-1
q-47 41 -47 99q0 101 76 168q62 54 184 54q227 0 469 -282v416h-841l-99 109h1507l98 -109h-564v-422q106 49 168 63q37 6 72 -16q39 -23 56 -70q17 -48 17 -156v-68q-3 -57 -3 -97v-134q-1 -15 -1 -41v-31q0 -10 -0.5 -21t-0.5 -12q0 -150 31 -205q-58 20 -99 73
q-39 52 -39 116q0 459 -3 512q-23 -1 -198 -73q0 -105 -1 -313t-1 -313zM828 121v405q-52 -9 -179 -71q-142 -68 -176 -93q240 -86 355 -241zM827 -277v322q-1 2 -7 8l-8 9l-63 -32l-63 -33q-95 -48 -132 -91q148 -37 273 -183z" />
    <glyph glyph-name="glyph143" horiz-adv-x="1374" 
d="M1348 1259l100 -109h-517v-404q7 2 20 5t21 4q91 18 127 27q36 8 73 -15q37 -21 54.5 -68.5t17.5 -135.5v-70q-2 -58 -2 -81v-133q-3 -91 -3 -105q0 -146 32 -205q-59 18 -100 72q-40 55 -40 117v328q0 126 -1 143q-97 0 -199 -43v-649q-81 44 -140 54q-89 18 -116 16
q-144 -9 -235 -9q-50 0 -85 3q-150 13 -235 118q-60 84 -60 208q0 100 44 217l43 -38q-8 -47 -8 -108q0 -30 3 -52q16 -100 55 -139q45 -45 147 -45h17q13 0 19 1q5 1 17 1h19q66 0 152 -12q130 -12 172 -35q74 -37 129 -92q10 63 -30 97q-97 110 -252 166q-108 44 -219 49
l-109 132q69 53 269 143q175 75 267 97q-13 23 -72 79q-54 54 -94 77q-63 30 -144 30q-59 0 -82 -17q27 -35 27 -74q0 -50 -42 -91q-43 -41 -90 -41q-68 0 -115 38q-45 39 -45 98q0 89 71 149q63 50 176 50q295 0 446 -243v386h-844l-99 109h1460zM831 202v349
q-40 -7 -148 -48q-105 -42 -162 -74q202 -68 310 -227z" />
    <glyph glyph-name="glyph144" horiz-adv-x="1082" 
d="M1045 1259l104 -109h-240v-1213l-62 61q-9 51 -26 107q-37 87 -109 146.5t-172 85.5q-39 9 -70 9q-41 0 -62 -19q11 -28 11 -57q0 -57 -38.5 -94t-98.5 -37q-63 0 -101 41q-61 58 -49 145q10 71 73 116q63 42 154 42q124 0 274 -83q106 -66 176 -158v391q-69 89 -167 157
q-125 86 -225 86q-38 0 -70 -17q30 -41 30 -81q0 -52 -43 -92t-93 -40q-68 0 -115 42q-46 42 -46 99q0 222 261 222q54 0 108 -17q196 -60 360 -267v425h-822l-99 109h1157z" />
    <glyph glyph-name="glyph145" horiz-adv-x="1307" 
d="M1268 1259l99 -109h-227v-1213l-61 61q-23 169 -86 251q-74 88 -133 107q-25 -138 -143 -138q-43 0 -79 21q-76 45 -72 127q8 72 72 117q49 29 111 24q11 28 11 33q0 103 -94 177q-22 0 -40 5q-42 10 -73 38q-71 69 -94 85q-41 30 -109 51q7 -19 7 -34q0 -45 -41 -83
q-42 -39 -91 -39q-60 0 -100 39t-40 97q0 63 48.5 102.5t126.5 39.5q85 0 291 -121q50 -26 97 -26q48 0 83 23q46 39 46 129q0 84 -59 127h-731l-99 109h1380zM1041 288v862h-226q6 -9 34 -64q22 -56 22 -126q0 -154 -113 -219q97 -98 109 -273q119 -74 174 -180z" />
    <glyph glyph-name="glyph146" horiz-adv-x="1323" 
d="M1279 1259l99 -109h-234v-1213l-99 99v559q-9 73 -57 130q-63 69 -97 69q-46 0 -179 -237q-40 -68 -129 -195q-43 -64 -99 -64q-36 0 -86 34q-34 24 -95 85l30 74q10 -6 55 -40q22 -16 42 -16q35 0 57 43q34 57 94 146q-19 70 -81 126q-60 59 -118 63q-43 4 -79 -22
q35 -35 35 -78q0 -48 -37 -85t-89 -37q-60 0 -100 37t-40 94q0 88 51 139q74 72 173 72q232 0 326 -250q3 7 7 15l9 18t8 15q1 3 9.5 20.5t11.5 24.5q-5 81 -61 173q-53 87 -127 113q-4 2 -15.5 3.5t-16.5 2.5q-8 1 -86 17q-60 16 -98 65h-276l-99 109h1391zM1045 762v388
h-454q111 -133 127 -311q12 20 59 70q43 46 79 46q38 0 83 -39q34 -29 82 -107q13 -29 24 -47z" />
    <glyph glyph-name="glyph147" horiz-adv-x="232" 
d="M61 759v99h55v-99h-55z" />
    <glyph glyph-name="glyph148" horiz-adv-x="232" 
d="M61 759v99h55v-99h-55z" />
    <glyph glyph-name="glyph149" horiz-adv-x="1538" 
d="M1509 1259l98 -109h-748v-777q6 -44 26 -70.5t51 -26.5q77 0 186 91q104 83 131 169q22 82 18 95q-24 -6 -52 -6q-57 0 -97 34q-41 35 -41 91q0 67 38 111t102 44q93 0 150 -75t57 -170q0 -169 -148 -341q-153 -180 -319 -180q-72 0 -137 74q-64 73 -64 148v430
q-13 15 -28 30q-2 2 -40 34q-8 8 -15 13l-418 -301l-53 93l68 63h-1q21 48 21 59q0 29 -22 51q-20 23 -44 23q-19 0 -58 -16q-41 -16 -55 -16q-29 3 -47.5 29t-18.5 59q4 105 97 166q79 52 190 52q217 0 424 -246v375h474q58 38 58 93q0 110 -254 110q-493 -34 -540 -34
q-131 0 -223 77q-89 78 -80 208q8 78 27 100l32 -21q-15 -36 -15 -70q0 -66 53 -101q46 -34 116 -34q95 0 287 12q186 13 288 13q85 0 153 -11q107 -19 171 -89q73 -82 63 -181q-4 -45 -14 -72h153zM343 767l256 184q-77 77 -205 77q-132 0 -180 -73q136 -15 136 -136
q0 -30 -7 -52z" />
    <glyph glyph-name="glyph150" horiz-adv-x="1198" 
d="M927 1007l2 428l63 -46q0 -110 65 -130h92l109 -109h-220v-480q134 -98 134 -264q4 -195 -136 -302q-97 -76 -264 -76q-152 0 -305 99q-150 100 -240 247q-55 96 -78 141t-47 104q-28 68 -54.5 178t-29.5 185l66 -31q14 -66 67 -233q48 -126 178 -290q69 -90 198 -158
q139 -69 252 -69q109 0 176 33q108 59 127 170q12 81 -49 145q-52 54 -128 54q-23 0 -47 -11q28 -28 23 -72q-5 -95 -88 -116q-26 -10 -58 -10q-66 0 -104.5 42t-38.5 116q0 72 67 130t169 58q45 0 101 -17v160q-1 2 -6 7t-8 9l-57 58l-456 -332l-73 110l87 64q24 49 24 66
q0 28 -23 52.5t-51 24.5q-20 0 -63 -18q-43 -17 -58 -14q-34 0 -55.5 29.5t-17.5 66.5q6 132 98 200q103 76 217 76q141 0 247 -76q73 -52 183 -188q3 -4 10 -11zM494 850l277 197q-111 111 -222 111q-120 0 -195 -105q150 -21 150 -149q0 -25 -10 -54z" />
    <glyph glyph-name="glyph151" horiz-adv-x="1234" 
d="M1197 1259l99 -109h-258v-454l9 -6t12.5 -9t13.5 -12v1q86 -72 81 -155q-6 -87 -71 -149q75 -81 75 -185q0 -131 -103 -212q-102 -80 -251 -73q-264 16 -473 288q-92 120 -171 323.5t-100 384.5l51 -27q3 -11 6 -24l6 -26q85 -329 266 -569q83 -101 185.5 -156t201.5 -57
q6 0 15.5 -0.5t13.5 -0.5q113 0 180.5 38.5t88.5 108.5q11 38 -14 68q-15 21 -57 30q-67 -42 -109 -42q-127 0 -127 117q0 104 120 107q90 3 143 -40q51 43 51 108q0 59 -48 94q-47 38 -111 38q-83 0 -191 -44q-117 -47 -145 -108q72 -44 70 -97q-6 -93 -110 -93
q-64 0 -105.5 37.5t-37.5 93.5q6 129 168 217q151 80 307 76q37 -2 60 -7v153q-28 35 -72 78l-416 -303l-66 96l79 59q22 45 22 61q0 27 -21 50t-47 23q-12 0 -58 -17q-39 -15 -54 -15q-29 3 -47.5 28.5t-18.5 59.5q6 118 95 185q88 64 192 64q132 0 230 -72
q71 -49 182 -188v423l54 -38q0 -98 70 -122h135zM533 864l257 181q-103 103 -207 103q-115 0 -179 -100q136 -15 136 -134q0 -29 -7 -50z" />
    <glyph glyph-name="glyph152" horiz-adv-x="1121" 
d="M856 1074v399l33 -34l33 -33q2 -63 36 -105t82 -42h49l98 -109h-154q-55 0 -74 22l-3 -672v-563l-62 63q-27 42 -78 63q-29 13 -88 13q-47 0 -87 -5q-202 -25 -228 -25q-177 0 -265 91q-97 99 -97 259q0 101 58 195l42 -32q-30 -125 -30 -159q0 -205 268 -205
q33 0 102 11q71 11 104 11q98 0 165 -43q21 -8 99 -77l-3 403v106q-17 111 -84 111q-75 0 -134 -62q-50 -50 -74 -133q16 3 25 1l8 -4q36 0 58 -31q24 -32 24 -69q0 -54 -48 -87q-33 -21 -72 -21q-61 0 -101 51q-38 47 -38 107q0 18 3 38q28 161 206 266q68 41 148 41
q38 0 79 -29v37q0 1 -9 51q-18 127 -38 168q-38 71 -62 91l-334 -300l-129 48q31 22 61 52q37 34 37 67q0 31 -18 62q-25 31 -57 31q-13 0 -61 -16q-39 -16 -61 -16q-24 0 -47 19q-26 23 -23 43q26 109 108 168q120 83 256 73q169 -11 270 -119q53 -59 107 -170zM429 1000
l237 214q-70 58 -160 58q-97 0 -148 -27q-63 -37 -81 -80q81 6 124 -54q28 -44 28 -111z" />
    <glyph glyph-name="glyph153" horiz-adv-x="1258" 
d="M1218 1259l99 -109h-220v-1213l-62 62q-19 38 -91 119q-62 73 -96 95q-93 49 -171 43q-42 -6 -51 -32q13 -30 13 -57q0 -55 -41 -91q-38 -39 -97 -39q-57 0 -101 42q-50 47 -50 93q0 16 5 43q13 64 81 118q64 49 145 49q218 0 417 -235v470q-13 75 -63 173
q-50 99 -77 127l-409 -412l-157 66q29 24 73 69q46 45 46 92t-21 86q-29 44 -71 44q-22 0 -77 -23q-50 -22 -72 -22q-30 0 -61 28q-31 29 -26 58q23 138 133 229q127 101 284 101h14q10 0 15 -1q211 -19 331 -162q87 -105 170 -332q1 6 1 19v21q0 44 -17 175
q-16 124 -16 199v306l47 -47q0 -80 23.5 -116t74.5 -36h75zM467 734l293 294q-86 82 -199 82q-123 0 -180 -39q-80 -50 -101 -111q101 12 152 -71q35 -57 35 -155z" />
    </font>
</defs>
</svg>
